<svg height="34" overflow="visible" viewBox="0 0 120 34" width="120" xmlns="http://www.w3.org/2000/svg"><g><defs><path id="path-1694643809224330" d="M10.000000000000002 33.99999999999996 C4.477152502000001 33.99999999999996 0 29.522847497999958 0 23.999999999999957 C0 23.999999999999957 0 10.000000000000002 0 10.000000000000002 C0 4.477152502000001 4.477152502000001 0 10.000000000000002 0 C10.000000000000002 0 110.00000000000007 0 110.00000000000007 0 C115.52284749800008 0 120.00000000000007 4.477152502000001 120.00000000000007 10.000000000000002 C120.00000000000007 10.000000000000002 120.00000000000007 23.999999999999957 120.00000000000007 23.999999999999957 C120.00000000000007 29.522847497999958 115.52284749800008 33.99999999999996 110.00000000000007 33.99999999999996 C110.00000000000007 33.99999999999996 10.000000000000002 33.99999999999996 10.000000000000002 33.99999999999996 Z" vector-effect="non-scaling-stroke"/></defs> <path d="M10.000000000000002 33.99999999999994 C4.477152502000001 33.99999999999994 0 29.522847497999944 0 23.999999999999943 C0 23.999999999999943 0 10.000000000000002 0 10.000000000000002 C0 4.477152502000001 4.477152502000001 0 10.000000000000002 0 C10.000000000000002 0 110.00000000000011 0 110.00000000000011 0 C115.52284749800012 0 120.00000000000011 4.477152502000001 120.00000000000011 10.000000000000002 C120.00000000000011 10.000000000000002 120.00000000000011 23.999999999999943 120.00000000000011 23.999999999999943 C120.00000000000011 29.522847497999944 115.52284749800012 33.99999999999994 110.00000000000011 33.99999999999994 C110.00000000000011 33.99999999999994 10.000000000000002 33.99999999999994 10.000000000000002 33.99999999999994 Z" style="stroke-width: 0; stroke-linecap: butt; stroke-linejoin: miter; fill: rgb(226, 6, 19);" vector-effect="non-scaling-stroke"/></g><g><defs><path id="path-1694643809142138" d="M0,0h7.2718v3.59741h-2.90631v3.41625h2.72542v3.42919h-2.72542v3.95974h3.19573v3.59741h-7.56122zM13,0v17.98706h-4.30519v-17.98706z" vector-effect="non-scaling-stroke"/></defs><path style="stroke-width: 0; stroke-linecap: butt; stroke-linejoin: miter; fill: rgb(29, 29, 27);" d="M0,0h7.2718v3.59741h-2.90631v3.41625h2.72542v3.42919h-2.72542v3.95974h3.19573v3.59741h-7.56122zM13,0v17.98706h-4.30519v-17.98706z" transform="translate(14, 8) rotate(0)" vector-effect="non-scaling-stroke"/></g><g><defs><path id="path-1694643809142136" d="M0,0h4.28741c1.35392,0 2.3753,0.11638 3.07601,0.34914c0.70071,0.23276 1.25891,0.69828 1.68646,1.39655c0.42755,0.69828 0.64133,1.82328 0.64133,3.38793c0,1.04741 -0.15439,1.78448 -0.45131,2.19828c-0.30879,0.41379 -0.90261,0.73707 -1.79335,0.9569c0.99762,0.24569 1.66271,0.64655 2.019,1.21552c0.35629,0.56897 0.53444,1.43534 0.53444,2.59914v1.6681c0,1.21552 -0.13064,2.10776 -0.38005,2.70259c-0.24941,0.5819 -0.66508,0.98276 -1.22328,1.20259c-0.55819,0.21983 -1.69834,0.32328 -3.42043,0.32328h-4.96437v-18v0zM4.29929,3.07759v3.99569c0.17815,0 0.32067,0 0.42755,0c0.41568,0 0.68884,-0.11638 0.8076,-0.33621c0.11876,-0.23276 0.17815,-0.86638 0.17815,-1.93966c0,-0.56897 -0.04751,-0.9569 -0.14252,-1.17672c-0.09501,-0.23276 -0.21378,-0.375 -0.36817,-0.42672c-0.15439,-0.06466 -0.45131,-0.09052 -0.89074,-0.10345v0zM4.29929,9.87931v5.03017c0.6057,-0.01293 0.98575,-0.12931 1.15202,-0.31034c0.16627,-0.18103 0.24941,-0.64655 0.24941,-1.37069v-1.68103c0,-0.77586 -0.07126,-1.24138 -0.22565,-1.39655c-0.15439,-0.15517 -0.54632,-0.25862 -1.17577,-0.28448z" vector-effect="non-scaling-stroke"/></defs><path style="stroke-width: 0; stroke-linecap: butt; stroke-linejoin: miter; fill: rgb(29, 29, 27);" d="M0,0h4.28741c1.35392,0 2.3753,0.11638 3.07601,0.34914c0.70071,0.23276 1.25891,0.69828 1.68646,1.39655c0.42755,0.69828 0.64133,1.82328 0.64133,3.38793c0,1.04741 -0.15439,1.78448 -0.45131,2.19828c-0.30879,0.41379 -0.90261,0.73707 -1.79335,0.9569c0.99762,0.24569 1.66271,0.64655 2.019,1.21552c0.35629,0.56897 0.53444,1.43534 0.53444,2.59914v1.6681c0,1.21552 -0.13064,2.10776 -0.38005,2.70259c-0.24941,0.5819 -0.66508,0.98276 -1.22328,1.20259c-0.55819,0.21983 -1.69834,0.32328 -3.42043,0.32328h-4.96437v-18v0zM4.29929,3.07759v3.99569c0.17815,0 0.32067,0 0.42755,0c0.41568,0 0.68884,-0.11638 0.8076,-0.33621c0.11876,-0.23276 0.17815,-0.86638 0.17815,-1.93966c0,-0.56897 -0.04751,-0.9569 -0.14252,-1.17672c-0.09501,-0.23276 -0.21378,-0.375 -0.36817,-0.42672c-0.15439,-0.06466 -0.45131,-0.09052 -0.89074,-0.10345v0zM4.29929,9.87931v5.03017c0.6057,-0.01293 0.98575,-0.12931 1.15202,-0.31034c0.16627,-0.18103 0.24941,-0.64655 0.24941,-1.37069v-1.68103c0,-0.77586 -0.07126,-1.24138 -0.22565,-1.39655c-0.15439,-0.15517 -0.54632,-0.25862 -1.17577,-0.28448z" transform="translate(32, 8) rotate(0)" vector-effect="non-scaling-stroke"/></g><g><defs><path id="path-1694643809141134" d="M7.99997,5.34716v3.54361c0,1.29551 -0.05025,2.2608 -0.1608,2.85775c-0.1005,0.60965 -0.32161,1.1685 -0.66332,1.70195c-0.34171,0.52075 -0.77387,0.91448 -1.30653,1.1685c-0.53266,0.25402 -1.14573,0.38103 -1.8392,0.38103c-0.77387,0 -1.42714,-0.10161 -1.9598,-0.31753c-0.53266,-0.21592 -0.95477,-0.54615 -1.24623,-0.97798c-0.30151,-0.43184 -0.51256,-0.95258 -0.63317,-1.57494c-0.13065,-0.60965 -0.19095,-1.53683 -0.19095,-2.76884v-3.70872c0,-1.34632 0.11055,-2.40051 0.34171,-3.14987c0.23116,-0.76207 0.64322,-1.35902 1.24623,-1.81626c0.60302,-0.45724 1.36683,-0.68586 2.29146,-0.68586c0.78392,0 1.45729,0.15241 2.0201,0.44454c0.56281,0.29213 0.99497,0.67316 1.29648,1.1558c0.30151,0.46994 0.51256,0.96528 0.62312,1.46063c0.11055,0.50804 0.17085,1.27011 0.17085,2.2989v0zM4.51253,4.25487c0,-0.74936 -0.03015,-1.2066 -0.09045,-1.40982c-0.0603,-0.19052 -0.20101,-0.29213 -0.40201,-0.29213c-0.20101,0 -0.34171,0.10161 -0.41206,0.29213c-0.07035,0.19052 -0.11055,0.66046 -0.11055,1.40982v6.52837c0,0.68586 0.0402,1.1304 0.11055,1.33362c0.07035,0.20322 0.20101,0.31753 0.40201,0.31753c0.20101,0 0.34171,-0.10161 0.41206,-0.27942c0.07035,-0.19052 0.1005,-0.59695 0.1005,-1.21931v-6.68078z" vector-effect="non-scaling-stroke"/></defs><path style="stroke-width: 0; stroke-linecap: butt; stroke-linejoin: miter; fill: rgb(29, 29, 27);" d="M7.99997,5.34716v3.54361c0,1.29551 -0.05025,2.2608 -0.1608,2.85775c-0.1005,0.60965 -0.32161,1.1685 -0.66332,1.70195c-0.34171,0.52075 -0.77387,0.91448 -1.30653,1.1685c-0.53266,0.25402 -1.14573,0.38103 -1.8392,0.38103c-0.77387,0 -1.42714,-0.10161 -1.9598,-0.31753c-0.53266,-0.21592 -0.95477,-0.54615 -1.24623,-0.97798c-0.30151,-0.43184 -0.51256,-0.95258 -0.63317,-1.57494c-0.13065,-0.60965 -0.19095,-1.53683 -0.19095,-2.76884v-3.70872c0,-1.34632 0.11055,-2.40051 0.34171,-3.14987c0.23116,-0.76207 0.64322,-1.35902 1.24623,-1.81626c0.60302,-0.45724 1.36683,-0.68586 2.29146,-0.68586c0.78392,0 1.45729,0.15241 2.0201,0.44454c0.56281,0.29213 0.99497,0.67316 1.29648,1.1558c0.30151,0.46994 0.51256,0.96528 0.62312,1.46063c0.11055,0.50804 0.17085,1.27011 0.17085,2.2989v0zM4.51253,4.25487c0,-0.74936 -0.03015,-1.2066 -0.09045,-1.40982c-0.0603,-0.19052 -0.20101,-0.29213 -0.40201,-0.29213c-0.20101,0 -0.34171,0.10161 -0.41206,0.29213c-0.07035,0.19052 -0.11055,0.66046 -0.11055,1.40982v6.52837c0,0.68586 0.0402,1.1304 0.11055,1.33362c0.07035,0.20322 0.20101,0.31753 0.40201,0.31753c0.20101,0 0.34171,-0.10161 0.41206,-0.27942c0.07035,-0.19052 0.1005,-0.59695 0.1005,-1.21931v-6.68078z" transform="translate(44.00002999999998, 11) rotate(0)" vector-effect="non-scaling-stroke"/></g><g><defs><path id="path-1694643809141132" d="M9,0v17.7321h-3.90375v-1.04607c-0.37125,0.43373 -0.765,0.76541 -1.18125,0.98228c-0.41625,0.21687 -0.84375,0.33168 -1.29375,0.33168c-0.6075,0 -1.13625,-0.1786 -1.575,-0.54855c-0.45,-0.35719 -0.73125,-0.77817 -0.855,-1.25018c-0.12375,-0.47201 -0.19125,-1.25018 -0.19125,-2.32176v-6.81219c0,-1.10985 0.0675,-1.91354 0.19125,-2.37279c0.12375,-0.47201 0.41625,-0.88023 0.86625,-1.23742c0.45,-0.35719 0.99,-0.53579 1.60875,-0.53579c0.48375,0 0.9225,0.10206 1.3275,0.29341c0.405,0.20411 0.765,0.49752 1.1025,0.88023v-4.09497zM5.09625,6.86322c0,-0.53579 -0.045,-0.89298 -0.12375,-1.07158c-0.07875,-0.1786 -0.23625,-0.28065 -0.48375,-0.28065c-0.2475,0 -0.39375,0.07654 -0.4725,0.24238c-0.07875,0.16584 -0.12375,0.53579 -0.12375,1.09709v7.11836c0,0.58682 0.045,0.98228 0.12375,1.16088c0.07875,0.19135 0.225,0.28065 0.43875,0.28065c0.2475,0 0.41625,-0.10206 0.50625,-0.31892c0.07875,-0.20411 0.12375,-0.71439 0.12375,-1.53083v-6.72289z" vector-effect="non-scaling-stroke"/></defs><path style="stroke-width: 0; stroke-linecap: butt; stroke-linejoin: miter; fill: rgb(29, 29, 27);" d="M9,0v17.7321h-3.90375v-1.04607c-0.37125,0.43373 -0.765,0.76541 -1.18125,0.98228c-0.41625,0.21687 -0.84375,0.33168 -1.29375,0.33168c-0.6075,0 -1.13625,-0.1786 -1.575,-0.54855c-0.45,-0.35719 -0.73125,-0.77817 -0.855,-1.25018c-0.12375,-0.47201 -0.19125,-1.25018 -0.19125,-2.32176v-6.81219c0,-1.10985 0.0675,-1.91354 0.19125,-2.37279c0.12375,-0.47201 0.41625,-0.88023 0.86625,-1.23742c0.45,-0.35719 0.99,-0.53579 1.60875,-0.53579c0.48375,0 0.9225,0.10206 1.3275,0.29341c0.405,0.20411 0.765,0.49752 1.1025,0.88023v-4.09497zM5.09625,6.86322c0,-0.53579 -0.045,-0.89298 -0.12375,-1.07158c-0.07875,-0.1786 -0.23625,-0.28065 -0.48375,-0.28065c-0.2475,0 -0.39375,0.07654 -0.4725,0.24238c-0.07875,0.16584 -0.12375,0.53579 -0.12375,1.09709v7.11836c0,0.58682 0.045,0.98228 0.12375,1.16088c0.07875,0.19135 0.225,0.28065 0.43875,0.28065c0.2475,0 0.41625,-0.10206 0.50625,-0.31892c0.07875,-0.20411 0.12375,-0.71439 0.12375,-1.53083v-6.72289z" transform="translate(54, 8) rotate(0)" vector-effect="non-scaling-stroke"/></g><g><defs><path id="path-1694643809141130" d="M8.99995,7.77307h-5.07663v3.13717c0,0.66046 0.04523,1.07959 0.12437,1.27011c0.09045,0.19052 0.24874,0.27942 0.48618,0.27942c0.29397,0 0.49749,-0.12701 0.59925,-0.38103c0.10176,-0.25402 0.14698,-0.73666 0.14698,-1.46063v-1.90517h3.71985v1.06689c0,0.88908 -0.05653,1.58764 -0.14698,2.05758c-0.10176,0.48264 -0.3392,0.99069 -0.70101,1.53683c-0.37312,0.54615 -0.83668,0.95258 -1.40201,1.21931c-0.56533,0.27942 -1.27764,0.40644 -2.13693,0.40644c-0.8593,0 -1.5603,-0.13971 -2.19347,-0.40644c-0.63317,-0.26672 -1.13065,-0.63506 -1.48116,-1.105c-0.3505,-0.46994 -0.59925,-0.99069 -0.73492,-1.54953c-0.13568,-0.57155 -0.20352,-1.38442 -0.20352,-2.46401v-4.21677c0,-1.27011 0.14698,-2.2608 0.45226,-2.99746c0.30528,-0.72396 0.80276,-1.29551 1.50377,-1.67655c0.6897,-0.39373 1.49246,-0.58425 2.38568,-0.58425c1.09673,0 2.01256,0.22862 2.72487,0.69856c0.71231,0.46994 1.22111,1.09229 1.50377,1.86706c0.29397,0.77477 0.42965,1.86706 0.42965,3.26418v1.91787v0zM5.06528,5.41067v-1.05419c0,-0.74936 -0.03392,-1.23201 -0.10176,-1.44793c-0.06784,-0.21592 -0.21482,-0.33023 -0.44095,-0.33023c-0.27136,0 -0.44095,0.08891 -0.50879,0.27942c-0.06784,0.19052 -0.10176,0.68586 -0.10176,1.49873v1.05419h1.14196z" vector-effect="non-scaling-stroke"/></defs><path style="stroke-width: 0; stroke-linecap: butt; stroke-linejoin: miter; fill: rgb(29, 29, 27);" d="M8.99995,7.77307h-5.07663v3.13717c0,0.66046 0.04523,1.07959 0.12437,1.27011c0.09045,0.19052 0.24874,0.27942 0.48618,0.27942c0.29397,0 0.49749,-0.12701 0.59925,-0.38103c0.10176,-0.25402 0.14698,-0.73666 0.14698,-1.46063v-1.90517h3.71985v1.06689c0,0.88908 -0.05653,1.58764 -0.14698,2.05758c-0.10176,0.48264 -0.3392,0.99069 -0.70101,1.53683c-0.37312,0.54615 -0.83668,0.95258 -1.40201,1.21931c-0.56533,0.27942 -1.27764,0.40644 -2.13693,0.40644c-0.8593,0 -1.5603,-0.13971 -2.19347,-0.40644c-0.63317,-0.26672 -1.13065,-0.63506 -1.48116,-1.105c-0.3505,-0.46994 -0.59925,-0.99069 -0.73492,-1.54953c-0.13568,-0.57155 -0.20352,-1.38442 -0.20352,-2.46401v-4.21677c0,-1.27011 0.14698,-2.2608 0.45226,-2.99746c0.30528,-0.72396 0.80276,-1.29551 1.50377,-1.67655c0.6897,-0.39373 1.49246,-0.58425 2.38568,-0.58425c1.09673,0 2.01256,0.22862 2.72487,0.69856c0.71231,0.46994 1.22111,1.09229 1.50377,1.86706c0.29397,0.77477 0.42965,1.86706 0.42965,3.26418v1.91787v0zM5.06528,5.41067v-1.05419c0,-0.74936 -0.03392,-1.23201 -0.10176,-1.44793c-0.06784,-0.21592 -0.21482,-0.33023 -0.44095,-0.33023c-0.27136,0 -0.44095,0.08891 -0.50879,0.27942c-0.06784,0.19052 -0.10176,0.68586 -0.10176,1.49873v1.05419h1.14196z" transform="translate(64.00004580087949, 11) rotate(0)" vector-effect="non-scaling-stroke"/></g><g><defs><path id="path-1694643809141128" d="M8.98875,0.25055v10.99926c0,1.49079 -0.03375,2.44289 -0.09,2.88136c-0.0675,0.43847 -0.28125,0.88946 -0.6525,1.37804c-0.37125,0.48858 -0.88875,0.85188 -1.56375,1.11496c-0.66375,0.25055 -1.5075,0.37583 -2.52,0.37583c-1.2375,0 -2.23875,-0.23803 -2.9925,-0.70155c-0.75375,-0.47605 -1.13625,-1.39057 -1.17,-2.76861h3.79125c0,0.62638 0.2025,0.93957 0.61875,0.93957c0.2925,0 0.495,-0.10022 0.585,-0.28814c0.10125,-0.18791 0.14625,-0.60133 0.14625,-1.21518v-1.07738c-0.3375,0.33825 -0.68625,0.5888 -1.0575,0.76419c-0.37125,0.17539 -0.75375,0.26308 -1.15875,0.26308c-0.6975,0 -1.2825,-0.16286 -1.7325,-0.47605c-0.45,-0.31319 -0.765,-0.7266 -0.93375,-1.24024c-0.16875,-0.51363 -0.2475,-1.24024 -0.2475,-2.19234v-5.18644c0,-1.35298 0.21375,-2.33014 0.6525,-2.93147c0.43875,-0.5888 1.1025,-0.88946 2.0025,-0.88946c0.495,0 0.93375,0.11275 1.33875,0.33825c0.405,0.2255 0.765,0.55122 1.08,1.00221l0.28125,-1.07738h3.63375zM5.07375,4.04643c0,-0.65144 -0.03375,-1.06485 -0.10125,-1.25276c-0.0675,-0.17539 -0.21375,-0.27561 -0.45,-0.27561c-0.23625,0 -0.3825,0.10022 -0.48375,0.31319c-0.09,0.20044 -0.14625,0.60133 -0.14625,1.21518v4.79808c0,0.63891 0.03375,1.05232 0.1125,1.24024c0.0675,0.18791 0.21375,0.28814 0.43875,0.28814c0.25875,0 0.4275,-0.11275 0.50625,-0.35077c0.07875,-0.2255 0.1125,-0.75166 0.1125,-1.55343v-4.42225z" vector-effect="non-scaling-stroke"/></defs><path style="stroke-width: 0; stroke-linecap: butt; stroke-linejoin: miter; fill: rgb(29, 29, 27);" d="M8.98875,0.25055v10.99926c0,1.49079 -0.03375,2.44289 -0.09,2.88136c-0.0675,0.43847 -0.28125,0.88946 -0.6525,1.37804c-0.37125,0.48858 -0.88875,0.85188 -1.56375,1.11496c-0.66375,0.25055 -1.5075,0.37583 -2.52,0.37583c-1.2375,0 -2.23875,-0.23803 -2.9925,-0.70155c-0.75375,-0.47605 -1.13625,-1.39057 -1.17,-2.76861h3.79125c0,0.62638 0.2025,0.93957 0.61875,0.93957c0.2925,0 0.495,-0.10022 0.585,-0.28814c0.10125,-0.18791 0.14625,-0.60133 0.14625,-1.21518v-1.07738c-0.3375,0.33825 -0.68625,0.5888 -1.0575,0.76419c-0.37125,0.17539 -0.75375,0.26308 -1.15875,0.26308c-0.6975,0 -1.2825,-0.16286 -1.7325,-0.47605c-0.45,-0.31319 -0.765,-0.7266 -0.93375,-1.24024c-0.16875,-0.51363 -0.2475,-1.24024 -0.2475,-2.19234v-5.18644c0,-1.35298 0.21375,-2.33014 0.6525,-2.93147c0.43875,-0.5888 1.1025,-0.88946 2.0025,-0.88946c0.495,0 0.93375,0.11275 1.33875,0.33825c0.405,0.2255 0.765,0.55122 1.08,1.00221l0.28125,-1.07738h3.63375zM5.07375,4.04643c0,-0.65144 -0.03375,-1.06485 -0.10125,-1.25276c-0.0675,-0.17539 -0.21375,-0.27561 -0.45,-0.27561c-0.23625,0 -0.3825,0.10022 -0.48375,0.31319c-0.09,0.20044 -0.14625,0.60133 -0.14625,1.21518v4.79808c0,0.63891 0.03375,1.05232 0.1125,1.24024c0.0675,0.18791 0.21375,0.28814 0.43875,0.28814c0.25875,0 0.4275,-0.11275 0.50625,-0.35077c0.07875,-0.2255 0.1125,-0.75166 0.1125,-1.55343v-4.42225z" transform="translate(75, 11) rotate(0)" vector-effect="non-scaling-stroke"/></g><g><defs><path id="path-1694643809140126" d="M85.82463894031193 3.6020075251089234 C85.82463894031193 3.6020075251089234 82.53758907189307 5.780844244842643 82.53758907189307 5.780844244842643 C82.53758907189307 5.780844244842643 80.49775316064024 5.780844244842643 80.49775316064024 5.780844244842643 C80.49775316064024 5.780844244842643 82.2694963521284 3.6020075251089234 82.2694963521284 3.6020075251089234 C82.2694963521284 3.6020075251089234 85.82463894031193 3.6020075251089234 85.82463894031193 3.6020075251089234 Z" vector-effect="non-scaling-stroke"/></defs> <path style="stroke-width: 0; stroke-linecap: butt; stroke-linejoin: miter; fill: rgb(29, 29, 27);" d="M94.13399309911244 8.833372569437188 C94.13399309911244 8.833372569437188 90.84694323069363 11.012209289170869 90.84694323069363 11.012209289170869 C90.84694323069363 11.012209289170869 88.80710731944077 11.012209289170869 88.80710731944077 11.012209289170869 C88.80710731944077 11.012209289170869 90.57885051092893 8.833372569437188 90.57885051092893 8.833372569437188 C90.57885051092893 8.833372569437188 94.13399309911244 8.833372569437188 94.13399309911244 8.833372569437188 Z" vector-effect="non-scaling-stroke"/></g><g><defs><path id="path-1694643809140124" d="M5.6407,4.25487c0,-0.74936 -0.03769,-1.2066 -0.11307,-1.40982c-0.07538,-0.19052 -0.25126,-0.29213 -0.50251,-0.29213c-0.25126,0 -0.42714,0.10161 -0.51508,0.29213c-0.08794,0.19052 -0.13819,0.66046 -0.13819,1.40982v6.52837c0,0.68586 0.05025,1.1304 0.13819,1.33362c0.08794,0.20322 0.25126,0.31753 0.50251,0.31753c0.25126,0 0.42714,-0.10161 0.51508,-0.27942c0.08794,-0.19052 0.12563,-0.59695 0.12563,-1.21931v-6.68078v0zM10,5.34716v3.54361c0,1.29551 -0.06281,2.2608 -0.20101,2.85775c-0.12563,0.60965 -0.40201,1.1685 -0.82915,1.70195c-0.42714,0.52075 -0.96734,0.91448 -1.63317,1.1685c-0.66583,0.25402 -1.43216,0.38103 -2.29899,0.38103c-0.96734,0 -1.78392,-0.10161 -2.44975,-0.31753c-0.66583,-0.21592 -1.19347,-0.54615 -1.55779,-0.97798c-0.37688,-0.43184 -0.6407,-0.95258 -0.79146,-1.57494c-0.16332,-0.60965 -0.23869,-1.53683 -0.23869,-2.76884v-3.70872c0,-1.34632 0.13819,-2.40051 0.42714,-3.14987c0.28894,-0.76207 0.80402,-1.35902 1.55779,-1.81626c0.75377,-0.45724 1.70854,-0.68586 2.86432,-0.68586c0.9799,0 1.82161,0.15241 2.52513,0.44454c0.70352,0.29213 1.24372,0.67316 1.6206,1.1558c0.37688,0.46994 0.6407,0.96528 0.77889,1.46063c0.13819,0.50804 0.21357,1.27011 0.21357,2.2989z" vector-effect="non-scaling-stroke"/></defs><path style="stroke-width: 0; stroke-linecap: butt; stroke-linejoin: miter; fill: rgb(29, 29, 27);" d="M5.6407,4.25487c0,-0.74936 -0.03769,-1.2066 -0.11307,-1.40982c-0.07538,-0.19052 -0.25126,-0.29213 -0.50251,-0.29213c-0.25126,0 -0.42714,0.10161 -0.51508,0.29213c-0.08794,0.19052 -0.13819,0.66046 -0.13819,1.40982v6.52837c0,0.68586 0.05025,1.1304 0.13819,1.33362c0.08794,0.20322 0.25126,0.31753 0.50251,0.31753c0.25126,0 0.42714,-0.10161 0.51508,-0.27942c0.08794,-0.19052 0.12563,-0.59695 0.12563,-1.21931v-6.68078v0zM10,5.34716v3.54361c0,1.29551 -0.06281,2.2608 -0.20101,2.85775c-0.12563,0.60965 -0.40201,1.1685 -0.82915,1.70195c-0.42714,0.52075 -0.96734,0.91448 -1.63317,1.1685c-0.66583,0.25402 -1.43216,0.38103 -2.29899,0.38103c-0.96734,0 -1.78392,-0.10161 -2.44975,-0.31753c-0.66583,-0.21592 -1.19347,-0.54615 -1.55779,-0.97798c-0.37688,-0.43184 -0.6407,-0.95258 -0.79146,-1.57494c-0.16332,-0.60965 -0.23869,-1.53683 -0.23869,-2.76884v-3.70872c0,-1.34632 0.13819,-2.40051 0.42714,-3.14987c0.28894,-0.76207 0.80402,-1.35902 1.55779,-1.81626c0.75377,-0.45724 1.70854,-0.68586 2.86432,-0.68586c0.9799,0 1.82161,0.15241 2.52513,0.44454c0.70352,0.29213 1.24372,0.67316 1.6206,1.1558c0.37688,0.46994 0.6407,0.96528 0.77889,1.46063c0.13819,0.50804 0.21357,1.27011 0.21357,2.2989z" transform="translate(86.00000999999997, 11) rotate(0)" vector-effect="non-scaling-stroke"/></g><g><defs><path id="path-1694643809139122" d="M92.48033211359707 6.738021069696845 C92.48033211359707 6.738021069696845 92.41039488235414 8.06043641982426 92.41039488235414 8.06043641982426 C92.7018000125331 7.531470279773296 93.06314237395502 7.141042890688058 93.48276576141276 6.876559820662568 C93.91404535407763 6.612076750637089 94.40360597277831 6.486132431577336 94.95144761751475 6.486132431577336 C95.65081992994429 6.486132431577336 96.21031777988789 6.662454478260993 96.65325357775993 7.015098571628301 C97.09618937563192 7.367742664995615 97.37593830060375 7.808547781704754 97.50415655788248 8.350108353661696 C97.63237481516123 8.891668925618637 97.69065584119701 9.785873590942893 97.69065584119701 11.032722349634454 C97.69065584119701 11.032722349634454 97.69065584119701 21.09567344250882 97.69065584119701 21.09567344250882 C97.69065584119701 21.09567344250882 93.645952634313 21.09567344250882 93.645952634313 21.09567344250882 C93.645952634313 21.09567344250882 93.645952634313 11.15866666869422 93.645952634313 11.15866666869422 C93.645952634313 10.16370654812216 93.6109840186915 9.571768248541316 93.55270299265571 9.345068474233765 C93.49442196661991 9.130963131832175 93.3312350937196 9.017613244678397 93.05148616874787 9.017613244678397 C92.76008103856891 9.017613244678397 92.58523796046148 9.143557563738145 92.51530072921857 9.395446201857656 C92.44536349797563 9.647334839977168 92.41039488235414 10.302245299087886 92.41039488235414 11.385366443001772 C92.41039488235414 11.385366443001772 92.41039488235414 21.08307901060284 92.41039488235414 21.08307901060284 C92.41039488235414 21.08307901060284 88.36569167547002 21.08307901060284 88.36569167547002 21.08307901060284 C88.36569167547002 21.08307901060284 88.36569167547002 6.738021069696845 88.36569167547002 6.738021069696845 C88.36569167547002 6.738021069696845 92.48033211359707 6.738021069696845 92.48033211359707 6.738021069696845 Z" vector-effect="non-scaling-stroke"/></defs> <path style="stroke-width: 0; stroke-linecap: butt; stroke-linejoin: miter; fill: rgb(29, 29, 27);" d="M102.11464043812703 11.161265765264886 C102.11464043812703 11.161265765264886 102.0447032068841 12.4836811153923 102.0447032068841 12.4836811153923 C102.33610833706308 11.954714975341346 102.697450698485 11.564287586256114 103.1170740859427 11.299804516230608 C103.54835367860761 11.035321446205103 104.03791429730825 10.909377127145376 104.58575594204467 10.909377127145376 C105.28512825447422 10.909377127145376 105.8446261044179 11.085699173829028 106.2875619022899 11.43834326719633 C106.73049770016189 11.790987360563634 107.01024662513373 12.23179247727279 107.13846488241245 12.77335304922974 C107.26668313969117 13.31491362118669 107.32496416572701 14.209118286510943 107.32496416572701 15.455967045202499 C107.32496416572701 15.455967045202499 107.32496416572701 25.518918138076856 107.32496416572701 25.518918138076856 C107.32496416572701 25.518918138076856 103.28026095884297 25.518918138076856 103.28026095884297 25.518918138076856 C103.28026095884297 25.518918138076856 103.28026095884297 15.581911364262226 103.28026095884297 15.581911364262226 C103.28026095884297 14.58695124369018 103.24529234322148 13.995012944109362 103.18701131718569 13.768313169801786 C103.12873029114985 13.554207827400205 102.96554341824958 13.440857940246417 102.68579449327785 13.440857940246417 C102.39438936309887 13.440857940246417 102.21954628499145 13.5668022593062 102.14960905374852 13.81869089742571 C102.07967182250559 14.070579535545221 102.0447032068841 14.725489994655902 102.0447032068841 15.808611138569802 C102.0447032068841 15.808611138569802 102.0447032068841 25.50632370617086 102.0447032068841 25.50632370617086 C102.0447032068841 25.50632370617086 98 25.50632370617086 98 25.50632370617086 C98 25.50632370617086 98 11.161265765264886 98 11.161265765264886 C98 11.161265765264886 102.11464043812703 11.161265765264886 102.11464043812703 11.161265765264886 Z" vector-effect="non-scaling-stroke"/></g><g><defs><path id="path-1694643809139120" d="M0,0h7.2718v3.59741h-2.90631v3.41625h2.72542v3.42919h-2.72542v3.95974h3.19573v3.59741h-7.56122zM13,0v17.98706h-4.30519v-17.98706z" vector-effect="non-scaling-stroke"/></defs><path style="stroke-width: 0; stroke-linecap: butt; stroke-linejoin: miter; fill: rgb(255, 236, 0);" d="M0,0h7.2718v3.59741h-2.90631v3.41625h2.72542v3.42919h-2.72542v3.95974h3.19573v3.59741h-7.56122zM13,0v17.98706h-4.30519v-17.98706z" transform="translate(15, 8) rotate(0)" vector-effect="non-scaling-stroke"/></g><g><defs><path id="path-1694643809139118" d="M0,0h4.28741c1.35392,0 2.3753,0.11638 3.07601,0.34914c0.70071,0.23276 1.25891,0.69828 1.68646,1.39655c0.42755,0.69828 0.64133,1.82328 0.64133,3.38793c0,1.04741 -0.15439,1.78448 -0.45131,2.19828c-0.30879,0.41379 -0.90261,0.73707 -1.79335,0.9569c0.99762,0.24569 1.66271,0.64655 2.019,1.21552c0.35629,0.56897 0.53444,1.43534 0.53444,2.59914v1.6681c0,1.21552 -0.13064,2.10776 -0.38005,2.70259c-0.24941,0.5819 -0.66508,0.98276 -1.22328,1.20259c-0.55819,0.21983 -1.69834,0.32328 -3.42043,0.32328h-4.96437v-18v0zM4.29929,3.07759v3.99569c0.17815,0 0.32067,0 0.42755,0c0.41568,0 0.68884,-0.11638 0.8076,-0.33621c0.11876,-0.23276 0.17815,-0.86638 0.17815,-1.93966c0,-0.56897 -0.04751,-0.9569 -0.14252,-1.17672c-0.09501,-0.23276 -0.21378,-0.375 -0.36817,-0.42672c-0.15439,-0.06466 -0.45131,-0.09052 -0.89074,-0.10345v0zM4.29929,9.87931v5.03017c0.6057,-0.01293 0.98575,-0.12931 1.15202,-0.31034c0.16627,-0.18103 0.24941,-0.64655 0.24941,-1.37069v-1.68103c0,-0.77586 -0.07126,-1.24138 -0.22565,-1.39655c-0.15439,-0.1681 -0.54632,-0.25862 -1.17577,-0.28448z" vector-effect="non-scaling-stroke"/></defs><path style="stroke-width: 0; stroke-linecap: butt; stroke-linejoin: miter; fill: rgb(255, 236, 0);" d="M0,0h4.28741c1.35392,0 2.3753,0.11638 3.07601,0.34914c0.70071,0.23276 1.25891,0.69828 1.68646,1.39655c0.42755,0.69828 0.64133,1.82328 0.64133,3.38793c0,1.04741 -0.15439,1.78448 -0.45131,2.19828c-0.30879,0.41379 -0.90261,0.73707 -1.79335,0.9569c0.99762,0.24569 1.66271,0.64655 2.019,1.21552c0.35629,0.56897 0.53444,1.43534 0.53444,2.59914v1.6681c0,1.21552 -0.13064,2.10776 -0.38005,2.70259c-0.24941,0.5819 -0.66508,0.98276 -1.22328,1.20259c-0.55819,0.21983 -1.69834,0.32328 -3.42043,0.32328h-4.96437v-18v0zM4.29929,3.07759v3.99569c0.17815,0 0.32067,0 0.42755,0c0.41568,0 0.68884,-0.11638 0.8076,-0.33621c0.11876,-0.23276 0.17815,-0.86638 0.17815,-1.93966c0,-0.56897 -0.04751,-0.9569 -0.14252,-1.17672c-0.09501,-0.23276 -0.21378,-0.375 -0.36817,-0.42672c-0.15439,-0.06466 -0.45131,-0.09052 -0.89074,-0.10345v0zM4.29929,9.87931v5.03017c0.6057,-0.01293 0.98575,-0.12931 1.15202,-0.31034c0.16627,-0.18103 0.24941,-0.64655 0.24941,-1.37069v-1.68103c0,-0.77586 -0.07126,-1.24138 -0.22565,-1.39655c-0.15439,-0.1681 -0.54632,-0.25862 -1.17577,-0.28448z" transform="translate(33, 8) rotate(0)" vector-effect="non-scaling-stroke"/></g><g><defs><path id="path-1694643809138116" d="M7.99997,5.34716v3.54361c0,1.29551 -0.05025,2.2608 -0.1608,2.85775c-0.1005,0.60965 -0.32161,1.1685 -0.66332,1.70195c-0.34171,0.52075 -0.77387,0.91448 -1.30653,1.1685c-0.53266,0.25402 -1.14573,0.38103 -1.8392,0.38103c-0.77387,0 -1.42714,-0.10161 -1.9598,-0.31753c-0.53266,-0.21592 -0.95477,-0.54615 -1.24623,-0.97798c-0.30151,-0.43184 -0.51256,-0.95258 -0.63317,-1.57494c-0.13065,-0.60965 -0.19095,-1.53683 -0.19095,-2.76884v-3.70872c0,-1.34632 0.11055,-2.40051 0.34171,-3.14987c0.23116,-0.76207 0.64322,-1.35902 1.24623,-1.81626c0.60302,-0.45724 1.36683,-0.68586 2.29146,-0.68586c0.78392,0 1.45729,0.15241 2.0201,0.44454c0.56281,0.29213 0.99497,0.67316 1.29648,1.1558c0.30151,0.46994 0.51256,0.96528 0.62312,1.46063c0.11055,0.50804 0.17085,1.27011 0.17085,2.2989v0zM4.51253,4.25487c0,-0.74936 -0.03015,-1.2066 -0.09045,-1.40982c-0.0603,-0.19052 -0.20101,-0.29213 -0.40201,-0.29213c-0.20101,0 -0.34171,0.10161 -0.41206,0.29213c-0.07035,0.19052 -0.11055,0.66046 -0.11055,1.40982v6.52837c0,0.68586 0.0402,1.1304 0.11055,1.33362c0.07035,0.20322 0.20101,0.31753 0.40201,0.31753c0.20101,0 0.34171,-0.10161 0.41206,-0.27942c0.07035,-0.19052 0.1005,-0.59695 0.1005,-1.21931v-6.68078z" vector-effect="non-scaling-stroke"/></defs><path style="stroke-width: 0; stroke-linecap: butt; stroke-linejoin: miter; fill: rgb(255, 236, 0);" d="M7.99997,5.34716v3.54361c0,1.29551 -0.05025,2.2608 -0.1608,2.85775c-0.1005,0.60965 -0.32161,1.1685 -0.66332,1.70195c-0.34171,0.52075 -0.77387,0.91448 -1.30653,1.1685c-0.53266,0.25402 -1.14573,0.38103 -1.8392,0.38103c-0.77387,0 -1.42714,-0.10161 -1.9598,-0.31753c-0.53266,-0.21592 -0.95477,-0.54615 -1.24623,-0.97798c-0.30151,-0.43184 -0.51256,-0.95258 -0.63317,-1.57494c-0.13065,-0.60965 -0.19095,-1.53683 -0.19095,-2.76884v-3.70872c0,-1.34632 0.11055,-2.40051 0.34171,-3.14987c0.23116,-0.76207 0.64322,-1.35902 1.24623,-1.81626c0.60302,-0.45724 1.36683,-0.68586 2.29146,-0.68586c0.78392,0 1.45729,0.15241 2.0201,0.44454c0.56281,0.29213 0.99497,0.67316 1.29648,1.1558c0.30151,0.46994 0.51256,0.96528 0.62312,1.46063c0.11055,0.50804 0.17085,1.27011 0.17085,2.2989v0zM4.51253,4.25487c0,-0.74936 -0.03015,-1.2066 -0.09045,-1.40982c-0.0603,-0.19052 -0.20101,-0.29213 -0.40201,-0.29213c-0.20101,0 -0.34171,0.10161 -0.41206,0.29213c-0.07035,0.19052 -0.11055,0.66046 -0.11055,1.40982v6.52837c0,0.68586 0.0402,1.1304 0.11055,1.33362c0.07035,0.20322 0.20101,0.31753 0.40201,0.31753c0.20101,0 0.34171,-0.10161 0.41206,-0.27942c0.07035,-0.19052 0.1005,-0.59695 0.1005,-1.21931v-6.68078z" transform="translate(45.00003065326632, 11) rotate(0)" vector-effect="non-scaling-stroke"/></g><g><defs><path id="path-1694643809138114" d="M8,0v17.7321h-3.47v-1.04607c-0.33,0.43373 -0.68,0.76541 -1.05,0.98228c-0.37,0.21687 -0.75,0.33168 -1.15,0.33168c-0.54,0 -1.01,-0.1786 -1.4,-0.54855c-0.4,-0.35719 -0.65,-0.77817 -0.76,-1.25018c-0.11,-0.47201 -0.17,-1.25018 -0.17,-2.32176v-6.79943c0,-1.10985 0.06,-1.91354 0.17,-2.37279c0.11,-0.47201 0.37,-0.88023 0.77,-1.23742c0.4,-0.35719 0.88,-0.53579 1.43,-0.53579c0.43,0 0.82,0.10206 1.18,0.29341c0.36,0.19135 0.68,0.49752 0.98,0.88023v-4.10773zM4.53,6.86322c0,-0.53579 -0.04,-0.89298 -0.11,-1.07158c-0.07,-0.1786 -0.21,-0.28065 -0.43,-0.28065c-0.22,0 -0.35,0.07654 -0.42,0.24238c-0.07,0.16584 -0.11,0.53579 -0.11,1.09709v7.11836c0,0.58682 0.04,0.98228 0.11,1.16088c0.07,0.19135 0.2,0.28065 0.39,0.28065c0.22,0 0.37,-0.10206 0.45,-0.31892c0.07,-0.20411 0.11,-0.71439 0.11,-1.53083v-6.69738z" vector-effect="non-scaling-stroke"/></defs><path style="stroke-width: 0; stroke-linecap: butt; stroke-linejoin: miter; fill: rgb(255, 236, 0);" d="M8,0v17.7321h-3.47v-1.04607c-0.33,0.43373 -0.68,0.76541 -1.05,0.98228c-0.37,0.21687 -0.75,0.33168 -1.15,0.33168c-0.54,0 -1.01,-0.1786 -1.4,-0.54855c-0.4,-0.35719 -0.65,-0.77817 -0.76,-1.25018c-0.11,-0.47201 -0.17,-1.25018 -0.17,-2.32176v-6.79943c0,-1.10985 0.06,-1.91354 0.17,-2.37279c0.11,-0.47201 0.37,-0.88023 0.77,-1.23742c0.4,-0.35719 0.88,-0.53579 1.43,-0.53579c0.43,0 0.82,0.10206 1.18,0.29341c0.36,0.19135 0.68,0.49752 0.98,0.88023v-4.10773zM4.53,6.86322c0,-0.53579 -0.04,-0.89298 -0.11,-1.07158c-0.07,-0.1786 -0.21,-0.28065 -0.43,-0.28065c-0.22,0 -0.35,0.07654 -0.42,0.24238c-0.07,0.16584 -0.11,0.53579 -0.11,1.09709v7.11836c0,0.58682 0.04,0.98228 0.11,1.16088c0.07,0.19135 0.2,0.28065 0.39,0.28065c0.22,0 0.37,-0.10206 0.45,-0.31892c0.07,-0.20411 0.11,-0.71439 0.11,-1.53083v-6.69738z" transform="translate(55, 8) rotate(0)" vector-effect="non-scaling-stroke"/></g><g><defs><path id="path-1694643809138112" d="M8.99995,7.77307h-5.07663v3.13717c0,0.66046 0.04523,1.07959 0.12437,1.27011c0.09045,0.19052 0.24874,0.27942 0.48618,0.27942c0.29397,0 0.49749,-0.12701 0.59925,-0.38103c0.10176,-0.25402 0.14698,-0.73666 0.14698,-1.46063v-1.90517h3.71985v1.06689c0,0.88908 -0.05653,1.58764 -0.14698,2.05758c-0.10176,0.48264 -0.3392,0.99069 -0.70101,1.53683c-0.37312,0.54615 -0.83668,0.95258 -1.40201,1.21931c-0.56533,0.27942 -1.27764,0.40644 -2.13693,0.40644c-0.8593,0 -1.5603,-0.13971 -2.19347,-0.40644c-0.63317,-0.26672 -1.13065,-0.63506 -1.48116,-1.105c-0.3505,-0.46994 -0.59925,-0.99069 -0.73492,-1.54953c-0.13568,-0.57155 -0.20352,-1.38442 -0.20352,-2.46401v-4.21677c0,-1.27011 0.14698,-2.2608 0.45226,-2.99746c0.30528,-0.72396 0.80276,-1.29551 1.50377,-1.67655c0.6897,-0.39373 1.49246,-0.58425 2.38568,-0.58425c1.09673,0 2.01256,0.22862 2.72487,0.69856c0.71231,0.46994 1.22111,1.09229 1.50377,1.86706c0.29397,0.77477 0.42965,1.86706 0.42965,3.26418v1.91787v0zM5.06528,5.41067v-1.05419c0,-0.74936 -0.03392,-1.23201 -0.10176,-1.44793c-0.06784,-0.21592 -0.21482,-0.33023 -0.44095,-0.33023c-0.27136,0 -0.44095,0.08891 -0.50879,0.27942c-0.06784,0.19052 -0.10176,0.68586 -0.10176,1.49873v1.05419h1.14196z" vector-effect="non-scaling-stroke"/></defs><path style="stroke-width: 0; stroke-linecap: butt; stroke-linejoin: miter; fill: rgb(255, 236, 0);" d="M8.99995,7.77307h-5.07663v3.13717c0,0.66046 0.04523,1.07959 0.12437,1.27011c0.09045,0.19052 0.24874,0.27942 0.48618,0.27942c0.29397,0 0.49749,-0.12701 0.59925,-0.38103c0.10176,-0.25402 0.14698,-0.73666 0.14698,-1.46063v-1.90517h3.71985v1.06689c0,0.88908 -0.05653,1.58764 -0.14698,2.05758c-0.10176,0.48264 -0.3392,0.99069 -0.70101,1.53683c-0.37312,0.54615 -0.83668,0.95258 -1.40201,1.21931c-0.56533,0.27942 -1.27764,0.40644 -2.13693,0.40644c-0.8593,0 -1.5603,-0.13971 -2.19347,-0.40644c-0.63317,-0.26672 -1.13065,-0.63506 -1.48116,-1.105c-0.3505,-0.46994 -0.59925,-0.99069 -0.73492,-1.54953c-0.13568,-0.57155 -0.20352,-1.38442 -0.20352,-2.46401v-4.21677c0,-1.27011 0.14698,-2.2608 0.45226,-2.99746c0.30528,-0.72396 0.80276,-1.29551 1.50377,-1.67655c0.6897,-0.39373 1.49246,-0.58425 2.38568,-0.58425c1.09673,0 2.01256,0.22862 2.72487,0.69856c0.71231,0.46994 1.22111,1.09229 1.50377,1.86706c0.29397,0.77477 0.42965,1.86706 0.42965,3.26418v1.91787v0zM5.06528,5.41067v-1.05419c0,-0.74936 -0.03392,-1.23201 -0.10176,-1.44793c-0.06784,-0.21592 -0.21482,-0.33023 -0.44095,-0.33023c-0.27136,0 -0.44095,0.08891 -0.50879,0.27942c-0.06784,0.19052 -0.10176,0.68586 -0.10176,1.49873v1.05419h1.14196z" transform="translate(65.00004641331657, 11) rotate(0)" vector-effect="non-scaling-stroke"/></g><g><defs><path id="path-1694643809137110" d="M8.98875,0.26289v10.99116c0,1.48969 -0.03375,2.44109 -0.09,2.87923c-0.0675,0.43814 -0.28125,0.88881 -0.6525,1.37703c-0.37125,0.48822 -0.88875,0.85125 -1.56375,1.11414c-0.66375,0.25037 -1.5075,0.37555 -2.52,0.37555c-1.2375,0 -2.23875,-0.23785 -2.9925,-0.70103c-0.75375,-0.4757 -1.13625,-1.38954 -1.17,-2.76657h3.79125c0,0.62592 0.2025,0.93888 0.61875,0.93888c0.2925,0 0.495,-0.10015 0.585,-0.28792c0.10125,-0.18778 0.14625,-0.60088 0.14625,-1.21429v-1.07658c-0.3375,0.338 -0.68625,0.58837 -1.0575,0.76362c-0.37125,0.17526 -0.75375,0.26289 -1.15875,0.26289c-0.6975,0 -1.2825,-0.16274 -1.7325,-0.4757c-0.45,-0.31296 -0.765,-0.72607 -0.93375,-1.23932c-0.16875,-0.51325 -0.2475,-1.23932 -0.2475,-2.19072v-5.19514c0,-1.35199 0.21375,-2.32842 0.6525,-2.92931c0.43875,-0.58837 1.1025,-0.88881 2.0025,-0.88881c0.495,0 0.93375,0.11267 1.33875,0.338c0.405,0.22533 0.765,0.55081 1.08,1.00147l0.28125,-1.07658h3.63375zM5.07375,4.05596c0,-0.65096 -0.03375,-1.06406 -0.10125,-1.25184c-0.0675,-0.17526 -0.21375,-0.27541 -0.45,-0.27541c-0.23625,0 -0.3825,0.10015 -0.48375,0.31296c-0.09,0.20029 -0.14625,0.60088 -0.14625,1.21429v4.79455c0,0.63844 0.03375,1.05155 0.1125,1.23932c0.0675,0.18778 0.21375,0.28792 0.43875,0.28792c0.25875,0 0.4275,-0.11267 0.50625,-0.35052c0.07875,-0.22533 0.1125,-0.7511 0.1125,-1.55228v-4.419z" vector-effect="non-scaling-stroke"/></defs><path style="stroke-width: 0; stroke-linecap: butt; stroke-linejoin: miter; fill: rgb(255, 236, 0);" d="M8.98875,0.26289v10.99116c0,1.48969 -0.03375,2.44109 -0.09,2.87923c-0.0675,0.43814 -0.28125,0.88881 -0.6525,1.37703c-0.37125,0.48822 -0.88875,0.85125 -1.56375,1.11414c-0.66375,0.25037 -1.5075,0.37555 -2.52,0.37555c-1.2375,0 -2.23875,-0.23785 -2.9925,-0.70103c-0.75375,-0.4757 -1.13625,-1.38954 -1.17,-2.76657h3.79125c0,0.62592 0.2025,0.93888 0.61875,0.93888c0.2925,0 0.495,-0.10015 0.585,-0.28792c0.10125,-0.18778 0.14625,-0.60088 0.14625,-1.21429v-1.07658c-0.3375,0.338 -0.68625,0.58837 -1.0575,0.76362c-0.37125,0.17526 -0.75375,0.26289 -1.15875,0.26289c-0.6975,0 -1.2825,-0.16274 -1.7325,-0.4757c-0.45,-0.31296 -0.765,-0.72607 -0.93375,-1.23932c-0.16875,-0.51325 -0.2475,-1.23932 -0.2475,-2.19072v-5.19514c0,-1.35199 0.21375,-2.32842 0.6525,-2.92931c0.43875,-0.58837 1.1025,-0.88881 2.0025,-0.88881c0.495,0 0.93375,0.11267 1.33875,0.338c0.405,0.22533 0.765,0.55081 1.08,1.00147l0.28125,-1.07658h3.63375zM5.07375,4.05596c0,-0.65096 -0.03375,-1.06406 -0.10125,-1.25184c-0.0675,-0.17526 -0.21375,-0.27541 -0.45,-0.27541c-0.23625,0 -0.3825,0.10015 -0.48375,0.31296c-0.09,0.20029 -0.14625,0.60088 -0.14625,1.21429v4.79455c0,0.63844 0.03375,1.05155 0.1125,1.23932c0.0675,0.18778 0.21375,0.28792 0.43875,0.28792c0.25875,0 0.4275,-0.11267 0.50625,-0.35052c0.07875,-0.22533 0.1125,-0.7511 0.1125,-1.55228v-4.419z" transform="translate(76, 11) rotate(0)" vector-effect="non-scaling-stroke"/></g><g><defs><path id="path-1694643809137108" d="M86.58229227877698 3.047856908743406 C86.58229227877698 3.047856908743406 83.283586205151 5.226696764993856 83.283586205151 5.226696764993856 C83.283586205151 5.226696764993856 81.2554064991053 5.226696764993856 81.2554064991053 5.226696764993856 C81.2554064991053 5.226696764993856 83.01549348538633 3.047856908743406 83.01549348538633 3.047856908743406 C83.01549348538633 3.047856908743406 86.58229227877698 3.047856908743406 86.58229227877698 3.047856908743406 Z" vector-effect="non-scaling-stroke"/></defs> <path style="stroke-width: 0; stroke-linecap: butt; stroke-linejoin: miter; fill: rgb(255, 236, 0);" d="M95.13399309911244 8.833373508545549 C95.13399309911244 8.833373508545549 91.83528702548642 11.012213364795969 91.83528702548642 11.012213364795969 C91.83528702548642 11.012213364795969 89.80710731944077 11.012213364795969 89.80710731944077 11.012213364795969 C89.80710731944077 11.012213364795969 91.56719430572178 8.833373508545549 91.56719430572178 8.833373508545549 C91.56719430572178 8.833373508545549 95.13399309911244 8.833373508545549 95.13399309911244 8.833373508545549 Z" vector-effect="non-scaling-stroke"/></g><g><defs><path id="path-1694643809136106" d="M5.6407,4.25487c0,-0.74936 -0.03769,-1.2066 -0.11307,-1.40982c-0.07538,-0.19052 -0.25126,-0.29213 -0.50251,-0.29213c-0.25126,0 -0.42714,0.10161 -0.51508,0.29213c-0.08794,0.19052 -0.13819,0.66046 -0.13819,1.40982v6.52837c0,0.68586 0.05025,1.1304 0.13819,1.33362c0.08794,0.20322 0.25126,0.31753 0.50251,0.31753c0.25126,0 0.42714,-0.10161 0.51508,-0.27942c0.08794,-0.19052 0.12563,-0.59695 0.12563,-1.21931v-6.68078v0zM10,5.34717v3.54361c0,1.29551 -0.06281,2.2608 -0.20101,2.85775c-0.12563,0.60965 -0.40201,1.1685 -0.82915,1.70195c-0.42714,0.52075 -0.96734,0.91448 -1.63317,1.1685c-0.66583,0.25402 -1.43216,0.38103 -2.29899,0.38103c-0.96734,0 -1.78392,-0.10161 -2.44975,-0.31753c-0.66583,-0.21592 -1.19347,-0.54615 -1.55779,-0.97798c-0.37688,-0.43184 -0.6407,-0.95258 -0.79146,-1.57494c-0.16332,-0.60965 -0.23869,-1.53683 -0.23869,-2.76884v-3.70872c0,-1.34632 0.13819,-2.40051 0.42714,-3.14987c0.28894,-0.76207 0.80402,-1.35902 1.55779,-1.81626c0.75377,-0.45724 1.70854,-0.68586 2.86432,-0.68586c0.9799,0 1.82161,0.15241 2.52513,0.44454c0.70352,0.29213 1.24372,0.67316 1.6206,1.1558c0.37688,0.46994 0.6407,0.96528 0.77889,1.46063c0.13819,0.50804 0.21357,1.27011 0.21357,2.2989z" vector-effect="non-scaling-stroke"/></defs><path style="stroke-width: 0; stroke-linecap: butt; stroke-linejoin: miter; fill: rgb(255, 236, 0);" d="M5.6407,4.25487c0,-0.74936 -0.03769,-1.2066 -0.11307,-1.40982c-0.07538,-0.19052 -0.25126,-0.29213 -0.50251,-0.29213c-0.25126,0 -0.42714,0.10161 -0.51508,0.29213c-0.08794,0.19052 -0.13819,0.66046 -0.13819,1.40982v6.52837c0,0.68586 0.05025,1.1304 0.13819,1.33362c0.08794,0.20322 0.25126,0.31753 0.50251,0.31753c0.25126,0 0.42714,-0.10161 0.51508,-0.27942c0.08794,-0.19052 0.12563,-0.59695 0.12563,-1.21931v-6.68078v0zM10,5.34717v3.54361c0,1.29551 -0.06281,2.2608 -0.20101,2.85775c-0.12563,0.60965 -0.40201,1.1685 -0.82915,1.70195c-0.42714,0.52075 -0.96734,0.91448 -1.63317,1.1685c-0.66583,0.25402 -1.43216,0.38103 -2.29899,0.38103c-0.96734,0 -1.78392,-0.10161 -2.44975,-0.31753c-0.66583,-0.21592 -1.19347,-0.54615 -1.55779,-0.97798c-0.37688,-0.43184 -0.6407,-0.95258 -0.79146,-1.57494c-0.16332,-0.60965 -0.23869,-1.53683 -0.23869,-2.76884v-3.70872c0,-1.34632 0.13819,-2.40051 0.42714,-3.14987c0.28894,-0.76207 0.80402,-1.35902 1.55779,-1.81626c0.75377,-0.45724 1.70854,-0.68586 2.86432,-0.68586c0.9799,0 1.82161,0.15241 2.52513,0.44454c0.70352,0.29213 1.24372,0.67316 1.6206,1.1558c0.37688,0.46994 0.6407,0.96528 0.77889,1.46063c0.13819,0.50804 0.21357,1.27011 0.21357,2.2989z" transform="translate(87.00000999999997, 10.999997008892251) rotate(0)" vector-effect="non-scaling-stroke"/></g><g><defs><path id="path-1694643809135104" d="M93.23798545206242 6.183874967739707 C93.23798545206242 6.183874967739707 93.16804822081946 7.506292221533324 93.16804822081946 7.506292221533324 C93.45945335099839 6.977325320015879 93.82079571242033 6.586897368895861 94.240419099878 6.322413918137134 C94.6716986925429 6.05793046737841 95.16125931124363 5.931985967017112 95.70910095598 5.931985967017112 C96.40847326840961 5.931985967017112 96.9679711183532 6.108308267522926 97.41090691622522 6.460952868534563 C97.8538427140972 6.813597469546194 98.13359163906904 7.254403220810735 98.26180989634781 7.795964572364316 C98.3900281536265 8.337525923917896 98.44830917966232 9.231731876483108 98.44830917966232 10.47858243005995 C98.44830917966232 10.47858243005995 98.44830917966232 20.541548008927627 98.44830917966232 20.541548008927627 C98.44830917966232 20.541548008927627 94.40360597277825 20.541548008927627 94.40360597277825 20.541548008927627 C94.40360597277825 20.541548008927627 94.40360597277825 10.604526930421253 94.40360597277825 10.604526930421253 C94.40360597277825 9.609565377567003 94.36863735715677 9.01762622586891 94.310356331121 8.79092612521857 C94.25207530508524 8.576820474604363 94.08888843218496 8.463470424279198 93.80913950721319 8.463470424279198 C93.51773437703427 8.463470424279198 93.34289129892679 8.58941492464049 93.27295406768387 8.841303925363086 C93.20301683644091 9.093192926085681 93.16804822081946 9.748104327964425 93.16804822081946 10.831227031071583 C93.16804822081946 10.831227031071583 93.16804822081946 20.528953558891498 93.16804822081946 20.528953558891498 C93.16804822081946 20.528953558891498 89.12334501393539 20.528953558891498 89.12334501393539 20.528953558891498 C89.12334501393539 20.528953558891498 89.12334501393539 6.183874967739707 89.12334501393539 6.183874967739707 C89.12334501393539 6.183874967739707 93.23798545206242 6.183874967739707 93.23798545206242 6.183874967739707 Z" vector-effect="non-scaling-stroke"/></defs> <path style="stroke-width: 0; stroke-linecap: butt; stroke-linejoin: miter; fill: rgb(255, 236, 0);" d="M103.11464043812703 11.161274089584197 C103.11464043812703 11.161274089584197 103.0447032068841 12.483691343377814 103.0447032068841 12.483691343377814 C103.33610833706302 11.954724441860378 103.697450698485 11.564296490740333 104.11707408594259 11.299813039981643 C104.54835367860755 11.035329589222897 105.03791429730825 10.909385088861598 105.58575594204467 10.909385088861598 C106.28512825447422 10.909385088861598 106.84462610441778 11.085707389367428 107.2875619022899 11.438351990379033 C107.73049770016178 11.790996591390694 108.01024662513373 12.231802342655214 108.13846488241245 12.773363694208797 C108.26668313969117 13.31492504576238 108.3249641657269 14.209130998327566 108.3249641657269 15.455981551904415 C108.3249641657269 15.455981551904415 108.3249641657269 25.51894713077212 108.3249641657269 25.51894713077212 C108.3249641657269 25.51894713077212 104.28026095884286 25.51894713077212 104.28026095884286 25.51894713077212 C104.28026095884286 25.51894713077212 104.28026095884286 15.581926052265715 104.28026095884286 15.581926052265715 C104.28026095884286 14.586964499411465 104.24529234322142 13.995025347713408 104.18701131718558 13.768325247063046 C104.12873029114985 13.554219596448831 103.96554341824958 13.440869546123679 103.68579449327785 13.440869546123679 C103.39438936309892 13.440869546123679 103.21954628499145 13.566814046484978 103.14960905374852 13.818703047207578 C103.07967182250553 14.070592047930177 103.0447032068841 14.725503449808912 103.0447032068841 15.808626152916077 C103.0447032068841 15.808626152916077 103.0447032068841 25.506352680735972 103.0447032068841 25.506352680735972 C103.0447032068841 25.506352680735972 99 25.506352680735972 99 25.506352680735972 C99 25.506352680735972 99 11.161274089584197 99 11.161274089584197 C99 11.161274089584197 103.11464043812703 11.161274089584197 103.11464043812703 11.161274089584197 Z" vector-effect="non-scaling-stroke"/></g><g><defs><path id="path-1694643809223327" d="M1.95349,0c0.60465,0 1.08527,0.20155 1.47287,0.58915c0.3876,0.4031 0.57364,0.86822 0.57364,1.41085c0,0.54264 -0.20155,1.02326 -0.58915,1.41085c-0.3876,0.3876 -0.86822,0.58915 -1.41085,0.58915c-0.54264,0 -1.02326,-0.20155 -1.41085,-0.58915c-0.3876,-0.3876 -0.58915,-0.86822 -0.58915,-1.41085c0,-0.3876 0.10853,-0.74419 0.31008,-1.06977c0.20155,-0.32558 0.46512,-0.55814 0.77519,-0.71318c0.31008,-0.15504 0.60465,-0.21705 0.86822,-0.21705zM2.06202,0.3876c-0.49612,0 -0.88372,0.15504 -1.1938,0.48062c-0.31008,0.32558 -0.44961,0.69767 -0.44961,1.13178c0,0.43411 0.15504,0.82171 0.48062,1.13178c0.31008,0.31008 0.69767,0.46512 1.13178,0.46512c0.43411,0 0.82171,-0.15504 1.13178,-0.46512c0.31008,-0.31008 0.48062,-0.69767 0.48062,-1.13178c0,-0.31008 -0.07752,-0.58915 -0.23256,-0.83721c-0.15504,-0.26357 -0.35659,-0.44961 -0.60465,-0.57364c-0.24806,-0.12403 -0.48062,-0.18605 -0.71318,-0.18605v0zM1.13178,3.06977h0.43411v-0.86822h0.10853c0.12403,0 0.23256,0.03101 0.31008,0.10853c0.07752,0.07752 0.17054,0.21705 0.27907,0.4186l0.17054,0.34109h0.52713l-0.24806,-0.43411c-0.10853,-0.18605 -0.18605,-0.31008 -0.24806,-0.37209c-0.04651,-0.06202 -0.12403,-0.10853 -0.20155,-0.13953c0.18605,-0.03101 0.34109,-0.10853 0.43411,-0.20155c0.09302,-0.09302 0.13953,-0.23256 0.13953,-0.3876c0,-0.15504 -0.06202,-0.31008 -0.17054,-0.43411c-0.10853,-0.10853 -0.29457,-0.17054 -0.54264,-0.17054h-1.00775v2.12403v0zM1.56589,1.86047h0.35659c0.17054,0 0.29457,-0.0155 0.37209,-0.06202c0.07752,-0.04651 0.10853,-0.12403 0.10853,-0.23256c0,-0.09302 -0.03101,-0.17054 -0.10853,-0.21705c-0.07752,-0.04651 -0.18605,-0.07752 -0.32558,-0.07752h-0.3876v0.57364z" vector-effect="non-scaling-stroke"/></defs><path style="stroke-width: 0; stroke-linecap: butt; stroke-linejoin: miter; fill: rgb(255, 236, 0);" d="M1.95349,0c0.60465,0 1.08527,0.20155 1.47287,0.58915c0.3876,0.4031 0.57364,0.86822 0.57364,1.41085c0,0.54264 -0.20155,1.02326 -0.58915,1.41085c-0.3876,0.3876 -0.86822,0.58915 -1.41085,0.58915c-0.54264,0 -1.02326,-0.20155 -1.41085,-0.58915c-0.3876,-0.3876 -0.58915,-0.86822 -0.58915,-1.41085c0,-0.3876 0.10853,-0.74419 0.31008,-1.06977c0.20155,-0.32558 0.46512,-0.55814 0.77519,-0.71318c0.31008,-0.15504 0.60465,-0.21705 0.86822,-0.21705zM2.06202,0.3876c-0.49612,0 -0.88372,0.15504 -1.1938,0.48062c-0.31008,0.32558 -0.44961,0.69767 -0.44961,1.13178c0,0.43411 0.15504,0.82171 0.48062,1.13178c0.31008,0.31008 0.69767,0.46512 1.13178,0.46512c0.43411,0 0.82171,-0.15504 1.13178,-0.46512c0.31008,-0.31008 0.48062,-0.69767 0.48062,-1.13178c0,-0.31008 -0.07752,-0.58915 -0.23256,-0.83721c-0.15504,-0.26357 -0.35659,-0.44961 -0.60465,-0.57364c-0.24806,-0.12403 -0.48062,-0.18605 -0.71318,-0.18605v0zM1.13178,3.06977h0.43411v-0.86822h0.10853c0.12403,0 0.23256,0.03101 0.31008,0.10853c0.07752,0.07752 0.17054,0.21705 0.27907,0.4186l0.17054,0.34109h0.52713l-0.24806,-0.43411c-0.10853,-0.18605 -0.18605,-0.31008 -0.24806,-0.37209c-0.04651,-0.06202 -0.12403,-0.10853 -0.20155,-0.13953c0.18605,-0.03101 0.34109,-0.10853 0.43411,-0.20155c0.09302,-0.09302 0.13953,-0.23256 0.13953,-0.3876c0,-0.15504 -0.06202,-0.31008 -0.17054,-0.43411c-0.10853,-0.10853 -0.29457,-0.17054 -0.54264,-0.17054h-1.00775v2.12403v0zM1.56589,1.86047h0.35659c0.17054,0 0.29457,-0.0155 0.37209,-0.06202c0.07752,-0.04651 0.10853,-0.12403 0.10853,-0.23256c0,-0.09302 -0.03101,-0.17054 -0.10853,-0.21705c-0.07752,-0.04651 -0.18605,-0.07752 -0.32558,-0.07752h-0.3876v0.57364z" transform="translate(109, 9) rotate(0)" vector-effect="non-scaling-stroke"/></g></svg>