<svg version="1.2" xmlns="http://www.w3.org/2000/svg" xmlns:xlink="http://www.w3.org/1999/xlink" overflow="visible" preserveAspectRatio="none" viewBox="0 0 140.00001 18" width="140.00001" height="18"><g transform="translate(0, 0)"><g transform="translate(0.000009999999999621423, 0) rotate(0)"><path style="stroke-width: 0; stroke-linecap: butt; stroke-linejoin: miter; fill: rgb(0, 98, 58);" d="M140,16.24922c0,0.55547 -0.14862,0.97031 -0.43292,1.28672c-0.29077,0.30937 -0.68492,0.46406 -1.16954,0.46406c-0.48462,0 -0.88523,-0.15469 -1.18246,-0.46406c-0.28431,-0.30234 -0.43292,-0.73125 -0.43292,-1.27266h-0.01292c0,-0.34453 0.05169,-0.63281 0.14862,-0.87187c0.07754,-0.17578 0.17446,-0.33047 0.31015,-0.46406c0.13569,-0.14062 0.27138,-0.23906 0.43292,-0.30234c0.21323,-0.09141 0.45231,-0.14062 0.72369,-0.14062c0.48462,0 0.88523,0.15469 1.18246,0.46406c0.29723,0.31641 0.43292,0.74531 0.43292,1.30078zM139.31508,16.23516c0,-0.38672 -0.084,-0.68203 -0.24554,-0.87187c-0.16154,-0.18281 -0.38769,-0.28828 -0.672,-0.28828c-0.28431,0 -0.49754,0.10547 -0.672,0.28828c-0.17446,0.18984 -0.24554,0.49219 -0.24554,0.87187c0,0.37969 0.084,0.66797 0.25846,0.87187c0.17446,0.19687 0.40062,0.30234 0.65908,0.30234c0.25846,0 0.48462,-0.10547 0.65908,-0.28828c0.17446,-0.20391 0.25846,-0.49922 0.25846,-0.88594zM127.14299,17.87019v-3.83654h0.719v3.17307h1.81081v0.66346zM118.82124,17.8774v-3.84375h0.72565v3.84375zM107.65013,17.87019v-3.17307h-1.05853v-0.64904h2.83606v0.64904h-1.05187v3.17307zM96.44573,16.60096l0.68571,-0.07212c0.03994,0.24519 0.11983,0.42548 0.25298,0.54087c0.13315,0.10818 0.30624,0.16587 0.51262,0.16587c0.22635,0 0.39279,-0.05769 0.51262,-0.15144c0.11983,-0.09375 0.17309,-0.22356 0.17309,-0.36057c0,-0.07932 -0.02663,-0.16587 -0.07989,-0.22356c-0.05325,-0.05769 -0.13315,-0.10818 -0.25298,-0.16587c-0.07989,-0.02885 -0.27961,-0.07932 -0.56588,-0.16587c-0.37948,-0.09375 -0.64577,-0.22356 -0.79223,-0.375c-0.21304,-0.20913 -0.31956,-0.45432 -0.31956,-0.74279c0,-0.19471 0.05325,-0.375 0.14646,-0.52644c0.10652,-0.16587 0.25298,-0.28846 0.43273,-0.375c0.17975,-0.08654 0.41942,-0.1226 0.68571,-0.1226c0.43273,0 0.76561,0.09375 0.9853,0.30288c0.21969,0.20913 0.33953,0.48318 0.35284,0.82932l-0.71234,0.02885c-0.02663,-0.19471 -0.09321,-0.33173 -0.19973,-0.41106c-0.10652,-0.07932 -0.25298,-0.1226 -0.44605,-0.1226c-0.19306,0 -0.36615,0.04327 -0.47267,0.13702c-0.07989,0.05769 -0.11983,0.13702 -0.11983,0.23798c0,0.07932 0.03994,0.16587 0.10652,0.22356c0.09321,0.07932 0.30624,0.16587 0.64577,0.24519c0.33953,0.07932 0.59251,0.18029 0.76561,0.25962c0.17309,0.09375 0.29292,0.22356 0.37948,0.375c0.09321,0.16587 0.14646,0.36057 0.14646,0.59135c0,0.20913 -0.05325,0.41106 -0.17309,0.59135c-0.10652,0.18029 -0.26629,0.31731 -0.47267,0.41106c-0.20638,0.09375 -0.45936,0.13702 -0.76561,0.13702c-0.44605,0 -0.79223,-0.10818 -1.02524,-0.31731c-0.23967,-0.22356 -0.37948,-0.52644 -0.41942,-0.9375l0.02663,-0.01443zM86.47961,17.87019v-3.83654h2.62302v0.64904h-1.91068v0.84375h1.78418v0.64904h-1.78418v1.04568h1.97725v0.64904zM72.68547,17.85577v0.01443h-0.01331zM73.39782,16.11058c0,0.33173 0,0.54087 0.02663,0.63462c0.02663,0.15144 0.10652,0.27404 0.22635,0.375c0.11983,0.10096 0.27961,0.13702 0.47267,0.13702c0.19306,0 0.35284,-0.04327 0.45936,-0.13702c0.10652,-0.07932 0.15977,-0.19471 0.1864,-0.33173c0.02663,-0.1226 0.02663,-0.34615 0.02663,-0.63462v-2.08413h0.72565v1.97596c0,0.45432 -0.01331,0.77163 -0.05325,0.95193c-0.03994,0.19471 -0.10652,0.34615 -0.21304,0.46875c-0.10652,0.1226 -0.23967,0.23798 -0.41942,0.30288c-0.17309,0.07932 -0.4061,0.10818 -0.68571,0.10818c-0.33953,0 -0.59251,-0.04327 -0.77892,-0.1226c-0.17309,-0.07932 -0.31956,-0.19471 -0.41942,-0.31731c-0.10652,-0.13702 -0.17309,-0.27404 -0.19973,-0.41106c-0.05325,-0.22356 -0.06658,-0.54087 -0.06658,-0.95193v-2.00481h0.71234zM62.65278,17.87019v-3.1875h-1.05187v-0.64904h2.81608v0.64904h-1.03855v3.1875zM47.78681,17.87019v-3.82212h0.69903l1.46463,2.56731v-2.56731h0.6724v3.82212h-0.72565l-1.45132,-2.50962v2.50962zM39.84616,16.24922c0,0.55547 -0.15346,0.97031 -0.44423,1.28672c-0.29077,0.30937 -0.67846,0.46406 -1.17115,0.46406c-0.49269,0 -0.88038,-0.15469 -1.17115,-0.46406c-0.29077,-0.30234 -0.44423,-0.73125 -0.44423,-1.27266c0,-0.34453 0.04846,-0.63281 0.15346,-0.87187c0.07269,-0.17578 0.17769,-0.33047 0.315,-0.46406c0.12115,-0.14062 0.27462,-0.23906 0.42808,-0.30234c0.20192,-0.09141 0.44423,-0.14062 0.71885,-0.14062c0.49269,0 0.88038,0.15469 1.17115,0.46406c0.29077,0.31641 0.44423,0.74531 0.44423,1.30078zM39.13539,16.23516c0,-0.38672 -0.08077,-0.68203 -0.25038,-0.87187c-0.16154,-0.18281 -0.39577,-0.28828 -0.67038,-0.28828c-0.27462,0 -0.50077,0.10547 -0.66231,0.28828c-0.16962,0.18984 -0.25846,0.48516 -0.25846,0.87187h0.01615c0,0.37969 0.08885,0.66797 0.26654,0.87187c0.17769,0.19687 0.38769,0.30234 0.65423,0.30234c0.26654,0 0.49269,-0.10547 0.65423,-0.28828c0.17769,-0.20391 0.25038,-0.49922 0.25038,-0.88594zM28.08757,16.4351l0.68571,0.22356c-0.10652,0.41106 -0.27961,0.72115 -0.52594,0.90865c-0.23967,0.19471 -0.55257,0.30288 -0.92538,0.30288c-0.45936,0 -0.84549,-0.16587 -1.13176,-0.51202c-0.30624,-0.33173 -0.44605,-0.80048 -0.44605,-1.38462c0,-0.62019 0.14646,-1.10337 0.44605,-1.4351c0.30624,-0.34615 0.68571,-0.51202 1.1717,-0.51202c0.41942,0 0.76561,0.13702 1.03855,0.40385c0.15977,0.16587 0.27961,0.38943 0.35284,0.69231l-0.69903,0.18029c-0.03994,-0.19471 -0.13315,-0.34615 -0.26629,-0.45432c-0.13315,-0.10818 -0.29292,-0.16587 -0.47267,-0.16587c-0.26629,0 -0.45936,0.09375 -0.63246,0.28846c-0.15977,0.19471 -0.23967,0.51202 -0.23967,0.95193c0,0.46875 0.07989,0.80048 0.23967,1.00962c0.15977,0.19471 0.36615,0.30288 0.61913,0.30288c0.1864,0 0.33953,-0.07212 0.48599,-0.19471c0.13315,-0.1226 0.23967,-0.33173 0.29292,-0.59135v-0.01443zM1.4247,17.87019l-1.42468,-3.83654h0.87211l0.99861,2.84135l0.96532,-2.84135h0.85215l-1.41137,3.83654zM14.88751,17.99999h-0.77982l-0.30484,-0.8475h-1.41077l-0.29066,0.8475h-0.75855l1.37532,-3.75h0.75855zM13.35088,16.30077l-0.29723,-1.30078l-0.29292,1.30078zM0.00001,8.98821h1.82092v-6.74116h-1.82092v-2.24705h8.2248v2.24705h-2.23011v6.74116h4.41248v-2.25442h3.7714v4.51621h-14.17859zM38.70673,8.9882v-6.74115h-1.84241v-2.24705h7.3234l3.67161,6.74852l3.6584,-6.74852h7.3234v2.24705h-1.8292v6.74115h1.8292v2.26178h-7.3234v-2.26178h1.8292v-4.48673l-3.35463,6.18123h-4.27914l-3.34803,-6.19596v4.50147h1.8358v2.26178h-7.33661v-2.26178zM34.0286,9v2.25h-7.66328v-2.25h1.33988l-0.31446,-0.5625h-5.83804l-0.31446,0.5625h1.31254v2.25h-7.66328v-2.25h1.35355l6.29605,-9h3.82822l6.28239,9zM25.34693,5.69532l-1.64769,-2.33642l-1.64769,2.33642zM78.69115,9v2.25h-7.65644v-2.25h1.33988l-0.31682,-0.5625h-5.83474l-0.31682,0.5625h1.30028v2.25h-7.65644v-2.25h1.35307l6.30336,-9h3.82822l6.27696,9zM70.56744,5.69532l-1.64435,-2.33642l-1.64435,2.33642zM103.50367,11.25h-7.08929v-2.26179h1.77073v-6.74116h-1.77073v-2.24705h7.08929v2.24705h-1.77712v6.74116h1.77712zM122.64476,2.24705h-1.84854v9.00295h-5.52566l-5.52566,-6.74852v4.48674h1.84189v2.26179h-7.3742v-2.26179h1.84189v-6.74116h-1.84189v-2.24705h7.3742l5.52566,6.18124v-3.93418h-1.84189v-2.24705h7.3742zM95.70545,9v2.25h-4.31029l-2.49543,-4.50703h-3.32488l-0.01417,0.01406v2.24297h1.97792v2.25h-8.13851v-2.25h1.97792v-6.75h-1.97792v-2.25h11.15146c2.11261,0 4.33864,0.68906 4.52297,3.09375c-0.01417,1.53984 -0.97123,2.62969 -2.25439,2.99531l1.88575,2.91094zM90.57157,3.45117c-0.07024,-1.05469 -1.24315,-1.20117 -1.24315,-1.20117h-3.53277v2.33642h3.53277c0.50569,-0.05859 1.20101,-0.43945 1.24315,-1.13525zM139.44637,9v2.25h-6.80572v-2.25h1.191l-0.27727,-0.5625h-5.18621l-0.28358,0.5625h1.15319v2.25h-6.80572v-2.25h1.2036l5.60212,-9h3.40286l5.58321,9zM132.3797,5.69532l-1.4678,-2.33642l-1.46143,2.33642z" vector-effect="non-scaling-stroke"/></g><defs><path id="path-1694643809248370" d="M140,16.24922c0,0.55547 -0.14862,0.97031 -0.43292,1.28672c-0.29077,0.30937 -0.68492,0.46406 -1.16954,0.46406c-0.48462,0 -0.88523,-0.15469 -1.18246,-0.46406c-0.28431,-0.30234 -0.43292,-0.73125 -0.43292,-1.27266h-0.01292c0,-0.34453 0.05169,-0.63281 0.14862,-0.87187c0.07754,-0.17578 0.17446,-0.33047 0.31015,-0.46406c0.13569,-0.14062 0.27138,-0.23906 0.43292,-0.30234c0.21323,-0.09141 0.45231,-0.14062 0.72369,-0.14062c0.48462,0 0.88523,0.15469 1.18246,0.46406c0.29723,0.31641 0.43292,0.74531 0.43292,1.30078zM139.31508,16.23516c0,-0.38672 -0.084,-0.68203 -0.24554,-0.87187c-0.16154,-0.18281 -0.38769,-0.28828 -0.672,-0.28828c-0.28431,0 -0.49754,0.10547 -0.672,0.28828c-0.17446,0.18984 -0.24554,0.49219 -0.24554,0.87187c0,0.37969 0.084,0.66797 0.25846,0.87187c0.17446,0.19687 0.40062,0.30234 0.65908,0.30234c0.25846,0 0.48462,-0.10547 0.65908,-0.28828c0.17446,-0.20391 0.25846,-0.49922 0.25846,-0.88594zM127.14299,17.87019v-3.83654h0.719v3.17307h1.81081v0.66346zM118.82124,17.8774v-3.84375h0.72565v3.84375zM107.65013,17.87019v-3.17307h-1.05853v-0.64904h2.83606v0.64904h-1.05187v3.17307zM96.44573,16.60096l0.68571,-0.07212c0.03994,0.24519 0.11983,0.42548 0.25298,0.54087c0.13315,0.10818 0.30624,0.16587 0.51262,0.16587c0.22635,0 0.39279,-0.05769 0.51262,-0.15144c0.11983,-0.09375 0.17309,-0.22356 0.17309,-0.36057c0,-0.07932 -0.02663,-0.16587 -0.07989,-0.22356c-0.05325,-0.05769 -0.13315,-0.10818 -0.25298,-0.16587c-0.07989,-0.02885 -0.27961,-0.07932 -0.56588,-0.16587c-0.37948,-0.09375 -0.64577,-0.22356 -0.79223,-0.375c-0.21304,-0.20913 -0.31956,-0.45432 -0.31956,-0.74279c0,-0.19471 0.05325,-0.375 0.14646,-0.52644c0.10652,-0.16587 0.25298,-0.28846 0.43273,-0.375c0.17975,-0.08654 0.41942,-0.1226 0.68571,-0.1226c0.43273,0 0.76561,0.09375 0.9853,0.30288c0.21969,0.20913 0.33953,0.48318 0.35284,0.82932l-0.71234,0.02885c-0.02663,-0.19471 -0.09321,-0.33173 -0.19973,-0.41106c-0.10652,-0.07932 -0.25298,-0.1226 -0.44605,-0.1226c-0.19306,0 -0.36615,0.04327 -0.47267,0.13702c-0.07989,0.05769 -0.11983,0.13702 -0.11983,0.23798c0,0.07932 0.03994,0.16587 0.10652,0.22356c0.09321,0.07932 0.30624,0.16587 0.64577,0.24519c0.33953,0.07932 0.59251,0.18029 0.76561,0.25962c0.17309,0.09375 0.29292,0.22356 0.37948,0.375c0.09321,0.16587 0.14646,0.36057 0.14646,0.59135c0,0.20913 -0.05325,0.41106 -0.17309,0.59135c-0.10652,0.18029 -0.26629,0.31731 -0.47267,0.41106c-0.20638,0.09375 -0.45936,0.13702 -0.76561,0.13702c-0.44605,0 -0.79223,-0.10818 -1.02524,-0.31731c-0.23967,-0.22356 -0.37948,-0.52644 -0.41942,-0.9375l0.02663,-0.01443zM86.47961,17.87019v-3.83654h2.62302v0.64904h-1.91068v0.84375h1.78418v0.64904h-1.78418v1.04568h1.97725v0.64904zM72.68547,17.85577v0.01443h-0.01331zM73.39782,16.11058c0,0.33173 0,0.54087 0.02663,0.63462c0.02663,0.15144 0.10652,0.27404 0.22635,0.375c0.11983,0.10096 0.27961,0.13702 0.47267,0.13702c0.19306,0 0.35284,-0.04327 0.45936,-0.13702c0.10652,-0.07932 0.15977,-0.19471 0.1864,-0.33173c0.02663,-0.1226 0.02663,-0.34615 0.02663,-0.63462v-2.08413h0.72565v1.97596c0,0.45432 -0.01331,0.77163 -0.05325,0.95193c-0.03994,0.19471 -0.10652,0.34615 -0.21304,0.46875c-0.10652,0.1226 -0.23967,0.23798 -0.41942,0.30288c-0.17309,0.07932 -0.4061,0.10818 -0.68571,0.10818c-0.33953,0 -0.59251,-0.04327 -0.77892,-0.1226c-0.17309,-0.07932 -0.31956,-0.19471 -0.41942,-0.31731c-0.10652,-0.13702 -0.17309,-0.27404 -0.19973,-0.41106c-0.05325,-0.22356 -0.06658,-0.54087 -0.06658,-0.95193v-2.00481h0.71234zM62.65278,17.87019v-3.1875h-1.05187v-0.64904h2.81608v0.64904h-1.03855v3.1875zM47.78681,17.87019v-3.82212h0.69903l1.46463,2.56731v-2.56731h0.6724v3.82212h-0.72565l-1.45132,-2.50962v2.50962zM39.84616,16.24922c0,0.55547 -0.15346,0.97031 -0.44423,1.28672c-0.29077,0.30937 -0.67846,0.46406 -1.17115,0.46406c-0.49269,0 -0.88038,-0.15469 -1.17115,-0.46406c-0.29077,-0.30234 -0.44423,-0.73125 -0.44423,-1.27266c0,-0.34453 0.04846,-0.63281 0.15346,-0.87187c0.07269,-0.17578 0.17769,-0.33047 0.315,-0.46406c0.12115,-0.14062 0.27462,-0.23906 0.42808,-0.30234c0.20192,-0.09141 0.44423,-0.14062 0.71885,-0.14062c0.49269,0 0.88038,0.15469 1.17115,0.46406c0.29077,0.31641 0.44423,0.74531 0.44423,1.30078zM39.13539,16.23516c0,-0.38672 -0.08077,-0.68203 -0.25038,-0.87187c-0.16154,-0.18281 -0.39577,-0.28828 -0.67038,-0.28828c-0.27462,0 -0.50077,0.10547 -0.66231,0.28828c-0.16962,0.18984 -0.25846,0.48516 -0.25846,0.87187h0.01615c0,0.37969 0.08885,0.66797 0.26654,0.87187c0.17769,0.19687 0.38769,0.30234 0.65423,0.30234c0.26654,0 0.49269,-0.10547 0.65423,-0.28828c0.17769,-0.20391 0.25038,-0.49922 0.25038,-0.88594zM28.08757,16.4351l0.68571,0.22356c-0.10652,0.41106 -0.27961,0.72115 -0.52594,0.90865c-0.23967,0.19471 -0.55257,0.30288 -0.92538,0.30288c-0.45936,0 -0.84549,-0.16587 -1.13176,-0.51202c-0.30624,-0.33173 -0.44605,-0.80048 -0.44605,-1.38462c0,-0.62019 0.14646,-1.10337 0.44605,-1.4351c0.30624,-0.34615 0.68571,-0.51202 1.1717,-0.51202c0.41942,0 0.76561,0.13702 1.03855,0.40385c0.15977,0.16587 0.27961,0.38943 0.35284,0.69231l-0.69903,0.18029c-0.03994,-0.19471 -0.13315,-0.34615 -0.26629,-0.45432c-0.13315,-0.10818 -0.29292,-0.16587 -0.47267,-0.16587c-0.26629,0 -0.45936,0.09375 -0.63246,0.28846c-0.15977,0.19471 -0.23967,0.51202 -0.23967,0.95193c0,0.46875 0.07989,0.80048 0.23967,1.00962c0.15977,0.19471 0.36615,0.30288 0.61913,0.30288c0.1864,0 0.33953,-0.07212 0.48599,-0.19471c0.13315,-0.1226 0.23967,-0.33173 0.29292,-0.59135v-0.01443zM1.4247,17.87019l-1.42468,-3.83654h0.87211l0.99861,2.84135l0.96532,-2.84135h0.85215l-1.41137,3.83654zM14.88751,17.99999h-0.77982l-0.30484,-0.8475h-1.41077l-0.29066,0.8475h-0.75855l1.37532,-3.75h0.75855zM13.35088,16.30077l-0.29723,-1.30078l-0.29292,1.30078zM0.00001,8.98821h1.82092v-6.74116h-1.82092v-2.24705h8.2248v2.24705h-2.23011v6.74116h4.41248v-2.25442h3.7714v4.51621h-14.17859zM38.70673,8.9882v-6.74115h-1.84241v-2.24705h7.3234l3.67161,6.74852l3.6584,-6.74852h7.3234v2.24705h-1.8292v6.74115h1.8292v2.26178h-7.3234v-2.26178h1.8292v-4.48673l-3.35463,6.18123h-4.27914l-3.34803,-6.19596v4.50147h1.8358v2.26178h-7.33661v-2.26178zM34.0286,9v2.25h-7.66328v-2.25h1.33988l-0.31446,-0.5625h-5.83804l-0.31446,0.5625h1.31254v2.25h-7.66328v-2.25h1.35355l6.29605,-9h3.82822l6.28239,9zM25.34693,5.69532l-1.64769,-2.33642l-1.64769,2.33642zM78.69115,9v2.25h-7.65644v-2.25h1.33988l-0.31682,-0.5625h-5.83474l-0.31682,0.5625h1.30028v2.25h-7.65644v-2.25h1.35307l6.30336,-9h3.82822l6.27696,9zM70.56744,5.69532l-1.64435,-2.33642l-1.64435,2.33642zM103.50367,11.25h-7.08929v-2.26179h1.77073v-6.74116h-1.77073v-2.24705h7.08929v2.24705h-1.77712v6.74116h1.77712zM122.64476,2.24705h-1.84854v9.00295h-5.52566l-5.52566,-6.74852v4.48674h1.84189v2.26179h-7.3742v-2.26179h1.84189v-6.74116h-1.84189v-2.24705h7.3742l5.52566,6.18124v-3.93418h-1.84189v-2.24705h7.3742zM95.70545,9v2.25h-4.31029l-2.49543,-4.50703h-3.32488l-0.01417,0.01406v2.24297h1.97792v2.25h-8.13851v-2.25h1.97792v-6.75h-1.97792v-2.25h11.15146c2.11261,0 4.33864,0.68906 4.52297,3.09375c-0.01417,1.53984 -0.97123,2.62969 -2.25439,2.99531l1.88575,2.91094zM90.57157,3.45117c-0.07024,-1.05469 -1.24315,-1.20117 -1.24315,-1.20117h-3.53277v2.33642h3.53277c0.50569,-0.05859 1.20101,-0.43945 1.24315,-1.13525zM139.44637,9v2.25h-6.80572v-2.25h1.191l-0.27727,-0.5625h-5.18621l-0.28358,0.5625h1.15319v2.25h-6.80572v-2.25h1.2036l5.60212,-9h3.40286l5.58321,9zM132.3797,5.69532l-1.4678,-2.33642l-1.46143,2.33642z" vector-effect="non-scaling-stroke"/></defs></g></svg>