<?xml version="1.0" encoding="UTF-8"?>
<svg id="Capa_1" data-name="Capa 1" xmlns="http://www.w3.org/2000/svg" viewBox="0 0 1122 755">
  <defs>
    <style>
      .cls-1 {
        fill: #606b75;
      }

      .cls-1, .cls-2, .cls-3, .cls-4 {
        stroke-width: 0px;
      }

      .cls-2 {
        fill: #394d5c;
      }

      .cls-3 {
        fill: #4a5c6c;
      }

      .cls-4 {
        fill: #32b0cd;
      }
    </style>
  </defs>
  <path class="cls-1" d="m5.85,712.27V42.14c0-5.32.91-10.38,3.9-14.9C17.63,15.31,27.79,7.18,42.93,7.3c1.31.01,2.61,0,3.93,0,342.8,0,685.58,0,1028.35,0,16.81-1.02,28.47,7.07,36.8,20.9,3.59,5.97,3.23,12.76,3.65,19.37v660.51c.8,13.94-5.35,24.48-15.92,33.01-6.94,5.6-15.14,6.48-23.53,6.99-.82.05-1.64,0-2.46,0-342.14,0-684.27-.03-1026.41.1-15.34,0-27.1-5.51-36.06-17.89-3.99-5.52-5.45-10.34-5.45-18.02Z"/>
  <path class="cls-2" d="m560.48,11.72c169.65,0,339.29,0,508.94,0,25.49,0,41.82,16.26,41.82,41.66,0,216.17,0,432.34,0,648.51,0,24.74-16.26,41.28-41.01,41.73-.98.02-1.97,0-2.95,0-337.82,0-675.64,0-1013.46,0-10,0-19.49-1.61-27.82-7.81-10.99-8.17-15.59-19.35-16.16-32.6-.04-.98-.02-1.96-.02-2.94,0-215.03,0-430.05,0-645.08,0-11.27,2.29-21.81,10.13-30.43,7.91-8.69,17.87-13.03,29.63-13.04,48.96-.03,97.92-.01,146.88-.01,121.34,0,242.68,0,364.02,0Z"/>
  <path class="cls-3" d="m641.54,131.42c127.71,0,255.41,0,383.12,0,1.8,0,3.61-.05,5.4.03,8.14.4,13.24,5.22,13.28,13.38.15,27.96.14,55.91.01,83.87-.04,8.25-5.38,13.25-13.7,13.55-1.14.04-2.29.02-3.44.02-256.4,0-512.79,0-769.19,0-1.47,0-2.95.06-4.42-.05-6.9-.5-11.9-5.6-11.91-12.45-.05-28.61-.06-57.22,0-85.83.01-7.16,4.68-11.95,11.83-12.46,1.96-.14,3.93-.06,5.89-.06,127.71,0,255.41,0,383.12,0Z"/>
  <path class="cls-3" d="m844.76,545.46c11.95,0,23.9-.13,35.85.07,4.26.07,5.72-1.41,5.7-5.68-.15-23.54-.08-47.07-.06-70.61,0-8.01,2.14-10.15,10.24-10.09,19.52.12,36.81,6.8,52.48,18.05,5.82,4.18,5.74,4.29,10.84-.8,4.87-4.85,9.75-9.68,14.58-14.57,2.02-2.05,4.24-3.61,7.25-3.61,8.84,0,17.68-.06,26.52.04,3.8.04,6.46,2.13,8.02,5.53,1.29,2.8.05,5.06-1.8,7.12-1.57,1.75-3.65,1.99-5.84,1.99-6.38-.02-12.78.19-19.15-.07-3.95-.16-6.85,1.16-9.48,4.04-3.52,3.86-7.18,7.64-11.12,11.07-3.08,2.68-3.35,4.68-.75,8.04,13.48,17.46,20.19,37.44,19.26,59.39-1.65,38.89-24.79,71.41-61.44,84.97-24.33,9.01-48.44,7.85-71.96-3.14-3.05-1.42-5.05-.99-7.34,1.33-10.68,10.83-21.59,21.44-32.2,32.34-3,3.08-6.15,4.35-10.4,4.22-8.18-.25-16.37-.04-24.55-.09-5.21-.03-8.59-2.54-8.88-6.48-.29-3.95,3.84-7.99,8.77-8.14,6.54-.2,13.1-.2,19.64-.03,3.51.09,6.21-.9,8.72-3.47,8.68-8.9,17.49-17.67,26.38-26.36,2.47-2.41,2.46-3.65-.35-6.04-21.14-17.99-32.57-40.92-33.85-68.68-.37-7.95,2.26-10.33,10.05-10.34,11.62-.02,23.24,0,34.87,0Z"/>
  <path class="cls-4" d="m893.65,368.87c-44.85,0-89.69,0-134.54,0-10.67,0-15.17-4.5-15.18-15.2-.01-16.02-.02-32.03,0-48.05.02-10.01,4.6-14.69,14.73-14.7,89.86-.03,179.71-.03,269.57,0,10.4,0,14.99,4.62,15.02,15.01.06,16.02.05,32.03,0,48.05-.03,10.29-4.75,14.9-15.07,14.9-44.85,0-89.69,0-134.54,0Z"/>
  <path class="cls-3" d="m296.13,368.86c-13.75,0-27.49.04-41.24-.01-9.69-.04-14.21-4.53-14.22-14.05-.02-16.34-.02-32.68,0-49.02,0-10.46,4.65-15.25,15.28-15.34,15.22-.13,30.44-.04,45.66-.04,11.13,0,22.26-.07,33.38.02,11.64.1,16.67,5.25,16.69,16.94.03,15.03.04,30.07,0,45.1-.04,11.9-4.55,16.4-16.27,16.4-13.09,0-26.18,0-39.27,0Z"/>
  <path class="cls-3" d="m630.03,368.86c-13.41,0-26.83.05-40.24-.01-9.57-.04-14.79-4.85-14.92-14.37-.22-16.33-.25-32.67.02-49,.16-9.74,5.3-14.9,15.08-14.97,27.15-.21,54.31-.21,81.46,0,9.9.07,14.34,4.95,14.36,14.65.03,16.66.03,33.32,0,49.99-.02,8.94-4.6,13.65-13.56,13.7-14.07.09-28.14.02-42.21.02Z"/>
  <path class="cls-3" d="m463.18,368.86c-13.59,0-27.18.03-40.77,0-9.85-.02-14.65-4.88-14.67-14.83-.03-15.7-.02-31.4,0-47.09,0-11.25,5.06-16.45,16.5-16.5,24.24-.1,48.47-.04,72.71-.03,3.92,0,7.84-.23,11.71.85,6.11,1.71,9.96,6,10.02,12.34.15,17.66.18,35.32-.01,52.98-.08,7.34-5.52,12.19-13.22,12.25-14.08.1-28.17.03-42.25.03Z"/>
  <path class="cls-3" d="m389.05,562.08c0,34.17,0,68.33,0,102.5,0,9.18-2.17,11.36-11.19,11.39-2.62,0-5.24.04-7.86-.01-6.63-.14-9.87-3.22-10.34-9.84-.1-1.46-.05-2.94-.05-4.41,0-66.7,0-133.4,0-200.1,0-13.58,12.99-20.69,25.07-13.7,3.75,2.16,4.41,5.73,4.4,9.71-.05,25.67-.03,51.33-.03,77,0,9.15,0,18.31,0,27.46Z"/>
  <path class="cls-3" d="m241.65,573.93c0-30.58,0-61.15,0-91.73,0-7.75,3.12-11.03,10.83-11.24,13.46-.35,17.93.01,17.82,16.79-.38,58.7-.15,117.4-.15,176.1,0,10.18-1.91,12.1-11.94,12.12q-16.57.03-16.57-16.69c0-28.45,0-56.9,0-85.35Z"/>
  <path class="cls-3" d="m626.82,579.79c0,27.95,0,55.9,0,83.85,0,9.94-2.44,12.32-12.52,12.33-15.69.01-16.91-1.22-16.91-17.07,0-53.94,0-107.88,0-161.82,0-3.12-.23-6.35,1.54-9.06,4.45-6.83,11.52-3.72,17.57-4.31,4.11-.4,7.33,1.33,9.35,5.02,1.24,2.27.97,4.77.97,7.2.01,27.95,0,55.9,0,83.85Z"/>
  <path class="cls-4" d="m329.58,585.7c0,26.32,0,52.64,0,78.96,0,9.08-2.25,11.31-11.28,11.31-2.95,0-5.89.05-8.84-.01-5.37-.12-8.43-3.08-8.81-8.44-.08-1.14-.03-2.29-.03-3.43,0-51.99,0-103.97,0-155.96,0-9.84,2.31-12.16,12.11-12.18,1.8,0,3.6,0,5.4,0,8.96.04,11.43,2.45,11.44,11.27.01,24.36,0,48.72,0,73.07,0,1.8,0,3.6,0,5.39Z"/>
  <path class="cls-3" d="m507.94,598.48c0,21.74.01,43.48,0,65.22,0,10-2.24,12.26-11.97,12.27-16.42.03-17.47-1.02-17.47-17.5,0-41.03,0-82.06,0-123.09,0-2.12-.01-4.26.25-6.36.62-4.98,3.38-8.05,8.46-8.72,4.23-.56,8.52-.65,12.73-.01,5.51.84,7.97,4.17,7.98,10.51.04,22.56.02,45.12.02,67.67Z"/>
  <path class="cls-4" d="m448.47,613.18c0,17.31.02,34.62,0,51.93-.01,8.4-2.48,10.85-10.75,10.87-3.11,0-6.21.05-9.32-.01-5.69-.11-8.73-3.07-8.85-8.81-.12-5.39-.03-10.78-.03-16.17,0-30.21,0-60.42,0-90.63,0-8.63,2.45-11.1,10.99-11.12,2.78,0,5.56-.03,8.34,0,6.67.08,9.53,2.8,9.59,9.56.11,11.92.04,23.84.04,35.76,0,6.21,0,12.41,0,18.62Z"/>
  <path class="cls-4" d="m685.95,612.71c0,17.14,0,34.29,0,51.43,0,10-1.87,11.83-12.09,11.83-2.45,0-4.91.03-7.36,0-6.4-.09-9.18-2.87-9.2-9.34-.04-20.08-.01-40.16-.01-60.25,0-15.84-.02-31.67,0-47.51.01-6.78,2.72-9.54,9.4-9.62,3.43-.04,6.87-.06,10.3,0,6.12.12,8.91,2.9,8.93,9.09.05,18.12.02,36.25.02,54.37Z"/>
  <path class="cls-4" d="m827.28,512.28c15.23,0,30.45.12,45.68-.08,3.74-.05,4.92,1.12,4.65,4.75-.29,3.9.03,7.85-.1,11.77-.17,5.26-2.68,8.01-7.85,8.03-28.49.09-56.97.09-85.46,0-4.81-.02-7.53-3.05-7.72-7.74-.66-16.32-.29-16.71,15.93-16.71,11.62,0,23.25,0,34.87,0Z"/>
  <path class="cls-3" d="m103.63,164.84c4.91,0,9.82-.14,14.72.04,6.4.23,10.09,3.78,10.21,10.16.19,9.96.21,19.93-.02,29.88-.15,6.44-3.38,9.66-9.84,9.8-10.13.22-20.28.23-30.41-.02-6.2-.15-9.44-3.35-9.59-9.53-.25-10.28-.26-20.58.02-30.86.16-6.13,3.45-9.13,9.72-9.41,5.06-.22,10.14-.05,15.21-.05h0Z"/>
  <path class="cls-3" d="m104.1,471.91c4.9,0,9.8-.09,14.7.03,5.86.14,9.45,3.08,9.64,8.87.35,10.59.32,21.21.04,31.8-.15,5.5-3.62,8.85-9.65,9.07-10.11.37-20.26.41-30.37,0-6.76-.28-9.77-4.03-9.85-10.97-.1-8.97-.14-17.95.01-26.91.15-9.05,3.18-11.87,12.25-11.89,4.41-.01,8.82,0,13.23,0Z"/>
  <path class="cls-3" d="m103.44,318.82c5.24,0,10.48-.07,15.71.01,5.65.09,9.3,3.4,9.4,9.07.19,10.13.23,20.27-.04,30.4-.17,6.37-3.67,9.49-10.04,9.55-9.98.09-19.97.1-29.96,0-5.92-.06-9.52-3-9.72-8.8-.36-10.61-.33-21.25-.06-31.86.14-5.33,3.6-8.22,8.99-8.33,5.24-.11,10.48-.02,15.71-.03Z"/>
  <path class="cls-4" d="m128.14,266.6c0,5.23.09,10.46-.03,15.69-.13,5.82-3.01,8.79-8.8,8.86-10.47.12-20.95.1-31.42,0-5.66-.05-8.96-3.04-9.08-8.73-.23-10.62-.23-21.25,0-31.87.12-5.42,3.29-8.52,8.72-8.63,10.63-.21,21.28-.21,31.91,0,5.86.12,8.56,3.13,8.67,8.99.1,5.23.02,10.46.02,15.69Z"/>
  <path class="cls-4" d="m103.53,395.36c5.24,0,10.47-.07,15.71.02,5.79.1,8.8,2.97,8.87,8.77.12,10.62.13,21.24,0,31.86-.07,5.54-3.02,8.46-8.58,8.52-10.63.12-21.27.11-31.91,0-5.34-.06-8.67-3.1-8.78-8.5-.23-10.78-.24-21.57.03-32.35.13-5.35,3.54-8.21,8.96-8.31,5.23-.09,10.47-.02,15.71-.02Z"/>
  <path class="cls-4" d="m829.88,498.38c-14.41,0-28.82-.17-43.23.1-4.67.09-4.58-1.37-3.01-4.86,2.62-5.83,5.6-11.43,9.08-16.79,1.39-2.14,2.97-3.04,5.59-3.03,25.05.09,50.1.11,75.16-.01,3.25-.02,4.25,1.01,4.13,4.18-.22,5.55-.22,11.12,0,16.67.13,3.14-1.12,3.82-4.01,3.8-14.57-.12-29.15-.06-43.72-.05Z"/>
  <path class="cls-4" d="m567.36,637.1c0,9.46.09,18.93-.03,28.39-.1,7.99-2.72,10.46-10.68,10.48-3.27,0-6.54.07-9.8-.02-5.16-.15-8.37-3.09-8.4-8.17-.1-20.39-.1-40.79,0-61.19.03-5.17,3.14-8.1,8.32-8.26,3.75-.12,7.52-.08,11.27-.02,6.23.1,9.12,2.85,9.24,9.42.19,9.79.05,19.58.05,29.37h.02Z"/>
  <path class="cls-4" d="m808.77,458.76c9.1-8.18,19.38-13.94,30.67-17.93,9.31-3.29,18.97-4.93,28.85-5.18,6.27-.16,9.2,2.49,9.21,8.67,0,4.88,2.05,11.15-.81,14.25-2.93,3.18-9.3.99-14.16,1.03-16.03.13-32.07.07-48.11.02-1.74,0-3.59.5-5.65-.86Z"/>
  <path class="cls-4" d="m996.57,453.73c-3.76,0-7.52.15-11.26-.04-4.94-.25-8.41-3.9-8.37-8.47.04-4.59,3.49-8.29,8.45-8.43,7.51-.21,15.02-.2,22.53-.02,5.12.12,8.4,3.54,8.49,8.27.1,5.02-3.14,8.3-8.56,8.67-.33.02-.65.02-.98.02-3.43,0-6.86,0-10.29,0v-.02Z"/>
  <path class="cls-3" d="m181.49,83.34c0,6.1-6.13,12.34-12.3,12.52-6.63.2-12.93-6.5-12.77-13.56.13-5.89,6.21-11.56,12.44-11.62,6.19-.06,12.64,6.4,12.63,12.66Z"/>
  <path class="cls-3" d="m142.4,83.43c-.05,6.92-5.78,12.53-12.58,12.3-6.82-.23-11.92-5.5-11.95-12.37-.03-6.85,5.22-12.46,11.75-12.55,7.22-.1,12.83,5.43,12.78,12.62Z"/>
  <path class="cls-4" d="m103.57,83.37c-.08,7.06-5.53,12.33-12.58,12.18-6.66-.14-12.12-5.63-12.2-12.26-.08-6.65,5.82-12.54,12.53-12.51,6.9.02,12.34,5.61,12.26,12.6Z"/>
  <path class="cls-4" d="m787.08,654.73c-3.26,0-6.54.2-9.79-.05-4.24-.32-6.63-3.06-6.66-7.09-.03-4.01,2.26-7,6.52-7.17,6.84-.28,13.71-.31,20.56-.03,4.16.17,6.47,2.95,6.71,7.07.22,3.84-2.77,6.95-7.06,7.26-3.41.25-6.85.05-10.28.05,0-.01,0-.02,0-.03Z"/>
</svg>