<svg version="1.2" xmlns="http://www.w3.org/2000/svg" xmlns:xlink="http://www.w3.org/1999/xlink" overflow="visible" preserveAspectRatio="none" viewBox="0 0 129.99997632208496 36.00000160000219" width="129.99997632208496" height="36.00000160000219"><g transform="translate(0, 0)"><g transform="translate(2.7824964554667986e-15, 0) rotate(0)"><path d="M53.99998,21.69596c0,1.54131 -0.20405,4.30403 -8,4.30403c-7.79595,0 -8,-2.73364 -8,-4.28949v-2.42829c0,-1.54131 0.20405,-4.28222 8,-4.28222c7.79595,0 8,2.76272 8,4.30403zM49.09584,19.29676c0,-0.71249 -0.0774,-1.99207 -3.09587,-1.99207c-3.01847,0 -3.09587,1.26504 -3.09587,1.97753v2.42829c0,0.72703 0.0774,1.97753 3.09587,1.97753c3.01847,0 3.09587,-1.28685 3.09587,-1.99207zM57.89041,25.99253h-1.89043v-2.08672h1.89043v-6.81911h-1.89043v-2.08672h8.79886c5.5184,0.04472 8.20114,1.25203 8.20114,4.50136v1.99729c0,3.37602 -3.0094,4.50136 -8.20114,4.50136h-6.90842zM64.79883,23.62261c2.41169,0 3.35691,-0.60366 3.35691,-2.13889v-1.99729c0,-1.62466 -1.19542,-2.13144 -3.35691,-2.13144h-2.11284v6.26762zM76.90305,25.61312h-1.95378v-2.02247h1.95378v-6.60915h-1.95378v-2.02247h15.07717v3.3443h-4.317v-1.04735h-3.8501v2.00803h5.02812v2.15971h-5.02812v1.9069h4.05841v-1.04735h4.30982v3.3443h-13.32451zM92.00177,21.84265v0.00722h-0.00718zM96.18229,21.84988v1.51685c0.92661,0.15169 1.69519,0.16613 2.15491,0.16613c1.64491,0 2.4135,-0.12279 2.4135,-0.7512c0,-0.43339 -0.50999,-0.59952 -0.94816,-0.73676l-3.28983,-0.98957c-2.74392,-0.80899 -4.02968,-1.30738 -4.02968,-3.37319c0,-2.35474 3.03124,-2.86035 7.01063,-2.86035c0.76858,0 3.1318,0.02889 5.39445,0.52006v2.88202h-4.1877v-1.12681c-0.48845,-0.05778 -0.97689,-0.07223 -1.51562,-0.07223c-0.8476,0 -1.74548,0.16613 -1.74548,0.67175c0,0.40449 0.15803,0.58507 1.23548,0.91734l3.51968,1.04735c2.23392,0.64286 3.51968,1.39406 3.51968,3.04093c0,2.77368 -3.54123,3.04093 -7.36978,3.04093c-1.20675,0 -3.8501,-0.13724 -6.34261,-0.55618v-3.33708zM108.47708,23.91327l5.10458,-8.91328h4.86412l5.08397,8.91328h1.47023v2.08672h-7.73587v-2.08672h1.52519l-0.37099,-0.78997h-4.81603l-0.3916,0.78997h1.52519v2.08672h-7.73587v-2.08672zM116.01372,17.80216l-1.32595,3.0332h2.6313zM42.59511,0.48395l0.40489,-0.03612v1.11958l-0.39766,-0.02889c-0.00723,0 -0.05061,0 -0.12291,0c-0.48443,0 -2.20523,0.10112 -4.95273,1.30738c0.36874,0.42616 0.87486,1.04735 1.04116,1.30738c0.73026,1.13403 1.77141,3.77769 1.03393,6.35634c-0.94716,3.31541 -3.91157,5.07063 -5.3504,5.91573c-0.07953,0.05056 -0.15907,0.0939 -0.23137,0.13724c-0.49889,0.29615 -1.05562,0.54896 -1.54005,0.77287c-0.15907,0.07223 -0.3109,0.14446 -0.44828,0.20947c1.17853,1.09791 1.90156,2.57143 2.09678,4.29775c0.18076,1.58186 -0.10845,3.04815 -0.44105,3.89326c-0.99778,2.53531 -2.57397,5.52568 -6.68799,8.50883c-2.01001,1.45907 -3.83927,1.67576 -4.80813,1.67576c-0.96886,0 -1.82926,-0.22392 -2.3643,-0.62119c-0.57842,-0.42616 -0.88932,-0.99679 -0.92547,-1.70465c-0.09399,-1.82022 1.69911,-3.90048 2.33538,-4.48555c3.44161,-3.16372 6.48555,-3.32263 6.61569,-3.32263l0.83871,-0.02889l-0.53504,0.64286l-0.18799,0.23114l-0.11568,0.13724h-0.17353c-0.02892,0 -2.64628,0.03612 -5.84205,3.30096c-0.9327,0.95345 -1.87264,2.47031 -1.84372,3.35875c0.02892,0.80899 0.46997,1.22071 1.31591,1.22071c0.13738,0 0.28921,-0.01445 0.44105,-0.03612c2.49444,-0.3756 4.83705,-2.95425 5.27809,-3.46709c2.20523,-2.54976 5.53838,-6.4069 5.27809,-10.66854c-0.06507,-1.11958 -0.95439,-2.13804 -1.33037,-2.4053c-0.26752,0.07945 -0.66518,0.20947 -1.11346,0.30337c-0.20968,0.05056 -0.64349,0.12279 -1.20745,0.12279c-0.62903,0 -1.04839,-0.08668 -1.61235,-0.26726c-0.66518,-0.20947 -1.06285,-0.67897 -1.06285,-1.25682c-0.00723,-0.53451 0.28198,-0.98234 0.77364,-1.19904c0.39766,-0.17335 0.63626,-0.26726 1.07731,-0.26726c1.30145,0 2.45829,0.78732 3.17409,1.29294c1.23638,-0.79454 4.2514,-4.10273 4.77197,-4.84671c0.88932,-1.26405 1.52559,-2.4053 1.87264,-3.51766c1.01947,-3.2504 -0.33982,-4.51445 -0.94716,-5.16453c-1.75695,0.98234 -3.45607,2.0008 -5.92159,4.90449c-1.42436,1.68299 -2.79088,3.82103 -4.17909,6.5297c-1.46051,2.86758 -3.10901,5.8435 -4.64183,8.38604c-1.25807,2.08026 -6.41324,8.32825 -10.2019,10.79856c-3.2247,2.10915 -4.51168,2.10915 -6.45663,2.10915c-0.65795,0 -1.30145,-0.10112 -1.95217,-0.23114c-1.01947,-0.20225 -2.82703,-1.02568 -3.18132,-2.62199c-0.1663,-0.72231 -0.30367,-2.24639 0.0723,-2.91814c0.15907,-0.2817 0.36874,-0.36838 0.51335,-0.39005c0.44828,-0.05778 3.52837,-0.47673 4.10679,-0.51284c0.07953,-0.00722 -0.18076,0.64286 -0.52058,0.74398c-0.46997,0.14446 -0.80256,0.38283 -1.05562,0.71509c-0.15907,0.20947 -1.19299,1.40851 -0.34705,3.09872c0.26029,0.51284 1.09177,0.99679 2.64628,0.99679c0.12291,0 0.26029,-0.00722 0.39043,-0.01445c1.31591,-0.07223 2.14016,-0.45506 3.37653,-1.07624c1.05562,-0.52729 3.14516,-2.58587 5.20579,-5.12119c0.88209,-1.08347 2.92103,-4.31942 5.7336,-9.10112c1.40267,-2.39085 2.76196,-4.52889 3.43438,-5.50401c0.20968,-0.30337 0.41936,-0.62119 0.64349,-0.96067c1.0267,-1.55297 2.30645,-3.48154 4.51892,-5.64848c2.44383,-2.39085 3.3693,-2.90369 5.85651,-4.28331l0.13014,-0.07223c0.3832,-0.21669 0.70134,-0.34671 1.01224,-0.4695c0.02169,-0.01445 0.04338,-0.02167 0.06507,-0.02889c-0.88209,-0.60674 -2.71858,-1.57464 -6.07342,-1.57464c-0.18076,0 -0.36151,0.00722 -0.54227,0.00722c-2.53782,0.07223 -4.55507,0.51284 -7.70746,1.67576c-3.43438,1.27127 -6.67353,4.00883 -7.73638,4.91172l-0.10845,0.0939c-1.47497,1.24238 -3.04394,3.0626 -4.30924,4.98395c-1.10623,1.68299 -1.66296,2.91814 -1.70634,3.78491c-0.05061,1.08347 0.20968,1.94302 0.78087,2.54254c0.57119,0.59952 1.32314,0.80899 1.80034,0.80899h0.03615c1.24361,-0.02889 2.99333,-0.7512 4.5623,-1.88523c1.35206,-0.97512 3.19578,-2.67978 4.28755,-5.29454c0.28198,-0.67175 0.36151,-1.37239 0.23137,-1.92857c-0.05784,-0.26003 -0.42659,-0.75843 -1.35206,-0.75843c-0.43382,0 -0.93993,0.10835 -1.49666,0.31782c-2.3643,0.89567 -4.04895,4.05217 -4.60568,5.08507c-0.07953,0.15169 -0.13738,0.25281 -0.17353,0.31782l-0.23137,0.36838c0,0 -0.45551,-0.29615 0.03615,-1.86356c0.45551,-1.44462 1.87987,-3.07705 3.23916,-4.16051c0.99778,-0.79454 2.04616,-1.19904 3.12347,-1.19904c0.1663,0 0.33259,0.00722 0.50612,0.02889c0.84594,0.08668 1.47497,0.45506 1.8871,1.09069c0.75195,1.16292 0.49889,2.86758 0.23137,3.69101c-0.87486,2.687 -2.92103,4.42055 -4.48276,5.40289c-1.80034,1.13403 -3.89711,1.83467 -5.47331,1.83467c-0.10122,0 -0.20245,-0.00722 -0.29644,-0.00722c-0.41213,-0.02889 -1.46774,-0.17335 -2.39322,-0.94623c-0.93993,-0.78732 -1.43882,-1.95024 -1.48943,-3.45265c-0.06507,-1.91413 0.49889,-3.12039 0.91101,-3.99438c0.7158,-1.52408 1.82926,-3.02648 3.31146,-4.45666c2.34984,-2.26806 5.02503,-4.09551 8.1702,-5.57624c1.93771,-0.91011 5.85651,-2.44864 10.22359,-2.44864c0.3109,0 0.61457,0.00722 0.91824,0.02167c4.27309,0.21669 6.00112,1.51685 6.83983,2.18138c3.41991,-1.47352 5.64684,-1.69021 5.74083,-1.69743zM27.98998,16.50482c-0.62903,0 -0.88209,0.11557 -1.00501,0.17335c-0.08676,0.03612 -0.13014,0.10112 -0.13014,0.17335c0,0.07223 0.05784,0.18058 0.20245,0.23836c0.24583,0.10112 0.59288,0.21669 1.099,0.25281h0.0723c0.29644,0.02167 0.60734,0.03612 0.91824,0.03612c0.36874,0 0.68688,-0.02889 0.96163,-0.07945c-0.67964,-0.46228 -1.34483,-0.79454 -2.11847,-0.79454zM129.99998,16.49999c0,0.82286 -0.45143,1.5 -1,1.5c-0.54857,0 -1,-0.67714 -1,-1.5c0,-0.82286 0.45143,-1.5 1,-1.5c0.54857,0 1,0.66857 1,1.5zM129.82855,16.49999c0,-0.68571 -0.37143,-1.23429 -0.82286,-1.23429c-0.45143,0 -0.82286,0.55714 -0.82286,1.23429c0,0.67714 0.37143,1.23429 0.82286,1.23429c0.45143,0 0.82286,-0.55714 0.82286,-1.23429zM129.47998,17.24571h-0.22286l-0.22286,-0.53143h-0.19429v0.53143h-0.2v-1.51714h0.4c0.23429,0 0.37714,0.21429 0.37714,0.50571c0,0.20163 -0.07136,0.35385 -0.19257,0.43246zM128.83998,16.45713h0.20571c0.10286,0 0.17714,-0.07714 0.17714,-0.23143c0,-0.14571 -0.06857,-0.23143 -0.17714,-0.23143h-0.20571z" style="stroke-width: 0; stroke-linecap: butt; stroke-linejoin: miter; fill: rgb(64, 85, 99);" vector-effect="non-scaling-stroke"/></g><defs><path id="path-1694020938100332824" d="M53.99998,21.69596c0,1.54131 -0.20405,4.30403 -8,4.30403c-7.79595,0 -8,-2.73364 -8,-4.28949v-2.42829c0,-1.54131 0.20405,-4.28222 8,-4.28222c7.79595,0 8,2.76272 8,4.30403zM49.09584,19.29676c0,-0.71249 -0.0774,-1.99207 -3.09587,-1.99207c-3.01847,0 -3.09587,1.26504 -3.09587,1.97753v2.42829c0,0.72703 0.0774,1.97753 3.09587,1.97753c3.01847,0 3.09587,-1.28685 3.09587,-1.99207zM57.89041,25.99253h-1.89043v-2.08672h1.89043v-6.81911h-1.89043v-2.08672h8.79886c5.5184,0.04472 8.20114,1.25203 8.20114,4.50136v1.99729c0,3.37602 -3.0094,4.50136 -8.20114,4.50136h-6.90842zM64.79883,23.62261c2.41169,0 3.35691,-0.60366 3.35691,-2.13889v-1.99729c0,-1.62466 -1.19542,-2.13144 -3.35691,-2.13144h-2.11284v6.26762zM76.90305,25.61312h-1.95378v-2.02247h1.95378v-6.60915h-1.95378v-2.02247h15.07717v3.3443h-4.317v-1.04735h-3.8501v2.00803h5.02812v2.15971h-5.02812v1.9069h4.05841v-1.04735h4.30982v3.3443h-13.32451zM92.00177,21.84265v0.00722h-0.00718zM96.18229,21.84988v1.51685c0.92661,0.15169 1.69519,0.16613 2.15491,0.16613c1.64491,0 2.4135,-0.12279 2.4135,-0.7512c0,-0.43339 -0.50999,-0.59952 -0.94816,-0.73676l-3.28983,-0.98957c-2.74392,-0.80899 -4.02968,-1.30738 -4.02968,-3.37319c0,-2.35474 3.03124,-2.86035 7.01063,-2.86035c0.76858,0 3.1318,0.02889 5.39445,0.52006v2.88202h-4.1877v-1.12681c-0.48845,-0.05778 -0.97689,-0.07223 -1.51562,-0.07223c-0.8476,0 -1.74548,0.16613 -1.74548,0.67175c0,0.40449 0.15803,0.58507 1.23548,0.91734l3.51968,1.04735c2.23392,0.64286 3.51968,1.39406 3.51968,3.04093c0,2.77368 -3.54123,3.04093 -7.36978,3.04093c-1.20675,0 -3.8501,-0.13724 -6.34261,-0.55618v-3.33708zM108.47708,23.91327l5.10458,-8.91328h4.86412l5.08397,8.91328h1.47023v2.08672h-7.73587v-2.08672h1.52519l-0.37099,-0.78997h-4.81603l-0.3916,0.78997h1.52519v2.08672h-7.73587v-2.08672zM116.01372,17.80216l-1.32595,3.0332h2.6313zM42.59511,0.48395l0.40489,-0.03612v1.11958l-0.39766,-0.02889c-0.00723,0 -0.05061,0 -0.12291,0c-0.48443,0 -2.20523,0.10112 -4.95273,1.30738c0.36874,0.42616 0.87486,1.04735 1.04116,1.30738c0.73026,1.13403 1.77141,3.77769 1.03393,6.35634c-0.94716,3.31541 -3.91157,5.07063 -5.3504,5.91573c-0.07953,0.05056 -0.15907,0.0939 -0.23137,0.13724c-0.49889,0.29615 -1.05562,0.54896 -1.54005,0.77287c-0.15907,0.07223 -0.3109,0.14446 -0.44828,0.20947c1.17853,1.09791 1.90156,2.57143 2.09678,4.29775c0.18076,1.58186 -0.10845,3.04815 -0.44105,3.89326c-0.99778,2.53531 -2.57397,5.52568 -6.68799,8.50883c-2.01001,1.45907 -3.83927,1.67576 -4.80813,1.67576c-0.96886,0 -1.82926,-0.22392 -2.3643,-0.62119c-0.57842,-0.42616 -0.88932,-0.99679 -0.92547,-1.70465c-0.09399,-1.82022 1.69911,-3.90048 2.33538,-4.48555c3.44161,-3.16372 6.48555,-3.32263 6.61569,-3.32263l0.83871,-0.02889l-0.53504,0.64286l-0.18799,0.23114l-0.11568,0.13724h-0.17353c-0.02892,0 -2.64628,0.03612 -5.84205,3.30096c-0.9327,0.95345 -1.87264,2.47031 -1.84372,3.35875c0.02892,0.80899 0.46997,1.22071 1.31591,1.22071c0.13738,0 0.28921,-0.01445 0.44105,-0.03612c2.49444,-0.3756 4.83705,-2.95425 5.27809,-3.46709c2.20523,-2.54976 5.53838,-6.4069 5.27809,-10.66854c-0.06507,-1.11958 -0.95439,-2.13804 -1.33037,-2.4053c-0.26752,0.07945 -0.66518,0.20947 -1.11346,0.30337c-0.20968,0.05056 -0.64349,0.12279 -1.20745,0.12279c-0.62903,0 -1.04839,-0.08668 -1.61235,-0.26726c-0.66518,-0.20947 -1.06285,-0.67897 -1.06285,-1.25682c-0.00723,-0.53451 0.28198,-0.98234 0.77364,-1.19904c0.39766,-0.17335 0.63626,-0.26726 1.07731,-0.26726c1.30145,0 2.45829,0.78732 3.17409,1.29294c1.23638,-0.79454 4.2514,-4.10273 4.77197,-4.84671c0.88932,-1.26405 1.52559,-2.4053 1.87264,-3.51766c1.01947,-3.2504 -0.33982,-4.51445 -0.94716,-5.16453c-1.75695,0.98234 -3.45607,2.0008 -5.92159,4.90449c-1.42436,1.68299 -2.79088,3.82103 -4.17909,6.5297c-1.46051,2.86758 -3.10901,5.8435 -4.64183,8.38604c-1.25807,2.08026 -6.41324,8.32825 -10.2019,10.79856c-3.2247,2.10915 -4.51168,2.10915 -6.45663,2.10915c-0.65795,0 -1.30145,-0.10112 -1.95217,-0.23114c-1.01947,-0.20225 -2.82703,-1.02568 -3.18132,-2.62199c-0.1663,-0.72231 -0.30367,-2.24639 0.0723,-2.91814c0.15907,-0.2817 0.36874,-0.36838 0.51335,-0.39005c0.44828,-0.05778 3.52837,-0.47673 4.10679,-0.51284c0.07953,-0.00722 -0.18076,0.64286 -0.52058,0.74398c-0.46997,0.14446 -0.80256,0.38283 -1.05562,0.71509c-0.15907,0.20947 -1.19299,1.40851 -0.34705,3.09872c0.26029,0.51284 1.09177,0.99679 2.64628,0.99679c0.12291,0 0.26029,-0.00722 0.39043,-0.01445c1.31591,-0.07223 2.14016,-0.45506 3.37653,-1.07624c1.05562,-0.52729 3.14516,-2.58587 5.20579,-5.12119c0.88209,-1.08347 2.92103,-4.31942 5.7336,-9.10112c1.40267,-2.39085 2.76196,-4.52889 3.43438,-5.50401c0.20968,-0.30337 0.41936,-0.62119 0.64349,-0.96067c1.0267,-1.55297 2.30645,-3.48154 4.51892,-5.64848c2.44383,-2.39085 3.3693,-2.90369 5.85651,-4.28331l0.13014,-0.07223c0.3832,-0.21669 0.70134,-0.34671 1.01224,-0.4695c0.02169,-0.01445 0.04338,-0.02167 0.06507,-0.02889c-0.88209,-0.60674 -2.71858,-1.57464 -6.07342,-1.57464c-0.18076,0 -0.36151,0.00722 -0.54227,0.00722c-2.53782,0.07223 -4.55507,0.51284 -7.70746,1.67576c-3.43438,1.27127 -6.67353,4.00883 -7.73638,4.91172l-0.10845,0.0939c-1.47497,1.24238 -3.04394,3.0626 -4.30924,4.98395c-1.10623,1.68299 -1.66296,2.91814 -1.70634,3.78491c-0.05061,1.08347 0.20968,1.94302 0.78087,2.54254c0.57119,0.59952 1.32314,0.80899 1.80034,0.80899h0.03615c1.24361,-0.02889 2.99333,-0.7512 4.5623,-1.88523c1.35206,-0.97512 3.19578,-2.67978 4.28755,-5.29454c0.28198,-0.67175 0.36151,-1.37239 0.23137,-1.92857c-0.05784,-0.26003 -0.42659,-0.75843 -1.35206,-0.75843c-0.43382,0 -0.93993,0.10835 -1.49666,0.31782c-2.3643,0.89567 -4.04895,4.05217 -4.60568,5.08507c-0.07953,0.15169 -0.13738,0.25281 -0.17353,0.31782l-0.23137,0.36838c0,0 -0.45551,-0.29615 0.03615,-1.86356c0.45551,-1.44462 1.87987,-3.07705 3.23916,-4.16051c0.99778,-0.79454 2.04616,-1.19904 3.12347,-1.19904c0.1663,0 0.33259,0.00722 0.50612,0.02889c0.84594,0.08668 1.47497,0.45506 1.8871,1.09069c0.75195,1.16292 0.49889,2.86758 0.23137,3.69101c-0.87486,2.687 -2.92103,4.42055 -4.48276,5.40289c-1.80034,1.13403 -3.89711,1.83467 -5.47331,1.83467c-0.10122,0 -0.20245,-0.00722 -0.29644,-0.00722c-0.41213,-0.02889 -1.46774,-0.17335 -2.39322,-0.94623c-0.93993,-0.78732 -1.43882,-1.95024 -1.48943,-3.45265c-0.06507,-1.91413 0.49889,-3.12039 0.91101,-3.99438c0.7158,-1.52408 1.82926,-3.02648 3.31146,-4.45666c2.34984,-2.26806 5.02503,-4.09551 8.1702,-5.57624c1.93771,-0.91011 5.85651,-2.44864 10.22359,-2.44864c0.3109,0 0.61457,0.00722 0.91824,0.02167c4.27309,0.21669 6.00112,1.51685 6.83983,2.18138c3.41991,-1.47352 5.64684,-1.69021 5.74083,-1.69743zM27.98998,16.50482c-0.62903,0 -0.88209,0.11557 -1.00501,0.17335c-0.08676,0.03612 -0.13014,0.10112 -0.13014,0.17335c0,0.07223 0.05784,0.18058 0.20245,0.23836c0.24583,0.10112 0.59288,0.21669 1.099,0.25281h0.0723c0.29644,0.02167 0.60734,0.03612 0.91824,0.03612c0.36874,0 0.68688,-0.02889 0.96163,-0.07945c-0.67964,-0.46228 -1.34483,-0.79454 -2.11847,-0.79454zM129.99998,16.49999c0,0.82286 -0.45143,1.5 -1,1.5c-0.54857,0 -1,-0.67714 -1,-1.5c0,-0.82286 0.45143,-1.5 1,-1.5c0.54857,0 1,0.66857 1,1.5zM129.82855,16.49999c0,-0.68571 -0.37143,-1.23429 -0.82286,-1.23429c-0.45143,0 -0.82286,0.55714 -0.82286,1.23429c0,0.67714 0.37143,1.23429 0.82286,1.23429c0.45143,0 0.82286,-0.55714 0.82286,-1.23429zM129.47998,17.24571h-0.22286l-0.22286,-0.53143h-0.19429v0.53143h-0.2v-1.51714h0.4c0.23429,0 0.37714,0.21429 0.37714,0.50571c0,0.20163 -0.07136,0.35385 -0.19257,0.43246zM128.83998,16.45713h0.20571c0.10286,0 0.17714,-0.07714 0.17714,-0.23143c0,-0.14571 -0.06857,-0.23143 -0.17714,-0.23143h-0.20571z" vector-effect="non-scaling-stroke"/></defs></g></svg>