<svg version="1.2" xmlns="http://www.w3.org/2000/svg" xmlns:xlink="http://www.w3.org/1999/xlink" overflow="visible" preserveAspectRatio="none" viewBox="0 0 269.9999811410938 74.99998000000002" width="269.9999811410938" height="74.99998000000002"><g transform="translate(0, 0)"><g transform="translate(-0.000018858906191659974, -0.00006999999994317108) rotate(0)"><path style="stroke-width: 0; stroke-linecap: butt; stroke-linejoin: miter; fill: rgb(255, 255, 255);" d="M112,44.78321c0,2.9425 -0.42084,8.21679 -16.5,8.21679c-16.07916,0 -16.5,-5.21877 -16.5,-8.18903v-4.63582c0,-2.9425 0.42084,-8.17515 16.5,-8.17515c16.07916,0 16.5,5.27429 16.5,8.21679zM101.88522,40.20291c0,-1.36021 -0.15963,-3.80304 -6.38522,-3.80304c-6.22559,0 -6.38522,2.41507 -6.38522,3.77528v4.63582c0,1.38797 0.15963,3.77528 6.38522,3.77528c6.22559,0 6.38522,-2.45671 6.38522,-3.80304zM120.00327,52.98577h-4.00327v-3.98374h4.00327v-13.01829h-4.00327v-3.98374h18.63287c11.68602,0.08537 17.36713,2.39024 17.36713,8.5935v3.81301c0,6.44512 -6.37285,8.5935 -17.36713,8.5935h-14.6296zM134.63287,48.46138c5.10711,0 7.10875,-1.15244 7.10875,-4.08333v-3.81301c0,-3.10163 -2.53148,-4.06911 -7.10875,-4.06911h-4.47424v11.96545zM159.72178,53.36072h-4.05786v-4.21348h4.05786v-13.76906h-4.05786v-4.21348h31.31412v6.9673h-8.96607v-2.18198h-7.99636v4.18339h10.44301v4.4994h-10.44301v3.97271h8.429v-2.18198h8.95115v6.9673h-27.67398zM191.08065,45.50558v0.01505h-0.01492zM199.76327,45.52063v3.16011c1.9245,0.31601 3.52079,0.34611 4.47558,0.34611c3.41636,0 5.01265,-0.25582 5.01265,-1.56501c0,-0.90289 -1.05922,-1.249 -1.96925,-1.53491l-6.83271,-2.0616c-5.6989,-1.68539 -8.36933,-2.72372 -8.36933,-7.02749c0,-4.9057 6.29564,-5.95907 14.56054,-5.95907c1.59629,0 6.50451,0.06019 11.20386,1.08347v6.00421h-8.69754v-2.34751c-1.01446,-0.12039 -2.02893,-0.15048 -3.14782,-0.15048c-1.76039,0 -3.62522,0.34611 -3.62522,1.39948c0,0.8427 0.32821,1.2189 2.566,1.91112l7.31011,2.18198c4.63968,1.33929 7.31011,2.90429 7.31011,6.33527c0,5.77849 -7.35486,6.33527 -15.30647,6.33527c-2.50632,0 -7.99636,-0.28591 -13.17311,-1.15871v-6.95225zM224.20038,49.01626l11.05992,-17.01626h10.53893l11.01527,17.01626h3.1855v3.98374h-16.76107v-3.98374h3.30458l-0.80382,-1.50813h-10.43473l-0.84847,1.50813h3.30458v3.98374h-16.76107v-3.98374zM240.52977,37.34959l-2.8729,5.79065h5.70115zM87.17138,1.00823l0.82862,-0.07524v2.33246l-0.81383,-0.06019c-0.0148,0 -0.10358,0 -0.25155,0c-0.99139,0 -4.51303,0.21067 -10.13582,2.72372c0.75464,0.88784 1.79042,2.18198 2.13074,2.72372c1.49448,2.36256 3.62522,7.87018 2.11595,13.24238c-1.93838,6.9071 -8.00508,10.5638 -10.94965,12.32444c-0.16277,0.10534 -0.32553,0.19563 -0.4735,0.28591c-1.02098,0.61697 -2.16034,1.14366 -3.15172,1.61015c-0.32553,0.15048 -0.63626,0.30096 -0.9174,0.4364c2.41188,2.28732 3.89156,5.35714 4.29108,8.95365c0.36992,3.29555 -0.22195,6.35032 -0.90261,8.11096c-2.04196,5.2819 -5.26767,11.51184 -13.68706,17.72673c-4.11352,3.03973 -7.85711,3.49117 -9.83988,3.49117c-1.98277,0 -3.7436,-0.46649 -4.83856,-1.29414c-1.18375,-0.88784 -1.82001,-2.07665 -1.89399,-3.55136c-0.19236,-3.79213 3.47725,-8.126 4.77937,-9.3449c7.04329,-6.59109 13.27275,-6.92215 13.53909,-6.92215l1.71643,-0.06019l-1.09496,1.33929l-0.38472,0.48154l-0.23675,0.28591h-0.35512c-0.05919,0 -5.41564,0.07524 -11.95583,6.87701c-1.90879,1.98636 -3.83238,5.14647 -3.77319,6.99739c0.05919,1.68539 0.96179,2.54314 2.69302,2.54314c0.28114,0 0.59187,-0.0301 0.90261,-0.07524c5.1049,-0.7825 9.89907,-6.1547 10.80168,-7.22311c4.51303,-5.312 11.33436,-13.34771 10.80168,-22.22612c-0.13317,-2.33246 -1.95318,-4.45425 -2.72261,-5.01104c-0.54748,0.16553 -1.36131,0.4364 -2.27871,0.63202c-0.42911,0.10534 -1.31692,0.25582 -2.47107,0.25582c-1.28732,0 -2.14554,-0.18058 -3.29969,-0.55678c-1.36131,-0.4364 -2.17513,-1.41453 -2.17513,-2.61838c-0.0148,-1.11356 0.57708,-2.04655 1.58326,-2.49799c0.81383,-0.36116 1.30212,-0.55678 2.20473,-0.55678c2.66343,0 5.03092,1.64025 6.4958,2.69362c2.53026,-1.6553 8.70053,-8.54735 9.7659,-10.09731c1.82001,-2.63343 3.12213,-5.01104 3.83238,-7.32845c2.08635,-6.77167 -0.69545,-9.4051 -1.93838,-10.75943c-3.59563,2.04655 -7.07288,4.16834 -12.11859,10.2177c-2.91497,3.50622 -5.71157,7.96047 -8.55256,13.60353c-2.98896,5.97412 -6.36263,12.17396 -9.49956,17.47091c-2.57465,4.33387 -13.12478,17.35052 -20.87831,22.49699c-6.59938,4.39406 -9.23321,4.39406 -13.21356,4.39406c-1.34651,0 -2.66343,-0.21067 -3.99514,-0.48154c-2.08635,-0.42135 -5.78556,-2.13684 -6.5106,-5.46248c-0.34033,-1.50482 -0.62147,-4.67998 0.14797,-6.07945c0.32553,-0.58688 0.75464,-0.76746 1.05057,-0.8126c0.9174,-0.12039 7.22085,-0.99318 8.40459,-1.06842c0.16277,-0.01505 -0.36992,1.33929 -1.06537,1.54996c-0.96179,0.30096 -1.64245,0.79755 -2.16034,1.48977c-0.32553,0.4364 -2.44148,2.93439 -0.71025,6.45566c0.53269,1.06842 2.23432,2.07665 5.41564,2.07665c0.25155,0 0.53269,-0.01505 0.79903,-0.0301c2.69302,-0.15048 4.37986,-0.94803 6.91011,-2.24217c2.16034,-1.09852 6.43662,-5.38724 10.65371,-10.66914c1.80521,-2.25722 5.97791,-8.9988 11.73388,-18.96067c2.87058,-4.98094 5.65238,-9.43519 7.02849,-11.46669c0.42911,-0.63202 0.85822,-1.29414 1.31692,-2.0014c2.10115,-3.23535 4.72019,-7.25321 9.24801,-11.76766c5.00132,-4.98094 6.89532,-6.04936 11.98542,-8.92356l0.26634,-0.15048c0.78423,-0.45144 1.43529,-0.72231 2.07155,-0.97813c0.04439,-0.0301 0.08878,-0.04514 0.13317,-0.06019c-1.80521,-1.26404 -5.5636,-3.2805 -12.42933,-3.2805c-0.36992,0 -0.73984,0.01505 -1.10976,0.01505c-5.19368,0.15048 -9.322,1.06842 -15.77341,3.49117c-7.02849,2.64848 -13.65746,8.35173 -15.8326,10.23274l-0.22195,0.19563c-3.01855,2.58828 -6.22946,6.38042 -8.8189,10.38323c-2.26391,3.50622 -3.40327,6.07945 -3.49205,7.88523c-0.10358,2.25722 0.42911,4.04795 1.59806,5.29695c1.16895,1.249 2.70782,1.68539 3.68441,1.68539h0.07398c2.54505,-0.06019 6.12588,-1.56501 9.33679,-3.92757c2.76701,-2.0315 6.54019,-5.58287 8.77451,-11.0303c0.57708,-1.39948 0.73984,-2.85915 0.4735,-4.01786c-0.11837,-0.54173 -0.87301,-1.58006 -2.76701,-1.58006c-0.88781,0 -1.92359,0.22572 -3.06294,0.66212c-4.83856,1.86597 -8.28622,8.44201 -9.42557,10.5939c-0.16277,0.31601 -0.28114,0.52669 -0.35512,0.66212l-0.4735,0.76746c0,0 -0.9322,-0.61697 0.07398,-3.88242c0.9322,-3.00963 3.84717,-6.41051 6.62897,-8.66774c2.04196,-1.6553 4.1875,-2.49799 6.39223,-2.49799c0.34033,0 0.68065,0.01505 1.03578,0.06019c1.73123,0.18058 3.01855,0.94803 3.86197,2.27227c1.53887,2.42275 1.02098,5.97412 0.4735,7.68961c-1.79042,5.59791 -5.97791,9.20947 -9.17403,11.25602c-3.68441,2.36256 -7.97549,3.82223 -11.20119,3.82223c-0.20716,0 -0.41431,-0.01505 -0.60667,-0.01505c-0.84342,-0.06019 -3.00375,-0.36116 -4.89775,-1.97131c-1.92359,-1.64025 -2.94457,-4.063 -3.04814,-7.19302c-0.13317,-3.98776 1.02098,-6.5008 1.8644,-8.32163c1.46489,-3.17516 3.7436,-6.30518 6.77694,-9.28471c4.80897,-4.72512 10.28379,-8.5323 16.7204,-11.61717c3.96555,-1.89607 11.98542,-5.10132 20.9227,-5.10132c0.63626,0 1.25773,0.01505 1.8792,0.04514c8.74492,0.45144 12.28136,3.16011 13.99779,4.54454c6.9989,-3.06982 11.55632,-3.52127 11.74867,-3.53632zM57.28181,34.38503c-1.28732,0 -1.80521,0.24077 -2.05676,0.36116c-0.17756,0.07524 -0.26634,0.21067 -0.26634,0.36116c0,0.15048 0.11837,0.3762 0.41431,0.49659c0.50309,0.21067 1.21334,0.45144 2.24912,0.52669h0.14797c0.60667,0.04514 1.24293,0.07524 1.8792,0.07524c0.75464,0 1.4057,-0.06019 1.96798,-0.16553c-1.3909,-0.96308 -2.75221,-1.6553 -4.33547,-1.6553zM270,33.5c0,1.37143 -1.12857,2.5 -2.5,2.5c-1.37143,0 -2.5,-1.12857 -2.5,-2.5c0,-1.37143 1.12857,-2.5 2.5,-2.5c1.37143,0 2.5,1.11429 2.5,2.5zM269.57143,33.5c0,-1.14286 -0.92857,-2.05714 -2.05714,-2.05714c-1.12857,0 -2.05714,0.92857 -2.05714,2.05714c0,1.12857 0.92857,2.05714 2.05714,2.05714c1.12857,0 2.05714,-0.92857 2.05714,-2.05714zM268.7,34.74286h-0.55714l-0.55714,-0.88571h-0.48571v0.88571h-0.5v-2.52857h1c0.58571,0 0.94286,0.35714 0.94286,0.84286c0,0.33605 -0.17841,0.58975 -0.48143,0.72076zM267.1,33.42857h0.51429c0.25714,0 0.44286,-0.12857 0.44286,-0.38571c0,-0.24286 -0.17143,-0.38571 -0.44286,-0.38571h-0.51429z" vector-effect="non-scaling-stroke"/></g><defs><path id="path-1693942377431209" d="M112,44.78321c0,2.9425 -0.42084,8.21679 -16.5,8.21679c-16.07916,0 -16.5,-5.21877 -16.5,-8.18903v-4.63582c0,-2.9425 0.42084,-8.17515 16.5,-8.17515c16.07916,0 16.5,5.27429 16.5,8.21679zM101.88522,40.20291c0,-1.36021 -0.15963,-3.80304 -6.38522,-3.80304c-6.22559,0 -6.38522,2.41507 -6.38522,3.77528v4.63582c0,1.38797 0.15963,3.77528 6.38522,3.77528c6.22559,0 6.38522,-2.45671 6.38522,-3.80304zM120.00327,52.98577h-4.00327v-3.98374h4.00327v-13.01829h-4.00327v-3.98374h18.63287c11.68602,0.08537 17.36713,2.39024 17.36713,8.5935v3.81301c0,6.44512 -6.37285,8.5935 -17.36713,8.5935h-14.6296zM134.63287,48.46138c5.10711,0 7.10875,-1.15244 7.10875,-4.08333v-3.81301c0,-3.10163 -2.53148,-4.06911 -7.10875,-4.06911h-4.47424v11.96545zM159.72178,53.36072h-4.05786v-4.21348h4.05786v-13.76906h-4.05786v-4.21348h31.31412v6.9673h-8.96607v-2.18198h-7.99636v4.18339h10.44301v4.4994h-10.44301v3.97271h8.429v-2.18198h8.95115v6.9673h-27.67398zM191.08065,45.50558v0.01505h-0.01492zM199.76327,45.52063v3.16011c1.9245,0.31601 3.52079,0.34611 4.47558,0.34611c3.41636,0 5.01265,-0.25582 5.01265,-1.56501c0,-0.90289 -1.05922,-1.249 -1.96925,-1.53491l-6.83271,-2.0616c-5.6989,-1.68539 -8.36933,-2.72372 -8.36933,-7.02749c0,-4.9057 6.29564,-5.95907 14.56054,-5.95907c1.59629,0 6.50451,0.06019 11.20386,1.08347v6.00421h-8.69754v-2.34751c-1.01446,-0.12039 -2.02893,-0.15048 -3.14782,-0.15048c-1.76039,0 -3.62522,0.34611 -3.62522,1.39948c0,0.8427 0.32821,1.2189 2.566,1.91112l7.31011,2.18198c4.63968,1.33929 7.31011,2.90429 7.31011,6.33527c0,5.77849 -7.35486,6.33527 -15.30647,6.33527c-2.50632,0 -7.99636,-0.28591 -13.17311,-1.15871v-6.95225zM224.20038,49.01626l11.05992,-17.01626h10.53893l11.01527,17.01626h3.1855v3.98374h-16.76107v-3.98374h3.30458l-0.80382,-1.50813h-10.43473l-0.84847,1.50813h3.30458v3.98374h-16.76107v-3.98374zM240.52977,37.34959l-2.8729,5.79065h5.70115zM87.17138,1.00823l0.82862,-0.07524v2.33246l-0.81383,-0.06019c-0.0148,0 -0.10358,0 -0.25155,0c-0.99139,0 -4.51303,0.21067 -10.13582,2.72372c0.75464,0.88784 1.79042,2.18198 2.13074,2.72372c1.49448,2.36256 3.62522,7.87018 2.11595,13.24238c-1.93838,6.9071 -8.00508,10.5638 -10.94965,12.32444c-0.16277,0.10534 -0.32553,0.19563 -0.4735,0.28591c-1.02098,0.61697 -2.16034,1.14366 -3.15172,1.61015c-0.32553,0.15048 -0.63626,0.30096 -0.9174,0.4364c2.41188,2.28732 3.89156,5.35714 4.29108,8.95365c0.36992,3.29555 -0.22195,6.35032 -0.90261,8.11096c-2.04196,5.2819 -5.26767,11.51184 -13.68706,17.72673c-4.11352,3.03973 -7.85711,3.49117 -9.83988,3.49117c-1.98277,0 -3.7436,-0.46649 -4.83856,-1.29414c-1.18375,-0.88784 -1.82001,-2.07665 -1.89399,-3.55136c-0.19236,-3.79213 3.47725,-8.126 4.77937,-9.3449c7.04329,-6.59109 13.27275,-6.92215 13.53909,-6.92215l1.71643,-0.06019l-1.09496,1.33929l-0.38472,0.48154l-0.23675,0.28591h-0.35512c-0.05919,0 -5.41564,0.07524 -11.95583,6.87701c-1.90879,1.98636 -3.83238,5.14647 -3.77319,6.99739c0.05919,1.68539 0.96179,2.54314 2.69302,2.54314c0.28114,0 0.59187,-0.0301 0.90261,-0.07524c5.1049,-0.7825 9.89907,-6.1547 10.80168,-7.22311c4.51303,-5.312 11.33436,-13.34771 10.80168,-22.22612c-0.13317,-2.33246 -1.95318,-4.45425 -2.72261,-5.01104c-0.54748,0.16553 -1.36131,0.4364 -2.27871,0.63202c-0.42911,0.10534 -1.31692,0.25582 -2.47107,0.25582c-1.28732,0 -2.14554,-0.18058 -3.29969,-0.55678c-1.36131,-0.4364 -2.17513,-1.41453 -2.17513,-2.61838c-0.0148,-1.11356 0.57708,-2.04655 1.58326,-2.49799c0.81383,-0.36116 1.30212,-0.55678 2.20473,-0.55678c2.66343,0 5.03092,1.64025 6.4958,2.69362c2.53026,-1.6553 8.70053,-8.54735 9.7659,-10.09731c1.82001,-2.63343 3.12213,-5.01104 3.83238,-7.32845c2.08635,-6.77167 -0.69545,-9.4051 -1.93838,-10.75943c-3.59563,2.04655 -7.07288,4.16834 -12.11859,10.2177c-2.91497,3.50622 -5.71157,7.96047 -8.55256,13.60353c-2.98896,5.97412 -6.36263,12.17396 -9.49956,17.47091c-2.57465,4.33387 -13.12478,17.35052 -20.87831,22.49699c-6.59938,4.39406 -9.23321,4.39406 -13.21356,4.39406c-1.34651,0 -2.66343,-0.21067 -3.99514,-0.48154c-2.08635,-0.42135 -5.78556,-2.13684 -6.5106,-5.46248c-0.34033,-1.50482 -0.62147,-4.67998 0.14797,-6.07945c0.32553,-0.58688 0.75464,-0.76746 1.05057,-0.8126c0.9174,-0.12039 7.22085,-0.99318 8.40459,-1.06842c0.16277,-0.01505 -0.36992,1.33929 -1.06537,1.54996c-0.96179,0.30096 -1.64245,0.79755 -2.16034,1.48977c-0.32553,0.4364 -2.44148,2.93439 -0.71025,6.45566c0.53269,1.06842 2.23432,2.07665 5.41564,2.07665c0.25155,0 0.53269,-0.01505 0.79903,-0.0301c2.69302,-0.15048 4.37986,-0.94803 6.91011,-2.24217c2.16034,-1.09852 6.43662,-5.38724 10.65371,-10.66914c1.80521,-2.25722 5.97791,-8.9988 11.73388,-18.96067c2.87058,-4.98094 5.65238,-9.43519 7.02849,-11.46669c0.42911,-0.63202 0.85822,-1.29414 1.31692,-2.0014c2.10115,-3.23535 4.72019,-7.25321 9.24801,-11.76766c5.00132,-4.98094 6.89532,-6.04936 11.98542,-8.92356l0.26634,-0.15048c0.78423,-0.45144 1.43529,-0.72231 2.07155,-0.97813c0.04439,-0.0301 0.08878,-0.04514 0.13317,-0.06019c-1.80521,-1.26404 -5.5636,-3.2805 -12.42933,-3.2805c-0.36992,0 -0.73984,0.01505 -1.10976,0.01505c-5.19368,0.15048 -9.322,1.06842 -15.77341,3.49117c-7.02849,2.64848 -13.65746,8.35173 -15.8326,10.23274l-0.22195,0.19563c-3.01855,2.58828 -6.22946,6.38042 -8.8189,10.38323c-2.26391,3.50622 -3.40327,6.07945 -3.49205,7.88523c-0.10358,2.25722 0.42911,4.04795 1.59806,5.29695c1.16895,1.249 2.70782,1.68539 3.68441,1.68539h0.07398c2.54505,-0.06019 6.12588,-1.56501 9.33679,-3.92757c2.76701,-2.0315 6.54019,-5.58287 8.77451,-11.0303c0.57708,-1.39948 0.73984,-2.85915 0.4735,-4.01786c-0.11837,-0.54173 -0.87301,-1.58006 -2.76701,-1.58006c-0.88781,0 -1.92359,0.22572 -3.06294,0.66212c-4.83856,1.86597 -8.28622,8.44201 -9.42557,10.5939c-0.16277,0.31601 -0.28114,0.52669 -0.35512,0.66212l-0.4735,0.76746c0,0 -0.9322,-0.61697 0.07398,-3.88242c0.9322,-3.00963 3.84717,-6.41051 6.62897,-8.66774c2.04196,-1.6553 4.1875,-2.49799 6.39223,-2.49799c0.34033,0 0.68065,0.01505 1.03578,0.06019c1.73123,0.18058 3.01855,0.94803 3.86197,2.27227c1.53887,2.42275 1.02098,5.97412 0.4735,7.68961c-1.79042,5.59791 -5.97791,9.20947 -9.17403,11.25602c-3.68441,2.36256 -7.97549,3.82223 -11.20119,3.82223c-0.20716,0 -0.41431,-0.01505 -0.60667,-0.01505c-0.84342,-0.06019 -3.00375,-0.36116 -4.89775,-1.97131c-1.92359,-1.64025 -2.94457,-4.063 -3.04814,-7.19302c-0.13317,-3.98776 1.02098,-6.5008 1.8644,-8.32163c1.46489,-3.17516 3.7436,-6.30518 6.77694,-9.28471c4.80897,-4.72512 10.28379,-8.5323 16.7204,-11.61717c3.96555,-1.89607 11.98542,-5.10132 20.9227,-5.10132c0.63626,0 1.25773,0.01505 1.8792,0.04514c8.74492,0.45144 12.28136,3.16011 13.99779,4.54454c6.9989,-3.06982 11.55632,-3.52127 11.74867,-3.53632zM57.28181,34.38503c-1.28732,0 -1.80521,0.24077 -2.05676,0.36116c-0.17756,0.07524 -0.26634,0.21067 -0.26634,0.36116c0,0.15048 0.11837,0.3762 0.41431,0.49659c0.50309,0.21067 1.21334,0.45144 2.24912,0.52669h0.14797c0.60667,0.04514 1.24293,0.07524 1.8792,0.07524c0.75464,0 1.4057,-0.06019 1.96798,-0.16553c-1.3909,-0.96308 -2.75221,-1.6553 -4.33547,-1.6553zM270,33.5c0,1.37143 -1.12857,2.5 -2.5,2.5c-1.37143,0 -2.5,-1.12857 -2.5,-2.5c0,-1.37143 1.12857,-2.5 2.5,-2.5c1.37143,0 2.5,1.11429 2.5,2.5zM269.57143,33.5c0,-1.14286 -0.92857,-2.05714 -2.05714,-2.05714c-1.12857,0 -2.05714,0.92857 -2.05714,2.05714c0,1.12857 0.92857,2.05714 2.05714,2.05714c1.12857,0 2.05714,-0.92857 2.05714,-2.05714zM268.7,34.74286h-0.55714l-0.55714,-0.88571h-0.48571v0.88571h-0.5v-2.52857h1c0.58571,0 0.94286,0.35714 0.94286,0.84286c0,0.33605 -0.17841,0.58975 -0.48143,0.72076zM267.1,33.42857h0.51429c0.25714,0 0.44286,-0.12857 0.44286,-0.38571c0,-0.24286 -0.17143,-0.38571 -0.44286,-0.38571h-0.51429z" vector-effect="non-scaling-stroke"/></defs></g></svg>