<svg version="1.2" xmlns="http://www.w3.org/2000/svg" xmlns:xlink="http://www.w3.org/1999/xlink" overflow="visible" preserveAspectRatio="none" viewBox="0 0 14.000009999999998 14.000003734892724" width="14.000009999999998" height="14.000003734892724"><g transform="translate(0, 0)"><g transform="translate(0.0000025000000004752124, 0.000003724070708609195) rotate(0)"><path style="stroke-width: 0; stroke-linecap: butt; stroke-linejoin: miter; fill: rgb(255, 255, 255);" d="M13.99392,7.00005v3.95253c-0.02138,1.68934 -1.39683,3.04756 -3.0861,3.04742h-7.81291c-1.69537,0.00009 -3.07476,-1.36495 -3.09261,-3.06044c-0.00307,-0.01063 -0.00307,-0.02192 0,-0.03256v-7.8139c0,-1.70822 1.38461,-3.093 3.09261,-3.093h4.55753c0.26968,0 0.48831,0.21865 0.48831,0.48837c0,0.26972 -0.21862,0.48837 -0.48831,0.48837h-4.55753c-1.16715,0.00358 -2.11242,0.94897 -2.116,2.11626v6.466l1.38679,-1.67348c0.34141,-0.40961 0.84708,-0.64643 1.38028,-0.64643c0.5332,0 1.03887,0.23682 1.38028,0.64643l0.61201,0.74232l1.86208,-2.1358c0.35064,-0.37246 0.83947,-0.58364 1.35098,-0.58364c0.51151,0 1.00034,0.21118 1.35098,0.58364l2.7215,3.11254v-2.60463c0.00351,-0.26825 0.22009,-0.48486 0.48831,-0.48837c0.26567,0.00697 0.47839,0.22259 0.4818,0.48837zM2.44384,3.74426c0,-0.71925 0.58299,-1.30232 1.30215,-1.30232c0.71916,0 1.30215,0.58307 1.30215,1.30232c0,0.71925 -0.58299,1.30232 -1.30215,1.30232c-0.71916,0 -1.30215,-0.58307 -1.30215,-1.30232zM9.06768,2.74762c-0.24796,-0.97963 0.20113,-2.00255 1.08995,-2.48266c0.88882,-0.48012 1.99007,-0.29465 2.67278,0.45014c0.68271,0.74479 0.77228,1.85842 0.2174,2.70284l0.82322,0.82946c0.17197,0.17226 0.17197,0.45131 0,0.62357c-0.17218,0.17204 -0.45111,0.17204 -0.62329,0l-0.8291,-0.82358c-0.3592,0.23795 -0.7805,0.36481 -1.21131,0.36473c-1.0101,0.00095 -1.89169,-0.68487 -2.13965,-1.66449zM9.92834,1.86304c-0.15527,0.57884 0.09761,1.18982 0.61644,1.48942c0.51883,0.2996 1.17415,0.21304 1.59748,-0.21101c0.37789,-0.37853 0.49086,-0.94743 0.28628,-1.44172c-0.20458,-0.49429 -0.68647,-0.81677 -1.22122,-0.81724c-0.59906,-0.00053 -1.12372,0.40171 -1.27898,0.98055z" vector-effect="non-scaling-stroke"/></g><defs><path id="path-1694725180678276" d="M13.99392,7.00005v3.95253c-0.02138,1.68934 -1.39683,3.04756 -3.0861,3.04742h-7.81291c-1.69537,0.00009 -3.07476,-1.36495 -3.09261,-3.06044c-0.00307,-0.01063 -0.00307,-0.02192 0,-0.03256v-7.8139c0,-1.70822 1.38461,-3.093 3.09261,-3.093h4.55753c0.26968,0 0.48831,0.21865 0.48831,0.48837c0,0.26972 -0.21862,0.48837 -0.48831,0.48837h-4.55753c-1.16715,0.00358 -2.11242,0.94897 -2.116,2.11626v6.466l1.38679,-1.67348c0.34141,-0.40961 0.84708,-0.64643 1.38028,-0.64643c0.5332,0 1.03887,0.23682 1.38028,0.64643l0.61201,0.74232l1.86208,-2.1358c0.35064,-0.37246 0.83947,-0.58364 1.35098,-0.58364c0.51151,0 1.00034,0.21118 1.35098,0.58364l2.7215,3.11254v-2.60463c0.00351,-0.26825 0.22009,-0.48486 0.48831,-0.48837c0.26567,0.00697 0.47839,0.22259 0.4818,0.48837zM2.44384,3.74426c0,-0.71925 0.58299,-1.30232 1.30215,-1.30232c0.71916,0 1.30215,0.58307 1.30215,1.30232c0,0.71925 -0.58299,1.30232 -1.30215,1.30232c-0.71916,0 -1.30215,-0.58307 -1.30215,-1.30232zM9.06768,2.74762c-0.24796,-0.97963 0.20113,-2.00255 1.08995,-2.48266c0.88882,-0.48012 1.99007,-0.29465 2.67278,0.45014c0.68271,0.74479 0.77228,1.85842 0.2174,2.70284l0.82322,0.82946c0.17197,0.17226 0.17197,0.45131 0,0.62357c-0.17218,0.17204 -0.45111,0.17204 -0.62329,0l-0.8291,-0.82358c-0.3592,0.23795 -0.7805,0.36481 -1.21131,0.36473c-1.0101,0.00095 -1.89169,-0.68487 -2.13965,-1.66449zM9.92834,1.86304c-0.15527,0.57884 0.09761,1.18982 0.61644,1.48942c0.51883,0.2996 1.17415,0.21304 1.59748,-0.21101c0.37789,-0.37853 0.49086,-0.94743 0.28628,-1.44172c-0.20458,-0.49429 -0.68647,-0.81677 -1.22122,-0.81724c-0.59906,-0.00053 -1.12372,0.40171 -1.27898,0.98055z" vector-effect="non-scaling-stroke"/></defs></g></svg>