<svg version="1.2" xmlns="http://www.w3.org/2000/svg" xmlns:xlink="http://www.w3.org/1999/xlink" overflow="visible" preserveAspectRatio="none" viewBox="0 0 5 9" width="5" height="9"><g transform="translate(0, 0)"><defs><path id="path-1693951128861210487" d="M4.708110523765575 3.1814486066278427 C4.473123925849181 3.1754516621290003 4.260662847421183 3.3428536399173048 4.178800216634353 3.5985018990853606 C4.096937585847526 3.854150158253415 4.163649307853583 4.141907865488887 4.345001020685352 4.3154008319304165 C4.345001020685352 4.3154008319304165 7.720733468251701 7.670952019173035 7.720733468251701 7.670952019173035 C7.720733468251701 7.670952019173035 4.345001020685352 11.02526936110635 4.345001020685352 11.02526936110635 C4.178167806475862 11.16754419319314 4.0940289938611825 11.406222944712587 4.127106424189839 11.643376613137189 C4.160183854518497 11.880530281561654 4.304908750415745 12.076232670389963 4.501901026281525 12.150187818593851 C4.698893302147304 12.22414296679774 4.914988165011254 12.163900095947128 5.0615226977225865 11.994176631511142 C5.0615226977225865 11.994176631511142 8.926429301457851 8.15728061538455 8.926429301457851 8.15728061538455 C9.049261813873745 8.035652534877514 9.120005672478898 7.857690418385365 9.120005672478898 7.670322999995706 C9.120005672478898 7.482955581606041 9.049261813873745 7.304993465113893 8.926429301457851 7.183365384606862 C8.926429301457851 7.183365384606862 5.0615226977225865 3.342719446462039 5.0615226977225865 3.342719446462039 C4.963889286002127 3.242095988326121 4.838660743962423 3.1849167730239856 4.708110523765575 3.181351834446691 C4.708110523765575 3.181351834446691 4.708110523765575 3.1814486066278427 4.708110523765575 3.1814486066278427 Z" vector-effect="non-scaling-stroke"/></defs><g transform="translate(-4.120005672478898, -3.181292611729401)"><path d="M4.708110523765575 3.1814486066278427 C4.473123925849181 3.1754516621290003 4.260662847421183 3.3428536399173048 4.178800216634353 3.5985018990853606 C4.096937585847526 3.854150158253415 4.163649307853583 4.141907865488887 4.345001020685352 4.3154008319304165 C4.345001020685352 4.3154008319304165 7.720733468251701 7.670952019173035 7.720733468251701 7.670952019173035 C7.720733468251701 7.670952019173035 4.345001020685352 11.02526936110635 4.345001020685352 11.02526936110635 C4.178167806475862 11.16754419319314 4.0940289938611825 11.406222944712587 4.127106424189839 11.643376613137189 C4.160183854518497 11.880530281561654 4.304908750415745 12.076232670389963 4.501901026281525 12.150187818593851 C4.698893302147304 12.22414296679774 4.914988165011254 12.163900095947128 5.0615226977225865 11.994176631511142 C5.0615226977225865 11.994176631511142 8.926429301457851 8.15728061538455 8.926429301457851 8.15728061538455 C9.049261813873745 8.035652534877514 9.120005672478898 7.857690418385365 9.120005672478898 7.670322999995706 C9.120005672478898 7.482955581606041 9.049261813873745 7.304993465113893 8.926429301457851 7.183365384606862 C8.926429301457851 7.183365384606862 5.0615226977225865 3.342719446462039 5.0615226977225865 3.342719446462039 C4.963889286002127 3.242095988326121 4.838660743962423 3.1849167730239856 4.708110523765575 3.181351834446691 C4.708110523765575 3.181351834446691 4.708110523765575 3.1814486066278427 4.708110523765575 3.1814486066278427 Z" style="stroke-width: 0; stroke-linecap: butt; stroke-linejoin: miter; fill: rgb(126, 138, 145);" vector-effect="non-scaling-stroke"/></g></g></svg>