<svg version="1.2" xmlns="http://www.w3.org/2000/svg" xmlns:xlink="http://www.w3.org/1999/xlink" overflow="visible" preserveAspectRatio="none" viewBox="0 0 12.000005000000002 9.900897500000001" width="12.000005000000002" height="9.900897500000001"><g transform="translate(0, 0)"><g transform="translate(-0.000012500000000567613, -0.0000024999999992530997) rotate(0)"><path d="M4.59503,9.4009c-0.11455,0.11853 -0.27083,0.18466 -0.43317,0.18466c-0.16234,0 -0.31862,-0.06613 -0.43317,-0.18466l-3.45942,-3.5594c-0.35901,-0.36933 -0.35901,-0.96822 0,-1.33685l0.43317,-0.44573c0.35912,-0.36933 0.94061,-0.36933 1.29963,0l2.1598,2.22197l5.83609,-6.00389c0.35912,-0.36933 0.94117,-0.36933 1.29963,0l0.43317,0.44573c0.35901,0.36933 0.35901,0.9681 0,1.33685zM5.09503,9.9009v0c-1,-1 -1,-1 -1,-1v0z" style="stroke-width: 0; stroke-linecap: butt; stroke-linejoin: miter; fill: rgb(255, 255, 255);" vector-effect="non-scaling-stroke"/></g><defs><path id="path-16940998194881079" d="M4.59503,9.4009c-0.11455,0.11853 -0.27083,0.18466 -0.43317,0.18466c-0.16234,0 -0.31862,-0.06613 -0.43317,-0.18466l-3.45942,-3.5594c-0.35901,-0.36933 -0.35901,-0.96822 0,-1.33685l0.43317,-0.44573c0.35912,-0.36933 0.94061,-0.36933 1.29963,0l2.1598,2.22197l5.83609,-6.00389c0.35912,-0.36933 0.94117,-0.36933 1.29963,0l0.43317,0.44573c0.35901,0.36933 0.35901,0.9681 0,1.33685zM5.09503,9.9009v0c-1,-1 -1,-1 -1,-1v0z" vector-effect="non-scaling-stroke"/></defs></g></svg>