<svg version="1.2" xmlns="http://www.w3.org/2000/svg" xmlns:xlink="http://www.w3.org/1999/xlink" overflow="visible" preserveAspectRatio="none" viewBox="0 0 20 20" width="20" height="20"><g transform="translate(0, 0)"><g transform="translate(0, 0) rotate(0)"><path d="M10,0c-5.51378,0 -10,4.48622 -10,10c0,5.51378 4.48622,10 10,10c5.51378,0 10,-4.48622 10,-10c0,-5.51378 -4.48622,-10 -10,-10zM15.58897,7.36842l-6.39098,6.34085c-0.37594,0.37594 -0.97744,0.401 -1.37845,0.02506l-3.38346,-3.08271c-0.401,-0.37594 -0.42607,-1.00251 -0.07519,-1.40351c0.37594,-0.401 1.00251,-0.42607 1.40351,-0.05013l2.6817,2.45614l5.71429,-5.71429c0.401,-0.401 1.02757,-0.401 1.42857,0c0.401,0.401 0.401,1.02757 0,1.42857z" style="stroke-width: 0; stroke-linecap: butt; stroke-linejoin: miter; fill: rgb(90, 184, 86);" vector-effect="non-scaling-stroke"/></g><defs><path id="path-169471078473283746" d="M10,0c-5.51378,0 -10,4.48622 -10,10c0,5.51378 4.48622,10 10,10c5.51378,0 10,-4.48622 10,-10c0,-5.51378 -4.48622,-10 -10,-10zM15.58897,7.36842l-6.39098,6.34085c-0.37594,0.37594 -0.97744,0.401 -1.37845,0.02506l-3.38346,-3.08271c-0.401,-0.37594 -0.42607,-1.00251 -0.07519,-1.40351c0.37594,-0.401 1.00251,-0.42607 1.40351,-0.05013l2.6817,2.45614l5.71429,-5.71429c0.401,-0.401 1.02757,-0.401 1.42857,0c0.401,0.401 0.401,1.02757 0,1.42857z" vector-effect="non-scaling-stroke"/></defs></g></svg>