<svg version="1.2" xmlns="http://www.w3.org/2000/svg" xmlns:xlink="http://www.w3.org/1999/xlink" overflow="visible" preserveAspectRatio="none" viewBox="0 0 12 14" width="12" height="14"><g transform="translate(0, 0)"><g transform="translate(0, 0) rotate(0)"><path style="stroke-width: 0; stroke-linecap: butt; stroke-linejoin: miter; fill: rgb(255, 255, 255);" d="M6,6.36364c1.84093,0 3.33333,-1.42455 3.33333,-3.18182c0,-1.75727 -1.4924,-3.18182 -3.33333,-3.18182c-1.84095,0 -3.33333,1.42455 -3.33333,3.18182c0,1.75727 1.49239,3.18182 3.33333,3.18182zM4.66667,7.63636c-2.57733,0 -4.66667,1.99436 -4.66667,4.45455c0,1.05439 0.89543,1.90909 2,1.90909h8c1.1046,0 2,-0.8547 2,-1.90909c0,-2.46018 -2.08933,-4.45455 -4.66667,-4.45455z" vector-effect="non-scaling-stroke"/></g><defs><path id="path-1694725180668252" d="M6,6.36364c1.84093,0 3.33333,-1.42455 3.33333,-3.18182c0,-1.75727 -1.4924,-3.18182 -3.33333,-3.18182c-1.84095,0 -3.33333,1.42455 -3.33333,3.18182c0,1.75727 1.49239,3.18182 3.33333,3.18182zM4.66667,7.63636c-2.57733,0 -4.66667,1.99436 -4.66667,4.45455c0,1.05439 0.89543,1.90909 2,1.90909h8c1.1046,0 2,-0.8547 2,-1.90909c0,-2.46018 -2.08933,-4.45455 -4.66667,-4.45455z" vector-effect="non-scaling-stroke"/></defs></g></svg>