<svg version="1.2" xmlns="http://www.w3.org/2000/svg" xmlns:xlink="http://www.w3.org/1999/xlink" overflow="visible" preserveAspectRatio="none" viewBox="0 0 23 22.99999751336052" width="23" height="22.99999751336052"><g transform="translate(0, 0)"><g transform="translate(-4.440892098500626e-16, 0.0000025066802490925078) rotate(0)"><path d="M15.60631,8.59214l-2.94893,2.90786l2.94893,2.90786c0.16589,0.15531 0.26003,0.3724 0.26003,0.59964c0,0.22724 -0.09414,0.44433 -0.26003,0.59964c-0.15502,0.15376 -0.36488,0.23948 -0.58321,0.23821c-0.21549,-0.00091 -0.422,-0.08646 -0.575,-0.23821l-2.94893,-2.94893l-2.90786,2.94893c-0.153,0.15175 -0.35951,0.23731 -0.575,0.23821c-0.21834,0.00126 -0.4282,-0.08445 -0.58321,-0.23821c-0.31849,-0.32039 -0.31849,-0.83783 0,-1.15821l2.90786,-2.94893l-2.90786,-2.90786c-0.2791,-0.32591 -0.26034,-0.81173 0.04307,-1.11514c0.30341,-0.30341 0.78923,-0.32218 1.11514,-0.04307l2.90786,2.90786l2.90786,-2.90786c0.31983,-0.33117 0.84758,-0.34037 1.17875,-0.02054c0.33117,0.31983 0.34037,0.84758 0.02054,1.17875zM19.63131,19.63214c-4.49115,4.49069 -11.77233,4.49044 -16.26318,-0.00055c-4.49084,-4.491 -4.49084,-11.77218 0,-16.26318c4.49084,-4.491 11.77203,-4.49125 16.26318,-0.00055c2.15692,2.1567 3.36869,5.08195 3.36869,8.13214c0,3.05019 -1.21176,5.97544 -3.36869,8.13214zM18.4731,4.52607c-3.85298,-3.83962 -10.08795,-3.8324 -13.93203,0.01613c-3.84408,3.84853 -3.84408,10.08351 0,13.93204c3.84408,3.84853 10.07905,3.85575 13.93203,0.01613c1.85598,-1.84955 2.8992,-4.36194 2.8992,-6.98214c0,-2.62021 -1.04322,-5.1326 -2.8992,-6.98214z" style="stroke-width: 0; stroke-linecap: butt; stroke-linejoin: miter; fill: rgb(255, 87, 87);" vector-effect="non-scaling-stroke"/></g><defs><path id="path-169401381665816895" d="M15.60631,8.59214l-2.94893,2.90786l2.94893,2.90786c0.16589,0.15531 0.26003,0.3724 0.26003,0.59964c0,0.22724 -0.09414,0.44433 -0.26003,0.59964c-0.15502,0.15376 -0.36488,0.23948 -0.58321,0.23821c-0.21549,-0.00091 -0.422,-0.08646 -0.575,-0.23821l-2.94893,-2.94893l-2.90786,2.94893c-0.153,0.15175 -0.35951,0.23731 -0.575,0.23821c-0.21834,0.00126 -0.4282,-0.08445 -0.58321,-0.23821c-0.31849,-0.32039 -0.31849,-0.83783 0,-1.15821l2.90786,-2.94893l-2.90786,-2.90786c-0.2791,-0.32591 -0.26034,-0.81173 0.04307,-1.11514c0.30341,-0.30341 0.78923,-0.32218 1.11514,-0.04307l2.90786,2.90786l2.90786,-2.90786c0.31983,-0.33117 0.84758,-0.34037 1.17875,-0.02054c0.33117,0.31983 0.34037,0.84758 0.02054,1.17875zM19.63131,19.63214c-4.49115,4.49069 -11.77233,4.49044 -16.26318,-0.00055c-4.49084,-4.491 -4.49084,-11.77218 0,-16.26318c4.49084,-4.491 11.77203,-4.49125 16.26318,-0.00055c2.15692,2.1567 3.36869,5.08195 3.36869,8.13214c0,3.05019 -1.21176,5.97544 -3.36869,8.13214zM18.4731,4.52607c-3.85298,-3.83962 -10.08795,-3.8324 -13.93203,0.01613c-3.84408,3.84853 -3.84408,10.08351 0,13.93204c3.84408,3.84853 10.07905,3.85575 13.93203,0.01613c1.85598,-1.84955 2.8992,-4.36194 2.8992,-6.98214c0,-2.62021 -1.04322,-5.1326 -2.8992,-6.98214z" vector-effect="non-scaling-stroke"/></defs></g></svg>