<svg version="1.2" xmlns="http://www.w3.org/2000/svg" xmlns:xlink="http://www.w3.org/1999/xlink" overflow="visible" preserveAspectRatio="none" viewBox="0 0 12.99999 17" width="12.99999" height="17"><g transform="translate(0, 0)"><g transform="translate(-0.000009999999999843467, 0) rotate(0)"><path d="M13,4.25h-4.33333v-4.25zM13,5.3125v10.625c0,0.5865 -0.48533,1.0625 -1.08333,1.0625h-10.83333c-0.59692,0 -1.08333,-0.476 -1.08333,-1.0625v-14.875c0,-0.58544 0.48642,-1.0625 1.08333,-1.0625h6.5v4.25c0,0.58544 0.48642,1.0625 1.08333,1.0625zM4.33333,11.6875h-2.16667v3.1875h2.16667zM7.58333,9.5625h-2.16667v5.3125h2.16667zM10.83333,7.4375h-2.16667v7.4375h2.16667z" style="stroke-width: 0; stroke-linecap: butt; stroke-linejoin: miter; fill: rgb(126, 138, 145);" vector-effect="non-scaling-stroke"/></g><defs><path id="path-169401793226965643" d="M13,4.25h-4.33333v-4.25zM13,5.3125v10.625c0,0.5865 -0.48533,1.0625 -1.08333,1.0625h-10.83333c-0.59692,0 -1.08333,-0.476 -1.08333,-1.0625v-14.875c0,-0.58544 0.48642,-1.0625 1.08333,-1.0625h6.5v4.25c0,0.58544 0.48642,1.0625 1.08333,1.0625zM4.33333,11.6875h-2.16667v3.1875h2.16667zM7.58333,9.5625h-2.16667v5.3125h2.16667zM10.83333,7.4375h-2.16667v7.4375h2.16667z" vector-effect="non-scaling-stroke"/></defs></g></svg>