<svg version="1.2" xmlns="http://www.w3.org/2000/svg" xmlns:xlink="http://www.w3.org/1999/xlink" overflow="visible" preserveAspectRatio="none" viewBox="0 0 14 12" width="14" height="12"><g transform="translate(0, 0)"><g transform="translate(4.440892098500626e-16, 0) rotate(0)"><path style="stroke-width: 0; stroke-linecap: butt; stroke-linejoin: miter; fill: rgb(255, 255, 255);" d="M0,2.25c0,-1.24264 0.9402,-2.25 2.1,-2.25h9.8c1.15983,0 2.1,1.00736 2.1,2.25v0.9375h-14zM0,4.3125h14v5.4375c0,1.24267 -0.94017,2.25 -2.1,2.25h-9.8c-1.1598,0 -2.1,-1.00733 -2.1,-2.25zM2.1,6.9375c-0.28995,0 -0.525,0.25185 -0.525,0.5625c0,0.31065 0.23505,0.5625 0.525,0.5625h2.8c0.28995,0 0.525,-0.25185 0.525,-0.5625c0,-0.31065 -0.23505,-0.5625 -0.525,-0.5625z" vector-effect="non-scaling-stroke"/></g><defs><path id="path-1694725180676268" d="M0,2.25c0,-1.24264 0.9402,-2.25 2.1,-2.25h9.8c1.15983,0 2.1,1.00736 2.1,2.25v0.9375h-14zM0,4.3125h14v5.4375c0,1.24267 -0.94017,2.25 -2.1,2.25h-9.8c-1.1598,0 -2.1,-1.00733 -2.1,-2.25zM2.1,6.9375c-0.28995,0 -0.525,0.25185 -0.525,0.5625c0,0.31065 0.23505,0.5625 0.525,0.5625h2.8c0.28995,0 0.525,-0.25185 0.525,-0.5625c0,-0.31065 -0.23505,-0.5625 -0.525,-0.5625z" vector-effect="non-scaling-stroke"/></defs></g></svg>