<svg version="1.2" xmlns="http://www.w3.org/2000/svg" xmlns:xlink="http://www.w3.org/1999/xlink" overflow="visible" preserveAspectRatio="none" viewBox="0 0 21.5 21.5" width="21.5" height="21.5"><g transform="translate(0, 0)"><g transform="translate(0, 0) rotate(0)"><path d="M7.25,8.5c-0.9665,0 -1.75,-0.7835 -1.75,-1.75v-5c0,-0.9665 0.7835,-1.75 1.75,-1.75h7c0.9665,0 1.75,0.7835 1.75,1.75v5c0,0.9665 -0.7835,1.75 -1.75,1.75h-2.75v2.5h5.25c0.96423,0.00546 1.74454,0.78577 1.75,1.75v1.25h1.25c0.9665,0 1.75,0.7835 1.75,1.75v4c0,0.9665 -0.7835,1.75 -1.75,1.75h-4c-0.9665,0 -1.75,-0.7835 -1.75,-1.75v-4c0,-0.9665 0.7835,-1.75 1.75,-1.75h1.25v-1.25c0,-0.13807 -0.11193,-0.25 -0.25,-0.25h-12c-0.13807,0 -0.25,0.11193 -0.25,0.25v1.25h1.25c0.9665,0 1.75,0.7835 1.75,1.75v4c0,0.9665 -0.7835,1.75 -1.75,1.75h-4c-0.9665,0 -1.75,-0.7835 -1.75,-1.75v-4c0,-0.9665 0.7835,-1.75 1.75,-1.75h1.25v-1.25c0.00546,-0.96423 0.78577,-1.74454 1.75,-1.75h5.25v-2.5z" style="stroke-width: 0; stroke-linecap: butt; stroke-linejoin: miter; fill: rgb(55, 78, 179);" vector-effect="non-scaling-stroke"/></g><defs><path id="path-1695757847899529261" d="M7.25,8.5c-0.9665,0 -1.75,-0.7835 -1.75,-1.75v-5c0,-0.9665 0.7835,-1.75 1.75,-1.75h7c0.9665,0 1.75,0.7835 1.75,1.75v5c0,0.9665 -0.7835,1.75 -1.75,1.75h-2.75v2.5h5.25c0.96423,0.00546 1.74454,0.78577 1.75,1.75v1.25h1.25c0.9665,0 1.75,0.7835 1.75,1.75v4c0,0.9665 -0.7835,1.75 -1.75,1.75h-4c-0.9665,0 -1.75,-0.7835 -1.75,-1.75v-4c0,-0.9665 0.7835,-1.75 1.75,-1.75h1.25v-1.25c0,-0.13807 -0.11193,-0.25 -0.25,-0.25h-12c-0.13807,0 -0.25,0.11193 -0.25,0.25v1.25h1.25c0.9665,0 1.75,0.7835 1.75,1.75v4c0,0.9665 -0.7835,1.75 -1.75,1.75h-4c-0.9665,0 -1.75,-0.7835 -1.75,-1.75v-4c0,-0.9665 0.7835,-1.75 1.75,-1.75h1.25v-1.25c0.00546,-0.96423 0.78577,-1.74454 1.75,-1.75h5.25v-2.5z" vector-effect="non-scaling-stroke"/></defs></g></svg>