<svg version="1.2" xmlns="http://www.w3.org/2000/svg" xmlns:xlink="http://www.w3.org/1999/xlink" overflow="visible" preserveAspectRatio="none" viewBox="0 0 17.99999458411866 22.000006152621488" width="17.99999458411866" height="22.000006152621488"><g transform="translate(0, 0)"><g transform="translate(-0.000009999999999621423, 0.00000615262148657108) rotate(0)"><path d="M0.43816,6.00012c0.06582,-0.10729 0.13733,-0.21078 0.21421,-0.31l4.01158,-4.74c0.11839,-0.14498 0.25231,-0.27581 0.39921,-0.39v4.19c0,0.69036 -0.54492,1.25 -1.21711,1.25zM18,2.81406v16.372c0,1.55409 -1.19794,2.81394 -2.67567,2.81394h-12.64865c-1.47773,0 -2.67567,-1.25984 -2.67567,-2.81394v-11.51156h3.84324c1.47773,0 2.67567,-1.25984 2.67567,-2.81394v-4.86044h8.8054c0.70862,-0.00713 1.3897,0.28824 1.88757,0.8186c0.50563,0.52767 0.78943,1.24621 0.78811,1.99534zM10.41081,15.09306c0,-0.42384 -0.32671,-0.76744 -0.72973,-0.76744h-3.89189c-0.40302,0 -0.72973,0.34359 -0.72973,0.76744c0,0.42384 0.32671,0.76744 0.72973,0.76744h3.89189c0.40302,0 0.72973,-0.34359 0.72973,-0.76744zM14.3027,11.00006c0,-0.42384 -0.32671,-0.76744 -0.72973,-0.76744h-7.78378c-0.40302,0 -0.72973,0.34359 -0.72973,0.76744c0,0.42384 0.32671,0.76744 0.72973,0.76744h7.78378c0.40302,0 0.72973,-0.34359 0.72973,-0.76744z" style="stroke-width: 0; stroke-linecap: butt; stroke-linejoin: miter; fill: rgb(39, 135, 135);" vector-effect="non-scaling-stroke"/></g><defs><path id="path-1695757847900529265" d="M0.43816,6.00012c0.06582,-0.10729 0.13733,-0.21078 0.21421,-0.31l4.01158,-4.74c0.11839,-0.14498 0.25231,-0.27581 0.39921,-0.39v4.19c0,0.69036 -0.54492,1.25 -1.21711,1.25zM18,2.81406v16.372c0,1.55409 -1.19794,2.81394 -2.67567,2.81394h-12.64865c-1.47773,0 -2.67567,-1.25984 -2.67567,-2.81394v-11.51156h3.84324c1.47773,0 2.67567,-1.25984 2.67567,-2.81394v-4.86044h8.8054c0.70862,-0.00713 1.3897,0.28824 1.88757,0.8186c0.50563,0.52767 0.78943,1.24621 0.78811,1.99534zM10.41081,15.09306c0,-0.42384 -0.32671,-0.76744 -0.72973,-0.76744h-3.89189c-0.40302,0 -0.72973,0.34359 -0.72973,0.76744c0,0.42384 0.32671,0.76744 0.72973,0.76744h3.89189c0.40302,0 0.72973,-0.34359 0.72973,-0.76744zM14.3027,11.00006c0,-0.42384 -0.32671,-0.76744 -0.72973,-0.76744h-7.78378c-0.40302,0 -0.72973,0.34359 -0.72973,0.76744c0,0.42384 0.32671,0.76744 0.72973,0.76744h7.78378c0.40302,0 0.72973,-0.34359 0.72973,-0.76744z" vector-effect="non-scaling-stroke"/></defs></g></svg>