<svg version="1.2" xmlns="http://www.w3.org/2000/svg" xmlns:xlink="http://www.w3.org/1999/xlink" overflow="visible" preserveAspectRatio="none" viewBox="0 0 21 20.99999" width="21" height="20.99999"><g transform="translate(0, 0)"><g transform="translate(8.881784197001252e-16, -0.00001000000000095369) rotate(0)"><path style="stroke-width: 0; stroke-linecap: butt; stroke-linejoin: miter; fill: rgb(39, 135, 135);" d="M15,2.35714v8.28857l-5.19706,5.04c-0.35294,0.35143 -0.58235,0.78 -0.67059,1.26l-0.19412,1.05429h-6.51176c-1.34118,0 -2.42647,-1.05429 -2.42647,-2.35714v-13.28571c0,-1.30286 1.08529,-2.35714 2.42647,-2.35714h10.14706c1.34118,0 2.42647,1.05429 2.42647,2.35714zM2.64706,4.28571c0,0.47143 0.39706,0.85714 0.88235,0.85714h3.52941c0.48529,0 0.88235,-0.38571 0.88235,-0.85714c0,-0.47143 -0.39706,-0.85714 -0.88235,-0.85714h-3.52941c-0.48529,0 -0.88235,0.38571 -0.88235,0.85714zM8.82353,11.14286c0,-0.47143 -0.39706,-0.85714 -0.88235,-0.85714h-4.41176c-0.48529,0 -0.88235,0.38571 -0.88235,0.85714c0,0.47143 0.39706,0.85714 0.88235,0.85714h4.41176c0.48529,0 0.88235,-0.38571 0.88235,-0.85714zM12.35294,7.71429c0,-0.47143 -0.39706,-0.85714 -0.88235,-0.85714h-7.94118c-0.48529,0 -0.88235,0.38571 -0.88235,0.85714c0,0.47143 0.39706,0.85714 0.88235,0.85714h7.94118c0.48529,0 0.88235,-0.38571 0.88235,-0.85714zM10.67467,21c-0.17731,0 -0.35011,-0.06328 -0.47701,-0.17849c-0.1557,-0.14036 -0.22591,-0.33995 -0.18721,-0.53629l0.47701,-2.43807c0.0234,-0.12251 0.09,-0.2361 0.18721,-0.32454l6.6827,-6.02337c0.82082,-0.74156 1.62725,-0.54116 2.06826,-0.14361l1.11333,1.00362c0.61472,0.55333 0.61472,1.45392 0,2.00806l-6.6827,6.02418c-0.0972,0.08844 -0.22321,0.14766 -0.36001,0.16876l-2.70458,0.43001c-0.0387,0.00649 -0.0783,0.00974 -0.117,0.00974z" vector-effect="non-scaling-stroke"/></g><defs><path id="path-1696445701802425" d="M15,2.35714v8.28857l-5.19706,5.04c-0.35294,0.35143 -0.58235,0.78 -0.67059,1.26l-0.19412,1.05429h-6.51176c-1.34118,0 -2.42647,-1.05429 -2.42647,-2.35714v-13.28571c0,-1.30286 1.08529,-2.35714 2.42647,-2.35714h10.14706c1.34118,0 2.42647,1.05429 2.42647,2.35714zM2.64706,4.28571c0,0.47143 0.39706,0.85714 0.88235,0.85714h3.52941c0.48529,0 0.88235,-0.38571 0.88235,-0.85714c0,-0.47143 -0.39706,-0.85714 -0.88235,-0.85714h-3.52941c-0.48529,0 -0.88235,0.38571 -0.88235,0.85714zM8.82353,11.14286c0,-0.47143 -0.39706,-0.85714 -0.88235,-0.85714h-4.41176c-0.48529,0 -0.88235,0.38571 -0.88235,0.85714c0,0.47143 0.39706,0.85714 0.88235,0.85714h4.41176c0.48529,0 0.88235,-0.38571 0.88235,-0.85714zM12.35294,7.71429c0,-0.47143 -0.39706,-0.85714 -0.88235,-0.85714h-7.94118c-0.48529,0 -0.88235,0.38571 -0.88235,0.85714c0,0.47143 0.39706,0.85714 0.88235,0.85714h7.94118c0.48529,0 0.88235,-0.38571 0.88235,-0.85714zM10.67467,21c-0.17731,0 -0.35011,-0.06328 -0.47701,-0.17849c-0.1557,-0.14036 -0.22591,-0.33995 -0.18721,-0.53629l0.47701,-2.43807c0.0234,-0.12251 0.09,-0.2361 0.18721,-0.32454l6.6827,-6.02337c0.82082,-0.74156 1.62725,-0.54116 2.06826,-0.14361l1.11333,1.00362c0.61472,0.55333 0.61472,1.45392 0,2.00806l-6.6827,6.02418c-0.0972,0.08844 -0.22321,0.14766 -0.36001,0.16876l-2.70458,0.43001c-0.0387,0.00649 -0.0783,0.00974 -0.117,0.00974z" vector-effect="non-scaling-stroke"/></defs></g></svg>