<svg version="1.2" xmlns="http://www.w3.org/2000/svg" xmlns:xlink="http://www.w3.org/1999/xlink" overflow="visible" preserveAspectRatio="none" viewBox="0 0 15 12.00001" width="15" height="12.00001"><g transform="translate(0, 0)"><g transform="translate(-4.440892098500626e-16, 0) rotate(0)"><path d="M12.30643,4.52073c-0.195,-2.526 -2.27625,-4.52073 -4.80643,-4.52073c-2.16429,0 -4.02214,1.43127 -4.62161,3.51873c-1.71,0.60436 -2.87839,2.25382 -2.87839,4.11764c0,2.406 1.92268,4.36364 4.28571,4.36364h6.96429c2.06786,0 3.75,-1.71273 3.75,-3.81818c0,-1.71764 -1.10893,-3.192 -2.69357,-3.66109zM10.02161,7.47655l-2.14286,2.18182c-0.10446,0.10636 -0.24161,0.15982 -0.37875,0.15982c-0.13714,0 -0.27429,-0.05345 -0.37875,-0.15982l-2.14286,-2.18182c-0.15321,-0.156 -0.19929,-0.39055 -0.11625,-0.59455c0.08304,-0.20345 0.27857,-0.33655 0.495,-0.33655h1.07143v-2.18182c0,-0.60218 0.48,-1.09091 1.07143,-1.09091c0.59143,0 1.07143,0.48873 1.07143,1.09091v2.18182h1.07143c0.21643,0 0.41196,0.13309 0.495,0.33655c0.08304,0.204 0.03696,0.43855 -0.11625,0.59455z" style="stroke-width: 0; stroke-linecap: butt; stroke-linejoin: miter; fill: rgb(255, 255, 255);" vector-effect="non-scaling-stroke"/></g><defs><path id="path-1700265432298206422" d="M12.30643,4.52073c-0.195,-2.526 -2.27625,-4.52073 -4.80643,-4.52073c-2.16429,0 -4.02214,1.43127 -4.62161,3.51873c-1.71,0.60436 -2.87839,2.25382 -2.87839,4.11764c0,2.406 1.92268,4.36364 4.28571,4.36364h6.96429c2.06786,0 3.75,-1.71273 3.75,-3.81818c0,-1.71764 -1.10893,-3.192 -2.69357,-3.66109zM10.02161,7.47655l-2.14286,2.18182c-0.10446,0.10636 -0.24161,0.15982 -0.37875,0.15982c-0.13714,0 -0.27429,-0.05345 -0.37875,-0.15982l-2.14286,-2.18182c-0.15321,-0.156 -0.19929,-0.39055 -0.11625,-0.59455c0.08304,-0.20345 0.27857,-0.33655 0.495,-0.33655h1.07143v-2.18182c0,-0.60218 0.48,-1.09091 1.07143,-1.09091c0.59143,0 1.07143,0.48873 1.07143,1.09091v2.18182h1.07143c0.21643,0 0.41196,0.13309 0.495,0.33655c0.08304,0.204 0.03696,0.43855 -0.11625,0.59455z" vector-effect="non-scaling-stroke"/></defs></g></svg>