<svg version="1.2" xmlns="http://www.w3.org/2000/svg" xmlns:xlink="http://www.w3.org/1999/xlink" overflow="visible" preserveAspectRatio="none" viewBox="0 0 14.000002167458561 13.0000100813706" width="14.000002167458561" height="13.0000100813706"><g transform="translate(0, 0)"><g transform="translate(0, 0.000020081370599507015) rotate(0)"><path style="stroke-width: 0; stroke-linecap: butt; stroke-linejoin: miter; fill: rgb(255, 255, 255);" d="M0.59153,0c-0.32669,0 -0.59153,0.25306 -0.59153,0.56522c0,0.31216 0.26484,0.56522 0.59153,0.56522h1.05251c0.17663,0 0.33344,0.108 0.38928,0.26811l1.95028,5.5916c0.08661,0.24826 0.09762,0.51557 0.03119,0.76945l-0.16059,0.61489c-0.23563,0.9006 0.49805,1.79942 1.46959,1.79942h7.09839c0.32669,0 0.59153,-0.25306 0.59153,-0.56522c0,-0.31216 -0.26484,-0.56522 -0.59153,-0.56522h-7.09839c-0.23033,0 -0.3782,-0.18059 -0.32234,-0.39411l0.12111,-0.46218c0.04222,-0.16113 0.19376,-0.27415 0.3676,-0.27415h6.34049c0.2547,0.00013 0.48089,-0.15552 0.56149,-0.38638l1.57704,-4.52174c0.12775,-0.36614 -0.15757,-0.74423 -0.56149,-0.74406h-9.53038c-0.17663,0 -0.33344,-0.108 -0.3893,-0.26811l-0.56039,-1.60638c-0.0806,-0.23086 -0.3068,-0.38651 -0.56149,-0.38638zM4.73226,10.73913c-0.65339,0 -1.18307,0.50611 -1.18307,1.13043c0,0.62432 0.52968,1.13043 1.18307,1.13043c0.65339,0 1.18307,-0.50611 1.18307,-1.13043c0,-0.62432 -0.52968,-1.13043 -1.18307,-1.13043zM11.83066,10.73913c-0.65339,0 -1.18307,0.50611 -1.18307,1.13043c0,0.62432 0.52968,1.13043 1.18307,1.13043c0.65339,0 1.18307,-0.50611 1.18307,-1.13043c0,-0.62432 -0.52968,-1.13043 -1.18307,-1.13043z" vector-effect="non-scaling-stroke"/></g><defs><path id="path-1694725180677272" d="M0.59153,0c-0.32669,0 -0.59153,0.25306 -0.59153,0.56522c0,0.31216 0.26484,0.56522 0.59153,0.56522h1.05251c0.17663,0 0.33344,0.108 0.38928,0.26811l1.95028,5.5916c0.08661,0.24826 0.09762,0.51557 0.03119,0.76945l-0.16059,0.61489c-0.23563,0.9006 0.49805,1.79942 1.46959,1.79942h7.09839c0.32669,0 0.59153,-0.25306 0.59153,-0.56522c0,-0.31216 -0.26484,-0.56522 -0.59153,-0.56522h-7.09839c-0.23033,0 -0.3782,-0.18059 -0.32234,-0.39411l0.12111,-0.46218c0.04222,-0.16113 0.19376,-0.27415 0.3676,-0.27415h6.34049c0.2547,0.00013 0.48089,-0.15552 0.56149,-0.38638l1.57704,-4.52174c0.12775,-0.36614 -0.15757,-0.74423 -0.56149,-0.74406h-9.53038c-0.17663,0 -0.33344,-0.108 -0.3893,-0.26811l-0.56039,-1.60638c-0.0806,-0.23086 -0.3068,-0.38651 -0.56149,-0.38638zM4.73226,10.73913c-0.65339,0 -1.18307,0.50611 -1.18307,1.13043c0,0.62432 0.52968,1.13043 1.18307,1.13043c0.65339,0 1.18307,-0.50611 1.18307,-1.13043c0,-0.62432 -0.52968,-1.13043 -1.18307,-1.13043zM11.83066,10.73913c-0.65339,0 -1.18307,0.50611 -1.18307,1.13043c0,0.62432 0.52968,1.13043 1.18307,1.13043c0.65339,0 1.18307,-0.50611 1.18307,-1.13043c0,-0.62432 -0.52968,-1.13043 -1.18307,-1.13043z" vector-effect="non-scaling-stroke"/></defs></g></svg>