<svg version="1.2" xmlns="http://www.w3.org/2000/svg" xmlns:xlink="http://www.w3.org/1999/xlink" overflow="visible" preserveAspectRatio="none" viewBox="0 0 15 12" width="15" height="12"><g transform="translate(0, 0)"><g transform="translate(0, 2.220446049250313e-16) rotate(0)"><path style="stroke-width: 0; stroke-linecap: butt; stroke-linejoin: miter; fill: rgb(126, 138, 145);" d="M7.5,6.4045l-7.472,-4.835c0.13463,-0.90007 0.90642,-1.56691 1.8165,-1.5695h11.311c0.91008,0.00259 1.68187,0.66943 1.8165,1.5695zM15,2.7425v7.413c-0.0011,1.01823 -0.82627,1.8434 -1.8445,1.8445h-11.311c-1.01823,-0.0011 -1.8434,-0.82627 -1.8445,-1.8445v-7.4125l7.2285,4.677c0.16523,0.10684 0.37777,0.10684 0.543,0z" vector-effect="non-scaling-stroke"/></g><defs><path id="path-1694725180728364" d="M7.5,6.4045l-7.472,-4.835c0.13463,-0.90007 0.90642,-1.56691 1.8165,-1.5695h11.311c0.91008,0.00259 1.68187,0.66943 1.8165,1.5695zM15,2.7425v7.413c-0.0011,1.01823 -0.82627,1.8434 -1.8445,1.8445h-11.311c-1.01823,-0.0011 -1.8434,-0.82627 -1.8445,-1.8445v-7.4125l7.2285,4.677c0.16523,0.10684 0.37777,0.10684 0.543,0z" vector-effect="non-scaling-stroke"/></defs></g></svg>