<svg version="1.2" xmlns="http://www.w3.org/2000/svg" xmlns:xlink="http://www.w3.org/1999/xlink" overflow="visible" preserveAspectRatio="none" viewBox="0 0 15.000000000000002 11.999989999999999" width="15.000000000000002" height="11.999989999999999"><g transform="translate(0, 0)"><g transform="translate(-4.440892098500626e-16, 4.440892098500626e-16) rotate(0)"><path d="M9.05185,2.05964c0.69356,0.41339 1.1799,1.11293 1.26844,1.92493c0.28285,0.12564 0.59678,0.19789 0.92961,0.19789c1.21509,0 2.19993,-0.93622 2.19993,-2.09114c0,-1.1551 -0.98484,-2.09132 -2.19993,-2.09132c-1.20348,0.00036 -2.17971,0.91985 -2.19805,2.05964zM7.61063,6.34158c1.21509,0 2.19993,-0.9364 2.19993,-2.09132c0,-1.15492 -0.98502,-2.09114 -2.19993,-2.09114c-1.2149,0 -2.2003,0.9364 -2.2003,2.09132c0,1.15492 0.9854,2.09114 2.2003,2.09114zM8.5438,6.48412h-1.86672c-1.55316,0 -2.81674,1.20137 -2.81674,2.67786v2.17015l0.0058,0.03399l0.15724,0.0468c1.48222,0.44026 2.76994,0.58707 3.82984,0.58707c2.0702,0 3.27012,-0.56109 3.34407,-0.59686l0.14695,-0.07065h0.01572v-2.17051c0.00056,-1.47649 -1.26301,-2.67786 -2.81617,-2.67786zM12.18345,4.32518h-1.8523c-0.02003,0.70452 -0.33639,1.33893 -0.83677,1.7952c1.38057,0.39025 2.39068,1.60728 2.39068,3.0448v0.66875c1.8289,-0.06371 2.88282,-0.55646 2.95227,-0.58956l0.14695,-0.07083h0.01572v-2.17087c0,-1.47631 -1.26357,-2.6775 -2.81655,-2.6775zM3.75047,4.18282c0.43036,0 0.83077,-0.11941 1.16997,-0.32281c0.10782,-0.66857 0.48484,-1.2528 1.0234,-1.65071c0.00225,-0.03915 0.00618,-0.07794 0.00618,-0.11745c0,-1.1551 -0.98502,-2.09132 -2.19955,-2.09132c-1.21528,0 -2.19993,0.93622 -2.19993,2.09132c0,1.15457 0.98465,2.09096 2.19993,2.09096zM5.72613,6.12039c-0.49794,-0.45396 -0.81318,-1.08499 -0.8362,-1.78524c-0.0687,-0.0048 -0.13665,-0.00997 -0.20666,-0.00997h-1.86653c-1.55316,0 -2.81674,1.20119 -2.81674,2.6775v2.17051l0.0058,0.03346l0.15724,0.04716c1.18907,0.35288 2.25028,0.51553 3.17203,0.56678v-0.65541c0.00037,-1.43752 1.01011,-2.65419 2.39105,-3.0448z" style="stroke-width: 0; stroke-linecap: butt; stroke-linejoin: miter; fill: rgb(126, 138, 145);" vector-effect="non-scaling-stroke"/></g><defs><path id="path-1694198547516193968" d="M9.05185,2.05964c0.69356,0.41339 1.1799,1.11293 1.26844,1.92493c0.28285,0.12564 0.59678,0.19789 0.92961,0.19789c1.21509,0 2.19993,-0.93622 2.19993,-2.09114c0,-1.1551 -0.98484,-2.09132 -2.19993,-2.09132c-1.20348,0.00036 -2.17971,0.91985 -2.19805,2.05964zM7.61063,6.34158c1.21509,0 2.19993,-0.9364 2.19993,-2.09132c0,-1.15492 -0.98502,-2.09114 -2.19993,-2.09114c-1.2149,0 -2.2003,0.9364 -2.2003,2.09132c0,1.15492 0.9854,2.09114 2.2003,2.09114zM8.5438,6.48412h-1.86672c-1.55316,0 -2.81674,1.20137 -2.81674,2.67786v2.17015l0.0058,0.03399l0.15724,0.0468c1.48222,0.44026 2.76994,0.58707 3.82984,0.58707c2.0702,0 3.27012,-0.56109 3.34407,-0.59686l0.14695,-0.07065h0.01572v-2.17051c0.00056,-1.47649 -1.26301,-2.67786 -2.81617,-2.67786zM12.18345,4.32518h-1.8523c-0.02003,0.70452 -0.33639,1.33893 -0.83677,1.7952c1.38057,0.39025 2.39068,1.60728 2.39068,3.0448v0.66875c1.8289,-0.06371 2.88282,-0.55646 2.95227,-0.58956l0.14695,-0.07083h0.01572v-2.17087c0,-1.47631 -1.26357,-2.6775 -2.81655,-2.6775zM3.75047,4.18282c0.43036,0 0.83077,-0.11941 1.16997,-0.32281c0.10782,-0.66857 0.48484,-1.2528 1.0234,-1.65071c0.00225,-0.03915 0.00618,-0.07794 0.00618,-0.11745c0,-1.1551 -0.98502,-2.09132 -2.19955,-2.09132c-1.21528,0 -2.19993,0.93622 -2.19993,2.09132c0,1.15457 0.98465,2.09096 2.19993,2.09096zM5.72613,6.12039c-0.49794,-0.45396 -0.81318,-1.08499 -0.8362,-1.78524c-0.0687,-0.0048 -0.13665,-0.00997 -0.20666,-0.00997h-1.86653c-1.55316,0 -2.81674,1.20119 -2.81674,2.6775v2.17051l0.0058,0.03346l0.15724,0.04716c1.18907,0.35288 2.25028,0.51553 3.17203,0.56678v-0.65541c0.00037,-1.43752 1.01011,-2.65419 2.39105,-3.0448z" vector-effect="non-scaling-stroke"/></defs></g></svg>