<svg height="28" overflow="visible" viewBox="0 0 30 28" width="30" xmlns="http://www.w3.org/2000/svg"><g><defs><path id="path-16928113651365312" d="M29.0625 25.19950977802176 C29.0625 25.19950977802176 15.9375 25.19950977802176 15.9375 25.19950977802176 C15.42 25.19950977802176 15 24.781395225177366 15 24.266218365422667 C15 23.751041505667963 15 6.115566973195442 15 5.600390113440741 C15 5.08521325368604 15.42 4.6670987008416445 15.9375 4.6670987008416445 C15.9375 4.6670987008416445 29.0625 4.6670987008416445 29.0625 4.6670987008416445 C29.58 4.6670987008416445 30 5.08521325368604 30 5.600390113440741 C30 5.600390113440741 30 24.266218365422667 30 24.266218365422667 C30 24.781395225177366 29.58 25.19950977802176 29.0625 25.19950977802176 Z" vector-effect="non-scaling-stroke"/></defs> <path d="M29.0625 24.266834349603613 C29.0625 24.266834349603613 15.9375 24.266834349603613 15.9375 24.266834349603613 C15.420000000000073 24.266834349603613 15 23.848719796759212 15 23.333542937004523 C15 22.818366077249806 15 5.182891544777291 15 4.667714685022588 C15 4.152537825267885 15.420000000000073 3.7344232724234985 15.9375 3.7344232724234985 C15.9375 3.7344232724234985 29.0625 3.7344232724234985 29.0625 3.7344232724234985 C29.579999999999927 3.7344232724234985 30 4.152537825267885 30 4.667714685022588 C30 4.667714685022588 30 23.333542937004523 30 23.333542937004523 C30 23.848719796759212 29.579999999999927 24.266834349603613 29.0625 24.266834349603613 Z" style="stroke-width: 0; stroke-linecap: butt; stroke-linejoin: miter; fill: rgb(236, 239, 241);" vector-effect="non-scaling-stroke"/></g><g><defs><path id="path-16928113651375314" d="M19.25 11.0006875 C19.25 11.0006875 15.583333333333332 11.0006875 15.583333333333332 11.0006875 C15.077333333333334 11.0006875 14.666666666666666 10.5526875 14.666666666666666 10.0006875 C14.666666666666666 9.4486875 15.077333333333334 9.0006875 15.583333333333332 9.0006875 C15.583333333333332 9.0006875 19.25 9.0006875 19.25 9.0006875 C19.756 9.0006875 20.166666666666664 9.4486875 20.166666666666664 10.0006875 C20.166666666666664 10.5526875 19.756 11.0006875 19.25 11.0006875 Z" vector-effect="non-scaling-stroke"/></defs> <path d="M19.583333333333258 9 C19.583333333333258 9 15.916666666666515 9 15.916666666666515 9 C15.410666666666657 9 15 8.551999999999992 15 8 C15 7.4480000000000075 15.410666666666657 7 15.916666666666515 7 C15.916666666666515 7 19.583333333333258 7 19.583333333333258 7 C20.089333333333343 7 20.5 7.4480000000000075 20.5 8 C20.5 8.551999999999992 20.089333333333343 9 19.583333333333258 9 Z" style="stroke-width: 0; stroke-linecap: butt; stroke-linejoin: miter; fill: rgb(56, 142, 60);" vector-effect="non-scaling-stroke"/></g><g><defs><path id="path-16928113651375316" d="M19.25 15.0006875 C19.25 15.0006875 15.583333333333332 15.0006875 15.583333333333332 15.0006875 C15.077333333333334 15.0006875 14.666666666666666 14.5526875 14.666666666666666 14.0006875 C14.666666666666666 13.4486875 15.077333333333334 13.0006875 15.583333333333332 13.0006875 C15.583333333333332 13.0006875 19.25 13.0006875 19.25 13.0006875 C19.756 13.0006875 20.166666666666664 13.4486875 20.166666666666664 14.0006875 C20.166666666666664 14.5526875 19.756 15.0006875 19.25 15.0006875 Z" vector-effect="non-scaling-stroke"/></defs> <path d="M19.583333333333258 13 C19.583333333333258 13 15.916666666666515 13 15.916666666666515 13 C15.410666666666657 13 15 12.551999999999992 15 12 C15 11.448000000000008 15.410666666666657 11 15.916666666666515 11 C15.916666666666515 11 19.583333333333258 11 19.583333333333258 11 C20.089333333333343 11 20.5 11.448000000000008 20.5 12 C20.5 12.551999999999992 20.089333333333343 13 19.583333333333258 13 Z" style="stroke-width: 0; stroke-linecap: butt; stroke-linejoin: miter; fill: rgb(56, 142, 60);" vector-effect="non-scaling-stroke"/></g><g><defs><path id="path-16928113651375318" d="M19.25 19.0006875 C19.25 19.0006875 15.583333333333332 19.0006875 15.583333333333332 19.0006875 C15.077333333333334 19.0006875 14.666666666666666 18.5526875 14.666666666666666 18.0006875 C14.666666666666666 17.448687500000002 15.077333333333334 17.0006875 15.583333333333332 17.0006875 C15.583333333333332 17.0006875 19.25 17.0006875 19.25 17.0006875 C19.756 17.0006875 20.166666666666664 17.448687500000002 20.166666666666664 18.0006875 C20.166666666666664 18.5526875 19.756 19.0006875 19.25 19.0006875 Z" vector-effect="non-scaling-stroke"/></defs> <path d="M19.583333333333258 17 C19.583333333333258 17 15.916666666666515 17 15.916666666666515 17 C15.410666666666657 17 15 16.551999999999992 15 16 C15 15.448000000000008 15.410666666666657 15 15.916666666666515 15 C15.916666666666515 15 19.583333333333258 15 19.583333333333258 15 C20.089333333333343 15 20.5 15.448000000000008 20.5 16 C20.5 16.551999999999992 20.089333333333343 17 19.583333333333258 17 Z" style="stroke-width: 0; stroke-linecap: butt; stroke-linejoin: miter; fill: rgb(56, 142, 60);" vector-effect="non-scaling-stroke"/></g><g><defs><path id="path-16928113651375320" d="M19.25 23.0006875 C19.25 23.0006875 15.583333333333332 23.0006875 15.583333333333332 23.0006875 C15.077333333333334 23.0006875 14.666666666666666 22.5526875 14.666666666666666 22.0006875 C14.666666666666666 21.448687500000002 15.077333333333334 21.0006875 15.583333333333332 21.0006875 C15.583333333333332 21.0006875 19.25 21.0006875 19.25 21.0006875 C19.756 21.0006875 20.166666666666664 21.448687500000002 20.166666666666664 22.0006875 C20.166666666666664 22.5526875 19.756 23.0006875 19.25 23.0006875 Z" vector-effect="non-scaling-stroke"/></defs> <path d="M19.583333333333258 21 C19.583333333333258 21 15.916666666666515 21 15.916666666666515 21 C15.410666666666657 21 15 20.551999999999992 15 20 C15 19.448000000000008 15.410666666666657 19 15.916666666666515 19 C15.916666666666515 19 19.583333333333258 19 19.583333333333258 19 C20.089333333333343 19 20.5 19.448000000000008 20.5 20 C20.5 20.551999999999992 20.089333333333343 21 19.583333333333258 21 Z" style="stroke-width: 0; stroke-linecap: butt; stroke-linejoin: miter; fill: rgb(56, 142, 60);" vector-effect="non-scaling-stroke"/></g><g><defs><path id="path-16928113651375322" d="M24.749999999999744 11.0006875 C24.749999999999744 11.0006875 22.91666666666643 11.0006875 22.91666666666643 11.0006875 C22.410666666666437 11.0006875 21.999999999999773 10.5526875 21.999999999999773 10.0006875 C21.999999999999773 9.4486875 22.410666666666437 9.0006875 22.91666666666643 9.0006875 C22.91666666666643 9.0006875 24.749999999999744 9.0006875 24.749999999999744 9.0006875 C25.255999999999737 9.0006875 25.6666666666664 9.4486875 25.6666666666664 10.0006875 C25.6666666666664 10.5526875 25.255999999999737 11.0006875 24.749999999999744 11.0006875 Z" vector-effect="non-scaling-stroke"/></defs> <path d="M25.083333333333485 9 C25.083333333333485 9 23.250000000000227 9 23.250000000000227 9 C22.744000000000142 9 22.333333333333485 8.551999999999992 22.333333333333485 8 C22.333333333333485 7.4480000000000075 22.744000000000142 7 23.250000000000227 7 C23.250000000000227 7 25.083333333333485 7 25.083333333333485 7 C25.589333333333343 7 26 7.4480000000000075 26 8 C26 8.551999999999992 25.589333333333343 9 25.083333333333485 9 Z" style="stroke-width: 0; stroke-linecap: butt; stroke-linejoin: miter; fill: rgb(56, 142, 60);" vector-effect="non-scaling-stroke"/></g><g><defs><path id="path-16928113651375324" d="M24.749999999999744 15.0006875 C24.749999999999744 15.0006875 22.91666666666643 15.0006875 22.91666666666643 15.0006875 C22.410666666666437 15.0006875 21.999999999999773 14.5526875 21.999999999999773 14.0006875 C21.999999999999773 13.4486875 22.410666666666437 13.0006875 22.91666666666643 13.0006875 C22.91666666666643 13.0006875 24.749999999999744 13.0006875 24.749999999999744 13.0006875 C25.255999999999737 13.0006875 25.6666666666664 13.4486875 25.6666666666664 14.0006875 C25.6666666666664 14.5526875 25.255999999999737 15.0006875 24.749999999999744 15.0006875 Z" vector-effect="non-scaling-stroke"/></defs> <path d="M25.083333333333485 13 C25.083333333333485 13 23.250000000000227 13 23.250000000000227 13 C22.744000000000142 13 22.333333333333485 12.551999999999992 22.333333333333485 12 C22.333333333333485 11.448000000000008 22.744000000000142 11 23.250000000000227 11 C23.250000000000227 11 25.083333333333485 11 25.083333333333485 11 C25.589333333333343 11 26 11.448000000000008 26 12 C26 12.551999999999992 25.589333333333343 13 25.083333333333485 13 Z" style="stroke-width: 0; stroke-linecap: butt; stroke-linejoin: miter; fill: rgb(56, 142, 60);" vector-effect="non-scaling-stroke"/></g><g><defs><path id="path-16928113651385326" d="M24.749999999999744 19.0006875 C24.749999999999744 19.0006875 22.91666666666643 19.0006875 22.91666666666643 19.0006875 C22.410666666666437 19.0006875 21.999999999999773 18.5526875 21.999999999999773 18.0006875 C21.999999999999773 17.448687500000002 22.410666666666437 17.0006875 22.91666666666643 17.0006875 C22.91666666666643 17.0006875 24.749999999999744 17.0006875 24.749999999999744 17.0006875 C25.255999999999737 17.0006875 25.6666666666664 17.448687500000002 25.6666666666664 18.0006875 C25.6666666666664 18.5526875 25.255999999999737 19.0006875 24.749999999999744 19.0006875 Z" vector-effect="non-scaling-stroke"/></defs> <path d="M25.083333333333485 17 C25.083333333333485 17 23.250000000000227 17 23.250000000000227 17 C22.744000000000142 17 22.333333333333485 16.551999999999992 22.333333333333485 16 C22.333333333333485 15.448000000000008 22.744000000000142 15 23.250000000000227 15 C23.250000000000227 15 25.083333333333485 15 25.083333333333485 15 C25.589333333333343 15 26 15.448000000000008 26 16 C26 16.551999999999992 25.589333333333343 17 25.083333333333485 17 Z" style="stroke-width: 0; stroke-linecap: butt; stroke-linejoin: miter; fill: rgb(56, 142, 60);" vector-effect="non-scaling-stroke"/></g><g><defs><path id="path-16928113651385328" d="M24.749999999999744 23.0006875 C24.749999999999744 23.0006875 22.91666666666643 23.0006875 22.91666666666643 23.0006875 C22.410666666666437 23.0006875 21.999999999999773 22.5526875 21.999999999999773 22.0006875 C21.999999999999773 21.448687500000002 22.410666666666437 21.0006875 22.91666666666643 21.0006875 C22.91666666666643 21.0006875 24.749999999999744 21.0006875 24.749999999999744 21.0006875 C25.255999999999737 21.0006875 25.6666666666664 21.448687500000002 25.6666666666664 22.0006875 C25.6666666666664 22.5526875 25.255999999999737 23.0006875 24.749999999999744 23.0006875 Z" vector-effect="non-scaling-stroke"/></defs> <path d="M25.083333333333485 21 C25.083333333333485 21 23.250000000000227 21 23.250000000000227 21 C22.744000000000142 21 22.333333333333485 20.551999999999992 22.333333333333485 20 C22.333333333333485 19.448000000000008 22.744000000000142 19 23.250000000000227 19 C23.250000000000227 19 25.083333333333485 19 25.083333333333485 19 C25.589333333333343 19 26 19.448000000000008 26 20 C26 20.551999999999992 25.589333333333343 21 25.083333333333485 21 Z" style="stroke-width: 0; stroke-linecap: butt; stroke-linejoin: miter; fill: rgb(56, 142, 60);" vector-effect="non-scaling-stroke"/></g><g><defs><path id="path-16928113651385330" d="M16.535625000000003 1.148590075343051 C16.321875 0.9712647069492226 16.035000000000004 0.8947348111160967 15.765000000000002 0.9507322958720424 C15.765000000000002 0.9507322958720424 0.7650000000000023 3.7506065336693335 0.7650000000000023 3.7506065336693335 C0.32062500000000005 3.8327361779780533 0 4.217252239968882 0 4.667098700841646 C0 4.667098700841646 0 25.199509778021774 0 25.199509778021774 C0 25.647489656069343 0.32062500000000005 26.033872300885367 0.7649999999999999 26.11600194519409 C0.7649999999999999 26.11600194519409 15.764999999999999 28.91587618299138 15.764999999999999 28.91587618299138 C15.821249999999997 28.92707567994257 15.879375 28.932675428418165 15.9375 28.932675428418165 C16.155 28.932675428418165 16.366875 28.858012115410236 16.535625000000003 28.71801840352037 C16.751250000000002 28.54069303512654 16.875 28.2756382739484 16.875 27.999384015819064 C16.875 27.999384015819064 16.875 1.8672244630443537 16.875 1.8672244630443537 C16.875 1.5891036220898247 16.75125 1.3259154437368796 16.535625000000003 1.148590075343051 Z" vector-effect="non-scaling-stroke"/></defs> <path d="M16.535624999999982 0.2159146469248867 C16.32187500000009 0.03858927853106309 16.035000000000082 -0.03794061730206977 15.7650000000001 0.018056867453879022 C15.7650000000001 0.018056867453879022 0.7650000000001 2.817931105251162 0.7650000000001 2.817931105251162 C0.32062500000006366 2.9000607495598842 0 3.2845768115507212 0 3.7344232724234843 C0 3.7344232724234843 0 24.266834349603613 0 24.266834349603613 C0 24.714814227651175 0.32062500000006366 25.1011968724672 0.7650000000001 25.183326516775935 C0.7650000000001 25.183326516775935 15.7650000000001 27.983200754573204 15.7650000000001 27.983200754573204 C15.821249999999964 27.99440025152441 15.879374999999982 28 15.9375 28 C16.154999999999973 28 16.366874999999936 27.92533668699207 16.535624999999982 27.785342975102196 C16.751250000000027 27.608017606708387 16.875 27.342962845530224 16.875 27.06670858740091 C16.875 27.06670858740091 16.875 0.9345490346261869 16.875 0.9345490346261869 C16.875 0.6564281936716583 16.751250000000027 0.39324001531871033 16.535624999999982 0.2159146469248867 Z" style="stroke-width: 0; stroke-linecap: butt; stroke-linejoin: miter; fill: rgb(46, 125, 50);" vector-effect="non-scaling-stroke"/></g><g><defs><path id="path-16928113651385332" d="M12.89249999999987 18.0523641403379 C12.89249999999987 18.0523641403379 9.9281249999999 14.679448975204762 9.9281249999999 14.679448975204762 C9.9281249999999 14.679448975204762 12.92624999999987 10.841754686597275 12.92624999999987 10.841754686597275 C13.244999999999866 10.434839630704067 13.169999999999867 9.848732623591834 12.763124999999873 9.531413543308142 C12.356249999999877 9.214094463024448 11.767499999999883 9.288757776032377 11.446874999999885 9.693806249100383 C11.446874999999885 9.693806249100383 8.669999999999913 13.247779948277746 8.669999999999913 13.247779948277746 C8.669999999999913 13.247779948277746 6.329999999999937 10.58603283954512 6.329999999999937 10.58603283954512 C5.986874999999941 10.194050446253499 5.394374999999946 10.158585372574734 5.00812499999995 10.498303446760806 C4.618124999999954 10.838021520946878 4.578749999999954 11.427861693709508 4.919999999999951 11.814244338525533 C4.919999999999951 11.814244338525533 7.498124999999924 14.748512539737096 7.498124999999924 14.748512539737096 C7.498124999999924 14.748512539737096 4.884374999999951 18.09342896249226 4.884374999999951 18.09342896249226 C4.5656249999999545 18.500344018385466 4.640624999999954 19.0864510254977 5.04749999999995 19.403770105781394 C5.219999999999948 19.536297486370465 5.424374999999946 19.599761302427204 5.624999999999943 19.599761302427204 C5.90437499999994 19.599761302427204 6.1799999999999375 19.47656683596412 6.365624999999936 19.239510817163954 C6.365624999999936 19.239510817163954 8.756249999999913 16.178314983838913 8.756249999999913 16.178314983838913 C8.756249999999913 16.178314983838913 11.482499999999884 19.278709056493113 11.482499999999884 19.278709056493113 C11.668124999999883 19.49149949856571 11.92687499999988 19.599761302427204 12.187499999999877 19.599761302427204 C12.406874999999875 19.599761302427204 12.626249999999873 19.52323140659408 12.80437499999987 19.368305032102626 C13.194374999999868 19.028586957916556 13.233749999999867 18.438746785153928 12.89249999999987 18.0523641403379 Z" vector-effect="non-scaling-stroke"/></defs> <path d="M12.892500000000155 17.119688711919764 C12.892500000000155 17.119688711919764 9.928125000000136 13.746773546786613 9.928125000000136 13.746773546786613 C9.928125000000136 13.746773546786613 12.92625000000021 9.909079258179133 12.92625000000021 9.909079258179133 C13.245000000000118 9.502164202285911 13.170000000000073 8.916057195173693 12.763125000000173 8.598738114889983 C12.356250000000045 8.281419034606301 11.767500000000155 8.356082347614233 11.446875000000091 8.76113082068224 C11.446875000000091 8.76113082068224 8.670000000000073 12.315104519859602 8.670000000000073 12.315104519859602 C8.670000000000073 12.315104519859602 6.330000000000155 9.653357411126962 6.330000000000155 9.653357411126962 C5.986875000000055 9.261375017835348 5.394375000000082 9.22590994415657 5.008125000000291 9.565628018342665 C4.618125000000191 9.905346092528731 4.578750000000127 10.495186265291352 4.920000000000073 10.881568910107376 C4.920000000000073 10.881568910107376 7.498125000000073 13.815837111318956 7.498125000000073 13.815837111318956 C7.498125000000073 13.815837111318956 4.884375000000091 17.160753534074104 4.884375000000091 17.160753534074104 C4.565625000000182 17.567668589967326 4.640625000000227 18.153775597079544 5.047500000000127 18.471094677363254 C5.220000000000255 18.60362205795232 5.424375000000282 18.667085874009047 5.625000000000227 18.667085874009047 C5.904375000000073 18.667085874009047 6.180000000000064 18.54389140754597 6.365625000000136 18.30683538874581 C6.365625000000136 18.30683538874581 8.756250000000136 15.245639555420752 8.756250000000136 15.245639555420752 C8.756250000000136 15.245639555420752 11.482500000000073 18.346033628074963 11.482500000000073 18.346033628074963 C11.668125000000146 18.55882407014755 11.92687500000011 18.667085874009047 12.1875 18.667085874009047 C12.406875000000127 18.667085874009047 12.626250000000027 18.590555978175928 12.804375000000164 18.435629603684475 C13.194375000000036 18.09591152949841 13.2337500000001 17.506071356735788 12.892500000000155 17.119688711919764 Z" style="stroke-width: 0; stroke-linecap: butt; stroke-linejoin: miter; fill: rgb(250, 250, 250);" vector-effect="non-scaling-stroke"/></g></svg>