<svg version="1.2" xmlns="http://www.w3.org/2000/svg" xmlns:xlink="http://www.w3.org/1999/xlink" overflow="visible" preserveAspectRatio="none" viewBox="0 0 19.999989999999997 19.999995" width="19.999989999999997" height="19.999995"><g transform="translate(0, 0)"><g transform="translate(-0.000010000000004506404, 0.000004999999999977245) rotate(0)"><path style="stroke-width: 0; stroke-linecap: butt; stroke-linejoin: miter; fill: rgb(65, 150, 99);" d="M17.44186,6.83261l-7.79535,7.79807c-0.26977,0.26986 -0.62326,0.43736 -1.00465,0.47458l-2.72558,0.25125c0,0 -0.07442,0 -0.10233,0c-0.30698,0 -0.60465,-0.12097 -0.8186,-0.34431c-0.24186,-0.24194 -0.36279,-0.58625 -0.33488,-0.93056l0.25116,-2.72653c0.03721,-0.38153 0.20465,-0.73514 0.47442,-1.005l7.77674,-7.79807zM19.24651,1.40747l-0.66047,-0.6607c-0.99535,-0.9957 -2.62326,-0.9957 -3.6186,0l-0.8186,0.81889l4.27907,4.28056l0.8186,-0.81889c0.48372,-0.48389 0.75349,-1.12597 0.75349,-1.80528c0,-0.67931 -0.26977,-1.3307 -0.75349,-1.80528zM18.13953,16.51971v-5.40653c0,-0.38153 -0.31628,-0.69792 -0.69767,-0.69792c-0.3814,0 -0.69767,0.31639 -0.69767,0.69792v5.40653c0,1.15389 -0.93953,2.09375 -2.09302,2.09375h-11.16279c-1.15349,0 -2.09302,-0.93986 -2.09302,-2.09375v-11.17599c0,-1.15389 0.93953,-2.09375 2.09302,-2.09375h5.40465c0.3814,0 0.69767,-0.31639 0.69767,-0.69792c0,-0.38153 -0.31628,-0.69792 -0.69767,-0.69792h-5.40465c-1.92558,0 -3.48837,1.56334 -3.48837,3.48959v11.16668c0,1.92625 1.56279,3.48959 3.48837,3.48959h11.16279c1.92558,0 3.48837,-1.56334 3.48837,-3.48959z" vector-effect="non-scaling-stroke"/></g><defs><path id="path-1696445701804433" d="M17.44186,6.83261l-7.79535,7.79807c-0.26977,0.26986 -0.62326,0.43736 -1.00465,0.47458l-2.72558,0.25125c0,0 -0.07442,0 -0.10233,0c-0.30698,0 -0.60465,-0.12097 -0.8186,-0.34431c-0.24186,-0.24194 -0.36279,-0.58625 -0.33488,-0.93056l0.25116,-2.72653c0.03721,-0.38153 0.20465,-0.73514 0.47442,-1.005l7.77674,-7.79807zM19.24651,1.40747l-0.66047,-0.6607c-0.99535,-0.9957 -2.62326,-0.9957 -3.6186,0l-0.8186,0.81889l4.27907,4.28056l0.8186,-0.81889c0.48372,-0.48389 0.75349,-1.12597 0.75349,-1.80528c0,-0.67931 -0.26977,-1.3307 -0.75349,-1.80528zM18.13953,16.51971v-5.40653c0,-0.38153 -0.31628,-0.69792 -0.69767,-0.69792c-0.3814,0 -0.69767,0.31639 -0.69767,0.69792v5.40653c0,1.15389 -0.93953,2.09375 -2.09302,2.09375h-11.16279c-1.15349,0 -2.09302,-0.93986 -2.09302,-2.09375v-11.17599c0,-1.15389 0.93953,-2.09375 2.09302,-2.09375h5.40465c0.3814,0 0.69767,-0.31639 0.69767,-0.69792c0,-0.38153 -0.31628,-0.69792 -0.69767,-0.69792h-5.40465c-1.92558,0 -3.48837,1.56334 -3.48837,3.48959v11.16668c0,1.92625 1.56279,3.48959 3.48837,3.48959h11.16279c1.92558,0 3.48837,-1.56334 3.48837,-3.48959z" vector-effect="non-scaling-stroke"/></defs></g></svg>