<svg version="1.2" xmlns="http://www.w3.org/2000/svg" xmlns:xlink="http://www.w3.org/1999/xlink" overflow="visible" preserveAspectRatio="none" viewBox="0 0 14.99998685402791 15.00001330939697" width="14.99998685402791" height="15.00001330939697"><g transform="translate(0, 0)"><g transform="translate(-0.000016455369064057382, 0.0000033093969720801586) rotate(0)"><path d="M14.41807,8.40223l-0.43915,-0.1749c-0.08642,-0.03398 -0.13623,-0.10722 -0.13623,-0.20009v-1.05466c0,-0.09316 0.04951,-0.16611 0.13711,-0.20068l0.43856,-0.17431c0.23203,-0.09228 0.41278,-0.26894 0.50917,-0.49715c0.09609,-0.22792 0.09668,-0.47958 0.00146,-0.70897l-0.68494,-1.65318c-0.09551,-0.23056 -0.2745,-0.40868 -0.50419,-0.50184c-0.22939,-0.09287 -0.48163,-0.08935 -0.70985,0.00937l-0.43446,0.1872c-0.08467,0.03691 -0.17109,0.02021 -0.23701,-0.0457l-0.74559,-0.74559c-0.06592,-0.06592 -0.08262,-0.15234 -0.04541,-0.23818l0.18662,-0.4327c0.09902,-0.2288 0.10254,-0.48104 0.00967,-0.71043c-0.09287,-0.22968 -0.27128,-0.40868 -0.50184,-0.50419l-1.65347,-0.68494c-0.22939,-0.09521 -0.48134,-0.09492 -0.70926,0.00117c-0.22851,0.09638 -0.40487,0.27714 -0.49716,0.50917l-0.17461,0.43915c-0.03428,0.08642 -0.10722,0.13623 -0.20009,0.13623h-1.05466c-0.09316,0 -0.16611,-0.04951 -0.20039,-0.13711l-0.17431,-0.43856c-0.09228,-0.23173 -0.26865,-0.41249 -0.49657,-0.50887c-0.22763,-0.09609 -0.47958,-0.09668 -0.70955,-0.00146l-1.65377,0.68524c-0.22997,0.09521 -0.4078,0.27392 -0.50096,0.50272c-0.09316,0.22939 -0.09023,0.48192 0.00879,0.7116l0.1875,0.433c0.03691,0.08554 0.02021,0.17197 -0.04629,0.23847l-0.74412,0.745c-0.0668,0.06621 -0.1538,0.0832 -0.23964,0.04599l-0.4327,-0.18662c-0.2288,-0.09902 -0.48104,-0.10254 -0.71043,-0.00967c-0.22968,0.09287 -0.40868,0.27128 -0.50419,0.50155l-0.68494,1.65289c-0.09521,0.22968 -0.09492,0.48133 0.00117,0.70926c0.09638,0.22851 0.27714,0.40516 0.50917,0.49745l0.44003,0.1746c0.08613,0.03398 0.13535,0.10693 0.13535,0.20009v1.05466c0,0.09316 -0.04922,0.16611 -0.13593,0.20039l-0.43944,0.1746c-0.23173,0.09228 -0.41249,0.26865 -0.50887,0.49657c-0.09609,0.22763 -0.09668,0.47958 -0.00146,0.70955l0.68494,1.65318c0.09521,0.22997 0.27392,0.4078 0.50272,0.50096c0.22939,0.09316 0.48192,0.09023 0.7116,-0.00879l0.4327,-0.1872c0.08613,-0.03691 0.17343,-0.02021 0.23935,0.04599l0.74471,0.74471c0.06621,0.06621 0.08291,0.15351 0.04629,0.23847l-0.18808,0.43417c-0.09873,0.2291 -0.10166,0.48163 -0.0085,0.71102c0.09316,0.2291 0.27099,0.40751 0.50067,0.50272l1.65347,0.68524c0.22997,0.09521 0.48192,0.09463 0.70955,-0.00146c0.22792,-0.09638 0.40429,-0.27714 0.49657,-0.50917l0.17461,-0.43973c0.03398,-0.08613 0.10693,-0.13535 0.20009,-0.13535h1.05466c0.09316,0 0.16611,0.04922 0.20039,0.13593l0.17461,0.43944c0.09228,0.23202 0.26894,0.41278 0.49716,0.50917c0.11455,0.04834 0.23496,0.07236 0.35566,0.07236c0.11953,0 0.23935,-0.02373 0.35331,-0.07119l1.65318,-0.68494c0.23056,-0.09551 0.40868,-0.2745 0.50184,-0.50419c0.09287,-0.22939 0.08935,-0.48163 -0.00937,-0.70984l-0.1872,-0.43417c-0.03691,-0.08525 -0.02021,-0.17226 0.04541,-0.23818l0.74647,-0.74559c0.06562,-0.06592 0.15205,-0.08232 0.23701,-0.0457l0.43417,0.18808c0.2291,0.09873 0.48163,0.10166 0.71102,0.0085c0.2291,-0.09316 0.40751,-0.27099 0.50272,-0.50096l0.68524,-1.65347c0.09521,-0.22997 0.09463,-0.48192 -0.00146,-0.70955c-0.09609,-0.22822 -0.27685,-0.40458 -0.50858,-0.49657zM7.49978,10.37503c-1.58785,0 -2.87512,-1.28727 -2.87512,-2.87512c0,-1.58785 1.28727,-2.87512 2.87512,-2.87512c1.58785,0 2.87512,1.28727 2.87512,2.87512c0,1.58785 -1.28727,2.87512 -2.87512,2.87512z" style="stroke-width: 0; stroke-linecap: butt; stroke-linejoin: miter; fill: rgb(126, 138, 145);" vector-effect="non-scaling-stroke"/></g><defs><path id="path-1696273257434128973" d="M14.41807,8.40223l-0.43915,-0.1749c-0.08642,-0.03398 -0.13623,-0.10722 -0.13623,-0.20009v-1.05466c0,-0.09316 0.04951,-0.16611 0.13711,-0.20068l0.43856,-0.17431c0.23203,-0.09228 0.41278,-0.26894 0.50917,-0.49715c0.09609,-0.22792 0.09668,-0.47958 0.00146,-0.70897l-0.68494,-1.65318c-0.09551,-0.23056 -0.2745,-0.40868 -0.50419,-0.50184c-0.22939,-0.09287 -0.48163,-0.08935 -0.70985,0.00937l-0.43446,0.1872c-0.08467,0.03691 -0.17109,0.02021 -0.23701,-0.0457l-0.74559,-0.74559c-0.06592,-0.06592 -0.08262,-0.15234 -0.04541,-0.23818l0.18662,-0.4327c0.09902,-0.2288 0.10254,-0.48104 0.00967,-0.71043c-0.09287,-0.22968 -0.27128,-0.40868 -0.50184,-0.50419l-1.65347,-0.68494c-0.22939,-0.09521 -0.48134,-0.09492 -0.70926,0.00117c-0.22851,0.09638 -0.40487,0.27714 -0.49716,0.50917l-0.17461,0.43915c-0.03428,0.08642 -0.10722,0.13623 -0.20009,0.13623h-1.05466c-0.09316,0 -0.16611,-0.04951 -0.20039,-0.13711l-0.17431,-0.43856c-0.09228,-0.23173 -0.26865,-0.41249 -0.49657,-0.50887c-0.22763,-0.09609 -0.47958,-0.09668 -0.70955,-0.00146l-1.65377,0.68524c-0.22997,0.09521 -0.4078,0.27392 -0.50096,0.50272c-0.09316,0.22939 -0.09023,0.48192 0.00879,0.7116l0.1875,0.433c0.03691,0.08554 0.02021,0.17197 -0.04629,0.23847l-0.74412,0.745c-0.0668,0.06621 -0.1538,0.0832 -0.23964,0.04599l-0.4327,-0.18662c-0.2288,-0.09902 -0.48104,-0.10254 -0.71043,-0.00967c-0.22968,0.09287 -0.40868,0.27128 -0.50419,0.50155l-0.68494,1.65289c-0.09521,0.22968 -0.09492,0.48133 0.00117,0.70926c0.09638,0.22851 0.27714,0.40516 0.50917,0.49745l0.44003,0.1746c0.08613,0.03398 0.13535,0.10693 0.13535,0.20009v1.05466c0,0.09316 -0.04922,0.16611 -0.13593,0.20039l-0.43944,0.1746c-0.23173,0.09228 -0.41249,0.26865 -0.50887,0.49657c-0.09609,0.22763 -0.09668,0.47958 -0.00146,0.70955l0.68494,1.65318c0.09521,0.22997 0.27392,0.4078 0.50272,0.50096c0.22939,0.09316 0.48192,0.09023 0.7116,-0.00879l0.4327,-0.1872c0.08613,-0.03691 0.17343,-0.02021 0.23935,0.04599l0.74471,0.74471c0.06621,0.06621 0.08291,0.15351 0.04629,0.23847l-0.18808,0.43417c-0.09873,0.2291 -0.10166,0.48163 -0.0085,0.71102c0.09316,0.2291 0.27099,0.40751 0.50067,0.50272l1.65347,0.68524c0.22997,0.09521 0.48192,0.09463 0.70955,-0.00146c0.22792,-0.09638 0.40429,-0.27714 0.49657,-0.50917l0.17461,-0.43973c0.03398,-0.08613 0.10693,-0.13535 0.20009,-0.13535h1.05466c0.09316,0 0.16611,0.04922 0.20039,0.13593l0.17461,0.43944c0.09228,0.23202 0.26894,0.41278 0.49716,0.50917c0.11455,0.04834 0.23496,0.07236 0.35566,0.07236c0.11953,0 0.23935,-0.02373 0.35331,-0.07119l1.65318,-0.68494c0.23056,-0.09551 0.40868,-0.2745 0.50184,-0.50419c0.09287,-0.22939 0.08935,-0.48163 -0.00937,-0.70984l-0.1872,-0.43417c-0.03691,-0.08525 -0.02021,-0.17226 0.04541,-0.23818l0.74647,-0.74559c0.06562,-0.06592 0.15205,-0.08232 0.23701,-0.0457l0.43417,0.18808c0.2291,0.09873 0.48163,0.10166 0.71102,0.0085c0.2291,-0.09316 0.40751,-0.27099 0.50272,-0.50096l0.68524,-1.65347c0.09521,-0.22997 0.09463,-0.48192 -0.00146,-0.70955c-0.09609,-0.22822 -0.27685,-0.40458 -0.50858,-0.49657zM7.49978,10.37503c-1.58785,0 -2.87512,-1.28727 -2.87512,-2.87512c0,-1.58785 1.28727,-2.87512 2.87512,-2.87512c1.58785,0 2.87512,1.28727 2.87512,2.87512c0,1.58785 -1.28727,2.87512 -2.87512,2.87512z" vector-effect="non-scaling-stroke"/></defs></g></svg>