<svg version="1.2" xmlns="http://www.w3.org/2000/svg" xmlns:xlink="http://www.w3.org/1999/xlink" overflow="visible" preserveAspectRatio="none" viewBox="0 0 14.999995251786814 14.00001" width="14.999995251786814" height="14.00001"><g transform="translate(0, 0)"><g transform="translate(-3.607339601977705e-7, 0.000010000000000509601) rotate(0)"><path d="M13.83688,6.63158v7c0,0.20337 -0.167,0.36842 -0.37276,0.36842h-6.70967v-5.52632c0,-0.20337 -0.167,-0.36842 -0.37276,-0.36842h-2.98208c-0.20576,0 -0.37276,0.16505 -0.37276,0.36842v5.52632h-1.49104c-0.20576,0 -0.37276,-0.16505 -0.37276,-0.36842v-7h0.12674c0.54423,0 1.04373,-0.26342 1.35312,-0.68158c0.00746,0.00737 0.01305,0.01842 0.01864,0.02763c0.32057,0.41447 0.80702,0.65395 1.33634,0.65395h0.46968c0.56473,0 1.06609,-0.27632 1.37175,-0.70368c0.02423,0.02947 0.04846,0.06079 0.07455,0.09026c0.35226,0.39053 0.85921,0.61342 1.38853,0.61342h0.39513c0.52932,0 1.03627,-0.22289 1.38853,-0.61342c0.02609,-0.02947 0.05032,-0.06079 0.07455,-0.09026c0.30566,0.42737 0.80702,0.70368 1.37175,0.70368h0.46968c0.52932,0 1.01577,-0.23947 1.33634,-0.65395c0.00559,-0.00921 0.01118,-0.02026 0.01864,-0.02763c0.30939,0.41816 0.80889,0.68158 1.35312,0.68158zM11.97309,11.42105v-2.94737c0,-0.20337 -0.167,-0.36842 -0.37276,-0.36842h-2.60932c-0.20576,0 -0.37276,0.16505 -0.37276,0.36842v2.94737c0,0.20337 0.167,0.36842 0.37276,0.36842h2.60932c0.20576,0 0.37276,-0.16505 0.37276,-0.36842zM2.63528,0c-0.29467,0 -0.56156,0.1715 -0.68122,0.4375l-1.872,4.16224c-0.13494,0.30118 -0.10232,0.63184 0.08946,0.90226c0.18042,0.25421 0.48626,0.39274 0.80031,0.39274h0.31796c0.41749,0 0.78652,-0.27816 0.89835,-0.67421l0.86294,-3.07447l0.60387,-2.14605zM4.42843,0l-1.32889,4.72684c-0.07828,0.28 -0.0205,0.57289 0.15656,0.805c0.17706,0.23026 0.44731,0.36289 0.74179,0.36289h0.46968c0.47713,0 0.87412,-0.35184 0.92631,-0.81974l0.57219,-5.075zM8.28463,0h-1.56932l-0.52559,4.66789c-0.03355,0.31132 0.0671,0.62447 0.27957,0.85842c0.21434,0.23763 0.51068,0.36842 0.83312,0.36842h0.39513c0.32244,0 0.61878,-0.13079 0.83312,-0.36842c0.21247,-0.23395 0.31312,-0.54711 0.27957,-0.85842zM10.57151,0h-1.53763l0.57219,5.075c0.05219,0.46789 0.44918,0.81974 0.92631,0.81974h0.46968c0.29448,0 0.56473,-0.13263 0.74179,-0.36289c0.17706,-0.23211 0.23484,-0.525 0.15656,-0.805zM13.04589,0.4375c-0.11966,-0.266 -0.38674,-0.4375 -0.68122,-0.4375h-1.01968l0.60387,2.14605l0.86294,3.07447c0.11183,0.39605 0.48086,0.67421 0.89835,0.67421h0.31796c0.31424,0 0.62009,-0.13853 0.80031,-0.39274c0.19197,-0.27042 0.2244,-0.60126 0.08946,-0.90226z" style="stroke-width: 0; stroke-linecap: butt; stroke-linejoin: miter; fill: rgb(126, 138, 145);" vector-effect="non-scaling-stroke"/></g><defs><path id="path-1696273257435128991" d="M13.83688,6.63158v7c0,0.20337 -0.167,0.36842 -0.37276,0.36842h-6.70967v-5.52632c0,-0.20337 -0.167,-0.36842 -0.37276,-0.36842h-2.98208c-0.20576,0 -0.37276,0.16505 -0.37276,0.36842v5.52632h-1.49104c-0.20576,0 -0.37276,-0.16505 -0.37276,-0.36842v-7h0.12674c0.54423,0 1.04373,-0.26342 1.35312,-0.68158c0.00746,0.00737 0.01305,0.01842 0.01864,0.02763c0.32057,0.41447 0.80702,0.65395 1.33634,0.65395h0.46968c0.56473,0 1.06609,-0.27632 1.37175,-0.70368c0.02423,0.02947 0.04846,0.06079 0.07455,0.09026c0.35226,0.39053 0.85921,0.61342 1.38853,0.61342h0.39513c0.52932,0 1.03627,-0.22289 1.38853,-0.61342c0.02609,-0.02947 0.05032,-0.06079 0.07455,-0.09026c0.30566,0.42737 0.80702,0.70368 1.37175,0.70368h0.46968c0.52932,0 1.01577,-0.23947 1.33634,-0.65395c0.00559,-0.00921 0.01118,-0.02026 0.01864,-0.02763c0.30939,0.41816 0.80889,0.68158 1.35312,0.68158zM11.97309,11.42105v-2.94737c0,-0.20337 -0.167,-0.36842 -0.37276,-0.36842h-2.60932c-0.20576,0 -0.37276,0.16505 -0.37276,0.36842v2.94737c0,0.20337 0.167,0.36842 0.37276,0.36842h2.60932c0.20576,0 0.37276,-0.16505 0.37276,-0.36842zM2.63528,0c-0.29467,0 -0.56156,0.1715 -0.68122,0.4375l-1.872,4.16224c-0.13494,0.30118 -0.10232,0.63184 0.08946,0.90226c0.18042,0.25421 0.48626,0.39274 0.80031,0.39274h0.31796c0.41749,0 0.78652,-0.27816 0.89835,-0.67421l0.86294,-3.07447l0.60387,-2.14605zM4.42843,0l-1.32889,4.72684c-0.07828,0.28 -0.0205,0.57289 0.15656,0.805c0.17706,0.23026 0.44731,0.36289 0.74179,0.36289h0.46968c0.47713,0 0.87412,-0.35184 0.92631,-0.81974l0.57219,-5.075zM8.28463,0h-1.56932l-0.52559,4.66789c-0.03355,0.31132 0.0671,0.62447 0.27957,0.85842c0.21434,0.23763 0.51068,0.36842 0.83312,0.36842h0.39513c0.32244,0 0.61878,-0.13079 0.83312,-0.36842c0.21247,-0.23395 0.31312,-0.54711 0.27957,-0.85842zM10.57151,0h-1.53763l0.57219,5.075c0.05219,0.46789 0.44918,0.81974 0.92631,0.81974h0.46968c0.29448,0 0.56473,-0.13263 0.74179,-0.36289c0.17706,-0.23211 0.23484,-0.525 0.15656,-0.805zM13.04589,0.4375c-0.11966,-0.266 -0.38674,-0.4375 -0.68122,-0.4375h-1.01968l0.60387,2.14605l0.86294,3.07447c0.11183,0.39605 0.48086,0.67421 0.89835,0.67421h0.31796c0.31424,0 0.62009,-0.13853 0.80031,-0.39274c0.19197,-0.27042 0.2244,-0.60126 0.08946,-0.90226z" vector-effect="non-scaling-stroke"/></defs></g></svg>