<svg version="1.2" xmlns="http://www.w3.org/2000/svg" xmlns:xlink="http://www.w3.org/1999/xlink" overflow="visible" preserveAspectRatio="none" viewBox="0 0 11 14" width="11" height="14"><g transform="translate(0, 0)"><g transform="translate(0, 2.220446049250313e-16) rotate(0)"><path d="M4.46875,0c-0.75938,0 -1.375,0.59695 -1.375,1.33333h-2.75c-0.18985,0 -0.34375,0.14924 -0.34375,0.33333v1c0,0.1841 0.1539,0.33333 0.34375,0.33333h10.3125c0.18985,0 0.34375,-0.14923 0.34375,-0.33333v-1c0,-0.18409 -0.1539,-0.33333 -0.34375,-0.33333h-2.75c0,-0.73638 -0.61562,-1.33333 -1.375,-1.33333zM1.375,3.66667c-0.18985,0 -0.34375,0.14923 -0.34375,0.33333v9.66667c0,0.1841 0.1539,0.33333 0.34375,0.33333h8.25c0.18985,0 0.34375,-0.14923 0.34375,-0.33333v-9.66667c0,-0.1841 -0.1539,-0.33333 -0.34375,-0.33333z" style="stroke-width: 0; stroke-linecap: butt; stroke-linejoin: miter; fill: rgb(255, 255, 255);" vector-effect="non-scaling-stroke"/></g><defs><path id="path-1694022967940208970" d="M4.46875,0c-0.75938,0 -1.375,0.59695 -1.375,1.33333h-2.75c-0.18985,0 -0.34375,0.14924 -0.34375,0.33333v1c0,0.1841 0.1539,0.33333 0.34375,0.33333h10.3125c0.18985,0 0.34375,-0.14923 0.34375,-0.33333v-1c0,-0.18409 -0.1539,-0.33333 -0.34375,-0.33333h-2.75c0,-0.73638 -0.61562,-1.33333 -1.375,-1.33333zM1.375,3.66667c-0.18985,0 -0.34375,0.14923 -0.34375,0.33333v9.66667c0,0.1841 0.1539,0.33333 0.34375,0.33333h8.25c0.18985,0 0.34375,-0.14923 0.34375,-0.33333v-9.66667c0,-0.1841 -0.1539,-0.33333 -0.34375,-0.33333z" vector-effect="non-scaling-stroke"/></defs></g></svg>