<svg version="1.2" xmlns="http://www.w3.org/2000/svg" xmlns:xlink="http://www.w3.org/1999/xlink" overflow="visible" preserveAspectRatio="none" viewBox="0 0 15.000010000000001 15.00001" width="15.000010000000001" height="15.00001"><g transform="translate(0, 0)"><g transform="translate(1.1102230246251565e-16, 1.1102230246251565e-16) rotate(0)"><path d="M0.53571,4.28571c-0.29609,0 -0.53571,-0.23963 -0.53571,-0.53571v-3.21429c0,-0.29609 0.23963,-0.53571 0.53571,-0.53571h2.14286c0.29609,0 0.53571,0.23963 0.53571,0.53571c0,0.29609 -0.23963,0.53571 -0.53571,0.53571h-1.60714v2.67857c0,0.29609 -0.23963,0.53571 -0.53571,0.53571zM14.46429,4.28571c-0.29609,0 -0.53571,-0.23963 -0.53571,-0.53571v-2.67857h-1.60714c-0.29609,0 -0.53571,-0.23963 -0.53571,-0.53571c0,-0.29609 0.23962,-0.53571 0.53571,-0.53571h2.14286c0.29609,0 0.53571,0.23963 0.53571,0.53571v3.21429c0,0.29609 -0.23963,0.53571 -0.53571,0.53571zM2.67857,15h-2.14286c-0.29609,0 -0.53571,-0.23963 -0.53571,-0.53571v-3.21429c0,-0.29609 0.23963,-0.53571 0.53571,-0.53571c0.29609,0 0.53571,0.23963 0.53571,0.53571v2.67857h1.60714c0.29609,0 0.53571,0.23963 0.53571,0.53571c0,0.29609 -0.23963,0.53571 -0.53571,0.53571zM14.46429,15h-2.14286c-0.29609,0 -0.53571,-0.23963 -0.53571,-0.53571c0,-0.29609 0.23962,-0.53571 0.53571,-0.53571h1.60714v-2.67857c0,-0.29609 0.23963,-0.53571 0.53571,-0.53571c0.29609,0 0.53571,0.23963 0.53571,0.53571v3.21429c0,0.29609 -0.23963,0.53571 -0.53571,0.53571zM12,4.75v7.7c0,0.30398 -0.25161,0.55 -0.5625,0.55h-7.875c-0.31089,0 -0.5625,-0.24601 -0.5625,-0.55v-9.9c0,-0.30398 0.25161,-0.55 0.5625,-0.55h5.625c0.1494,0 0.29222,0.05803 0.39769,0.16115l2.25,2.2c0.10547,0.10312 0.16481,0.24277 0.16481,0.38885zM9.46875,9.975c0,-0.15202 -0.12578,-0.275 -0.28125,-0.275h-3.375c-0.15547,0 -0.28125,0.12298 -0.28125,0.275c0,0.15202 0.12578,0.275 0.28125,0.275h3.375c0.15547,0 0.28125,-0.12298 0.28125,-0.275zM9.46875,8.325c0,-0.15202 -0.12578,-0.275 -0.28125,-0.275h-3.375c-0.15547,0 -0.28125,0.12298 -0.28125,0.275c0,0.15202 0.12578,0.275 0.28125,0.275h3.375c0.15547,0 0.28125,-0.12298 0.28125,-0.275zM9.46875,6.675c0,-0.15202 -0.12578,-0.275 -0.28125,-0.275h-3.375c-0.15547,0 -0.28125,0.12298 -0.28125,0.275c0,0.15202 0.12578,0.275 0.28125,0.275h3.375c0.15547,0 0.28125,-0.12298 0.28125,-0.275zM9.46875,5.025c0,-0.15202 -0.12578,-0.275 -0.28125,-0.275h-3.375c-0.15547,0 -0.28125,0.12298 -0.28125,0.275c0,0.15202 0.12578,0.275 0.28125,0.275h3.375c0.15547,0 0.28125,-0.12298 0.28125,-0.275z" style="stroke-width: 0; stroke-linecap: butt; stroke-linejoin: miter; fill: rgb(126, 138, 145);" vector-effect="non-scaling-stroke"/></g><defs><path id="path-1696272806430278995" d="M0.53571,4.28571c-0.29609,0 -0.53571,-0.23963 -0.53571,-0.53571v-3.21429c0,-0.29609 0.23963,-0.53571 0.53571,-0.53571h2.14286c0.29609,0 0.53571,0.23963 0.53571,0.53571c0,0.29609 -0.23963,0.53571 -0.53571,0.53571h-1.60714v2.67857c0,0.29609 -0.23963,0.53571 -0.53571,0.53571zM14.46429,4.28571c-0.29609,0 -0.53571,-0.23963 -0.53571,-0.53571v-2.67857h-1.60714c-0.29609,0 -0.53571,-0.23963 -0.53571,-0.53571c0,-0.29609 0.23962,-0.53571 0.53571,-0.53571h2.14286c0.29609,0 0.53571,0.23963 0.53571,0.53571v3.21429c0,0.29609 -0.23963,0.53571 -0.53571,0.53571zM2.67857,15h-2.14286c-0.29609,0 -0.53571,-0.23963 -0.53571,-0.53571v-3.21429c0,-0.29609 0.23963,-0.53571 0.53571,-0.53571c0.29609,0 0.53571,0.23963 0.53571,0.53571v2.67857h1.60714c0.29609,0 0.53571,0.23963 0.53571,0.53571c0,0.29609 -0.23963,0.53571 -0.53571,0.53571zM14.46429,15h-2.14286c-0.29609,0 -0.53571,-0.23963 -0.53571,-0.53571c0,-0.29609 0.23962,-0.53571 0.53571,-0.53571h1.60714v-2.67857c0,-0.29609 0.23963,-0.53571 0.53571,-0.53571c0.29609,0 0.53571,0.23963 0.53571,0.53571v3.21429c0,0.29609 -0.23963,0.53571 -0.53571,0.53571zM12,4.75v7.7c0,0.30398 -0.25161,0.55 -0.5625,0.55h-7.875c-0.31089,0 -0.5625,-0.24601 -0.5625,-0.55v-9.9c0,-0.30398 0.25161,-0.55 0.5625,-0.55h5.625c0.1494,0 0.29222,0.05803 0.39769,0.16115l2.25,2.2c0.10547,0.10312 0.16481,0.24277 0.16481,0.38885zM9.46875,9.975c0,-0.15202 -0.12578,-0.275 -0.28125,-0.275h-3.375c-0.15547,0 -0.28125,0.12298 -0.28125,0.275c0,0.15202 0.12578,0.275 0.28125,0.275h3.375c0.15547,0 0.28125,-0.12298 0.28125,-0.275zM9.46875,8.325c0,-0.15202 -0.12578,-0.275 -0.28125,-0.275h-3.375c-0.15547,0 -0.28125,0.12298 -0.28125,0.275c0,0.15202 0.12578,0.275 0.28125,0.275h3.375c0.15547,0 0.28125,-0.12298 0.28125,-0.275zM9.46875,6.675c0,-0.15202 -0.12578,-0.275 -0.28125,-0.275h-3.375c-0.15547,0 -0.28125,0.12298 -0.28125,0.275c0,0.15202 0.12578,0.275 0.28125,0.275h3.375c0.15547,0 0.28125,-0.12298 0.28125,-0.275zM9.46875,5.025c0,-0.15202 -0.12578,-0.275 -0.28125,-0.275h-3.375c-0.15547,0 -0.28125,0.12298 -0.28125,0.275c0,0.15202 0.12578,0.275 0.28125,0.275h3.375c0.15547,0 0.28125,-0.12298 0.28125,-0.275z" vector-effect="non-scaling-stroke"/></defs></g></svg>