<svg version="1.2" xmlns="http://www.w3.org/2000/svg" xmlns:xlink="http://www.w3.org/1999/xlink" overflow="visible" preserveAspectRatio="none" viewBox="0 0 14.999994999999997 9" width="14.999994999999997" height="9"><g transform="translate(0, 0)"><g transform="translate(-0.000002500000000203728, 0) rotate(0)"><path d="M7.5,0c-2.86591,0 -5.46487,1.57824 -7.38263,4.14173c-0.15649,0.21002 -0.15649,0.50343 0,0.71345c1.91777,2.56658 4.51672,4.14482 7.38263,4.14482c2.86591,0 5.46487,-1.57824 7.38263,-4.14173c0.15649,-0.21002 0.15649,-0.50343 0,-0.71345c-1.91777,-2.56658 -4.51672,-4.14482 -7.38263,-4.14482zM7.70558,7.66884c-1.90242,0.12045 -3.47346,-1.45779 -3.35379,-3.37577c0.09819,-1.58133 1.37159,-2.86307 2.94262,-2.96191c1.90242,-0.12045 3.47346,1.45779 3.35379,3.37577c-0.10126,1.57824 -1.37465,2.85999 -2.94262,2.96191zM7.61046,6.20487c-1.02485,0.06486 -1.87174,-0.78449 -1.80423,-1.81606c0.05216,-0.85244 0.73949,-1.54118 1.58638,-1.59677c1.02485,-0.06486 1.87174,0.78449 1.80423,1.81606c-0.05523,0.85553 -0.74256,1.54427 -1.58638,1.59677z" style="stroke-width: 0; stroke-linecap: butt; stroke-linejoin: miter; fill: rgb(140, 140, 137);" vector-effect="non-scaling-stroke"/></g><defs><path id="path-1694022967933208949" d="M7.5,0c-2.86591,0 -5.46487,1.57824 -7.38263,4.14173c-0.15649,0.21002 -0.15649,0.50343 0,0.71345c1.91777,2.56658 4.51672,4.14482 7.38263,4.14482c2.86591,0 5.46487,-1.57824 7.38263,-4.14173c0.15649,-0.21002 0.15649,-0.50343 0,-0.71345c-1.91777,-2.56658 -4.51672,-4.14482 -7.38263,-4.14482zM7.70558,7.66884c-1.90242,0.12045 -3.47346,-1.45779 -3.35379,-3.37577c0.09819,-1.58133 1.37159,-2.86307 2.94262,-2.96191c1.90242,-0.12045 3.47346,1.45779 3.35379,3.37577c-0.10126,1.57824 -1.37465,2.85999 -2.94262,2.96191zM7.61046,6.20487c-1.02485,0.06486 -1.87174,-0.78449 -1.80423,-1.81606c0.05216,-0.85244 0.73949,-1.54118 1.58638,-1.59677c1.02485,-0.06486 1.87174,0.78449 1.80423,1.81606c-0.05523,0.85553 -0.74256,1.54427 -1.58638,1.59677z" vector-effect="non-scaling-stroke"/></defs></g></svg>