<svg version="1.2" xmlns="http://www.w3.org/2000/svg" xmlns:xlink="http://www.w3.org/1999/xlink" overflow="visible" preserveAspectRatio="none" viewBox="0 0 12 15.000000000000002" width="12" height="15.000000000000002"><g transform="translate(0, 0)"><g transform="translate(-8.881784197001252e-16, 1.1102230246251565e-15) rotate(0)"><path d="M12,4.39453v8.99414c0,0.88849 -0.75917,1.61133 -1.69231,1.61133h-8.61538c-0.93314,0 -1.69231,-0.72284 -1.69231,-1.61133v-11.77734c0,-0.88849 0.75917,-1.61133 1.69231,-1.61133h5.50769v3.36914c0,0.5654 0.48311,1.02539 1.07692,1.02539zM2.06154,10.98633c0,0.2427 0.20665,0.43945 0.46154,0.43945h2.23754c0.25489,0 0.46154,-0.19676 0.46154,-0.43945c0,-0.2427 -0.20665,-0.43945 -0.46154,-0.43945h-2.23754c-0.25489,0 -0.46154,0.19676 -0.46154,0.43945zM2.52308,9.08203h6.76923c0.25489,0 0.46154,-0.19676 0.46154,-0.43945c0,-0.2427 -0.20665,-0.43945 -0.46154,-0.43945h-6.76923c-0.25489,0 -0.46154,0.19676 -0.46154,0.43945c0,0.2427 0.20665,0.43945 0.46154,0.43945zM2.52308,5.85938c-0.25489,0 -0.46154,0.19676 -0.46154,0.43945c0,0.2427 0.20665,0.43945 0.46154,0.43945h6.76923c0.25489,0 0.46154,-0.19676 0.46154,-0.43945c0,-0.2427 -0.20665,-0.43945 -0.46154,-0.43945zM8.12311,3.36914v-3.18688c0.13738,0.06832 0.26563,0.15483 0.38077,0.25854l2.96686,2.67252c0.13049,0.11757 0.23911,0.25389 0.32354,0.4023h-3.51735c-0.08483,0 -0.15385,-0.06571 -0.15385,-0.14648z" style="stroke-width: 0; stroke-linecap: butt; stroke-linejoin: miter; fill: rgb(126, 138, 145);" vector-effect="non-scaling-stroke"/></g><defs><path id="path-169627324277767741" d="M12,4.39453v8.99414c0,0.88849 -0.75917,1.61133 -1.69231,1.61133h-8.61538c-0.93314,0 -1.69231,-0.72284 -1.69231,-1.61133v-11.77734c0,-0.88849 0.75917,-1.61133 1.69231,-1.61133h5.50769v3.36914c0,0.5654 0.48311,1.02539 1.07692,1.02539zM2.06154,10.98633c0,0.2427 0.20665,0.43945 0.46154,0.43945h2.23754c0.25489,0 0.46154,-0.19676 0.46154,-0.43945c0,-0.2427 -0.20665,-0.43945 -0.46154,-0.43945h-2.23754c-0.25489,0 -0.46154,0.19676 -0.46154,0.43945zM2.52308,9.08203h6.76923c0.25489,0 0.46154,-0.19676 0.46154,-0.43945c0,-0.2427 -0.20665,-0.43945 -0.46154,-0.43945h-6.76923c-0.25489,0 -0.46154,0.19676 -0.46154,0.43945c0,0.2427 0.20665,0.43945 0.46154,0.43945zM2.52308,5.85938c-0.25489,0 -0.46154,0.19676 -0.46154,0.43945c0,0.2427 0.20665,0.43945 0.46154,0.43945h6.76923c0.25489,0 0.46154,-0.19676 0.46154,-0.43945c0,-0.2427 -0.20665,-0.43945 -0.46154,-0.43945zM8.12311,3.36914v-3.18688c0.13738,0.06832 0.26563,0.15483 0.38077,0.25854l2.96686,2.67252c0.13049,0.11757 0.23911,0.25389 0.32354,0.4023h-3.51735c-0.08483,0 -0.15385,-0.06571 -0.15385,-0.14648z" vector-effect="non-scaling-stroke"/></defs></g></svg>