<svg version="1.2" xmlns="http://www.w3.org/2000/svg" xmlns:xlink="http://www.w3.org/1999/xlink" overflow="visible" preserveAspectRatio="none" viewBox="0 0 11.999995562045134 11.999997882576732" width="11.999995562045134" height="11.999997882576732"><g transform="translate(0, 0)"><g transform="translate(0.000005562045133500424, -0.0000025000000003216893) rotate(0)"><path d="M9.33663,7.45762l-3.9956,3.99805c-0.26405,0.26665 -0.61935,0.42316 -0.99421,0.43797l-2.80129,0.10636h-0.05628c-0.40464,0.00029 -0.79195,-0.1643 -1.07272,-0.45586c-0.28077,-0.29156 -0.43077,-0.68495 -0.41547,-1.08955l0.1063,-2.81553c0.0148,-0.37509 0.17122,-0.7306 0.4377,-0.99482l3.9956,-3.98553zM11.99999,3.99765c0,0.52402 -0.20922,1.02633 -0.58115,1.39525l-1.17554,1.18252l-4.80222,-4.80516l1.17554,-1.19503c0.76671,-0.76697 2.00957,-0.76697 2.77628,0l2.02594,2.02718c0.37193,0.36892 0.58115,0.87123 0.58115,1.39525z" style="stroke-width: 0; stroke-linecap: butt; stroke-linejoin: miter; fill: rgb(255, 255, 255);" vector-effect="non-scaling-stroke"/></g><defs><path id="path-1694022967935208956" d="M9.33663,7.45762l-3.9956,3.99805c-0.26405,0.26665 -0.61935,0.42316 -0.99421,0.43797l-2.80129,0.10636h-0.05628c-0.40464,0.00029 -0.79195,-0.1643 -1.07272,-0.45586c-0.28077,-0.29156 -0.43077,-0.68495 -0.41547,-1.08955l0.1063,-2.81553c0.0148,-0.37509 0.17122,-0.7306 0.4377,-0.99482l3.9956,-3.98553zM11.99999,3.99765c0,0.52402 -0.20922,1.02633 -0.58115,1.39525l-1.17554,1.18252l-4.80222,-4.80516l1.17554,-1.19503c0.76671,-0.76697 2.00957,-0.76697 2.77628,0l2.02594,2.02718c0.37193,0.36892 0.58115,0.87123 0.58115,1.39525z" vector-effect="non-scaling-stroke"/></defs></g></svg>