<svg version="1.2" xmlns="http://www.w3.org/2000/svg" xmlns:xlink="http://www.w3.org/1999/xlink" overflow="visible" preserveAspectRatio="none" viewBox="0 0 14.999994465931541 14.999999388431608" width="14.999994465931541" height="14.999999388431608"><g transform="translate(0, 0)"><g transform="translate(-0.0000055340684587531705, 5.551115123125783e-17) rotate(0)"><path d="M12.0898,7.04996l-7.17853,7.19554c-0.26725,0.26055 -0.61313,0.42513 -0.98365,0.46806l-2.51144,0.28642h-0.1465c-0.35917,0.00199 -0.70219,-0.14929 -0.9432,-0.41597c-0.24101,-0.26668 -0.3572,-0.62353 -0.31949,-0.98122l0.28603,-2.51495c0.04269,-0.37251 0.20986,-0.71964 0.47438,-0.98502l7.17853,-7.18855zM15,3.46965c0,0.43654 -0.17362,0.8551 -0.48248,1.16316l-1.68825,1.6906l-4.14387,-4.14966l1.68825,-1.6906c0.30763,-0.30929 0.72561,-0.48315 1.16154,-0.48315c0.43593,0 0.85391,0.17386 1.16154,0.48315l1.82079,1.82334c0.30886,0.30806 0.48248,0.72663 0.48248,1.16316z" style="stroke-width: 0; stroke-linecap: butt; stroke-linejoin: miter; fill: rgb(126, 138, 145);" vector-effect="non-scaling-stroke"/></g><defs><path id="path-1696273257435128984" d="M12.0898,7.04996l-7.17853,7.19554c-0.26725,0.26055 -0.61313,0.42513 -0.98365,0.46806l-2.51144,0.28642h-0.1465c-0.35917,0.00199 -0.70219,-0.14929 -0.9432,-0.41597c-0.24101,-0.26668 -0.3572,-0.62353 -0.31949,-0.98122l0.28603,-2.51495c0.04269,-0.37251 0.20986,-0.71964 0.47438,-0.98502l7.17853,-7.18855zM15,3.46965c0,0.43654 -0.17362,0.8551 -0.48248,1.16316l-1.68825,1.6906l-4.14387,-4.14966l1.68825,-1.6906c0.30763,-0.30929 0.72561,-0.48315 1.16154,-0.48315c0.43593,0 0.85391,0.17386 1.16154,0.48315l1.82079,1.82334c0.30886,0.30806 0.48248,0.72663 0.48248,1.16316z" vector-effect="non-scaling-stroke"/></defs></g></svg>