<svg version="1.2" xmlns="http://www.w3.org/2000/svg" xmlns:xlink="http://www.w3.org/1999/xlink" overflow="visible" preserveAspectRatio="none" viewBox="0 0 17.00000125015233 16.999990000000004" width="17.00000125015233" height="16.999990000000004"><g transform="translate(0, 0)"><g transform="translate(8.881784197001252e-16, 1.7763568394002505e-15) rotate(0)"><path style="stroke-width: 0; stroke-linecap: butt; stroke-linejoin: miter; fill: rgb(188, 191, 196);" d="M16.79226,15.79088l-4.83432,-4.83438c0.93642,-1.1567 1.50023,-2.6265 1.50023,-4.22732c0,-3.71025 -3.01889,-6.72918 -6.7291,-6.72918c-3.71021,0 -6.72907,3.01889 -6.72907,6.72914c0,3.71025 3.01889,6.72918 6.7291,6.72918c1.6008,0 3.07059,-0.56382 4.22728,-1.50025l4.83432,4.83437c0.13812,0.13813 0.31944,0.20755 0.5008,0.20755c0.18135,0 0.36267,-0.06943 0.5008,-0.20755c0.27694,-0.27695 0.27694,-0.72463 -0.00003,-1.00157zM6.7291,12.04164c-2.92965,0 -5.31244,-2.38282 -5.31244,-5.3125c0,-2.92968 2.3828,-5.3125 5.31244,-5.3125c2.92965,0 5.31244,2.38282 5.31244,5.3125c0,2.92968 -2.38283,5.3125 -5.31244,5.3125z" vector-effect="non-scaling-stroke"/></g><defs><path id="path-1693955289392700" d="M16.79226,15.79088l-4.83432,-4.83438c0.93642,-1.1567 1.50023,-2.6265 1.50023,-4.22732c0,-3.71025 -3.01889,-6.72918 -6.7291,-6.72918c-3.71021,0 -6.72907,3.01889 -6.72907,6.72914c0,3.71025 3.01889,6.72918 6.7291,6.72918c1.6008,0 3.07059,-0.56382 4.22728,-1.50025l4.83432,4.83437c0.13812,0.13813 0.31944,0.20755 0.5008,0.20755c0.18135,0 0.36267,-0.06943 0.5008,-0.20755c0.27694,-0.27695 0.27694,-0.72463 -0.00003,-1.00157zM6.7291,12.04164c-2.92965,0 -5.31244,-2.38282 -5.31244,-5.3125c0,-2.92968 2.3828,-5.3125 5.31244,-5.3125c2.92965,0 5.31244,2.38282 5.31244,5.3125c0,2.92968 -2.38283,5.3125 -5.31244,5.3125z" vector-effect="non-scaling-stroke"/></defs></g></svg>