<svg version="1.2" xmlns="http://www.w3.org/2000/svg" xmlns:xlink="http://www.w3.org/1999/xlink" overflow="visible" preserveAspectRatio="none" viewBox="0 0 13.000000665514271 11.00002" width="13.000000665514271" height="11.00002"><g transform="translate(0, 0)"><g transform="translate(0.000006678622808491824, 0.000009999999999177334) rotate(0)"><path d="M3.14622,7.09428l-1.1775,1.35236l-0.32796,-0.37666l-1.5614,-1.79326c-0.18037,-0.20714 -0.03344,-0.53056 0.24102,-0.53056h0.69215c-0.00358,-0.08176 -0.00563,-0.16381 -0.00563,-0.24618c0,-1.4691 0.5714,-2.85026 1.60889,-3.88908c1.03751,-1.03879 2.41694,-1.61091 3.8842,-1.61091c1.38359,0 2.68894,0.50889 3.70327,1.43796l-1.15872,1.35726c-0.66508,-0.62761 -1.56066,-1.01288 -2.54455,-1.01288c-2.04735,0 -3.71299,1.66773 -3.71299,3.71768c0,0.08273 0.00299,0.16477 0.00835,0.24618h0.82173c0.27446,0 0.42137,0.32342 0.24102,0.53056zM12.67965,5.76108h-0.69271c-0.06355,1.37105 -0.62688,2.65097 -1.6027,3.62802c-1.03751,1.03882 -2.41694,1.61091 -3.8842,1.61091c-1.26301,0 -2.4607,-0.42426 -3.43148,-1.20483l1.1588,-1.35736c0.6285,0.48855 1.4172,0.77986 2.27265,0.77986c1.95968,0 3.56943,-1.52803 3.7037,-3.45662h-0.82077c-0.27446,0 -0.42137,-0.32342 -0.24102,-0.53056l0.85456,-0.98146l1.0348,-1.18845l0.72477,0.83239l1.16459,1.33753c0.18034,0.20714 0.03344,0.53056 -0.241,0.53059z" style="stroke-width: 0; stroke-linecap: butt; stroke-linejoin: miter; fill: rgb(255, 255, 255);" vector-effect="non-scaling-stroke"/></g><defs><path id="path-1694022967937208963" d="M3.14622,7.09428l-1.1775,1.35236l-0.32796,-0.37666l-1.5614,-1.79326c-0.18037,-0.20714 -0.03344,-0.53056 0.24102,-0.53056h0.69215c-0.00358,-0.08176 -0.00563,-0.16381 -0.00563,-0.24618c0,-1.4691 0.5714,-2.85026 1.60889,-3.88908c1.03751,-1.03879 2.41694,-1.61091 3.8842,-1.61091c1.38359,0 2.68894,0.50889 3.70327,1.43796l-1.15872,1.35726c-0.66508,-0.62761 -1.56066,-1.01288 -2.54455,-1.01288c-2.04735,0 -3.71299,1.66773 -3.71299,3.71768c0,0.08273 0.00299,0.16477 0.00835,0.24618h0.82173c0.27446,0 0.42137,0.32342 0.24102,0.53056zM12.67965,5.76108h-0.69271c-0.06355,1.37105 -0.62688,2.65097 -1.6027,3.62802c-1.03751,1.03882 -2.41694,1.61091 -3.8842,1.61091c-1.26301,0 -2.4607,-0.42426 -3.43148,-1.20483l1.1588,-1.35736c0.6285,0.48855 1.4172,0.77986 2.27265,0.77986c1.95968,0 3.56943,-1.52803 3.7037,-3.45662h-0.82077c-0.27446,0 -0.42137,-0.32342 -0.24102,-0.53056l0.85456,-0.98146l1.0348,-1.18845l0.72477,0.83239l1.16459,1.33753c0.18034,0.20714 0.03344,0.53056 -0.241,0.53059z" vector-effect="non-scaling-stroke"/></defs></g></svg>