<svg version="1.2" xmlns="http://www.w3.org/2000/svg" xmlns:xlink="http://www.w3.org/1999/xlink" overflow="visible" preserveAspectRatio="none" viewBox="0 0 13.999979999999999 14" width="13.999979999999999" height="14"><g transform="translate(0, 0)"><g transform="translate(-1.1102230246251565e-16, 0) rotate(0)"><path d="M4.375,7.58333c-1.44975,0 -2.625,-1.17525 -2.625,-2.625c0,-1.44975 1.17525,-2.625 2.625,-2.625c1.44975,0 2.625,1.17525 2.625,2.625c-0.00161,1.44908 -1.17592,2.62339 -2.625,2.625zM8.16666,14h-7.58333c-0.32217,0 -0.58333,-0.26117 -0.58333,-0.58333v-0.29167c0,-2.41625 1.95875,-4.375 4.375,-4.375c2.41624,0 4.375,1.95875 4.375,4.375v0.29167c0,0.32217 -0.26117,0.58333 -0.58333,0.58333zM10.20833,5.25c-1.44975,0 -2.625,-1.17525 -2.625,-2.625c0,-1.44975 1.17525,-2.625 2.625,-2.625c1.44975,0 2.625,1.17525 2.625,2.625c-0.00161,1.44908 -1.17592,2.62339 -2.625,2.625zM9.37941,6.42892c-1.09831,0.14736 -2.08551,0.74581 -2.72417,1.65142c1.30719,0.59363 2.33427,1.66963 2.8665,3.003h3.89491c0.32217,0 0.58333,-0.26117 0.58333,-0.58333v-0.02217c-0.00122,-1.17631 -0.5091,-2.29509 -1.39381,-3.07034c-0.88471,-0.77525 -2.06049,-1.13182 -3.22678,-0.97857z" style="stroke-width: 0; stroke-linecap: butt; stroke-linejoin: miter; fill: rgb(126, 138, 145);" vector-effect="non-scaling-stroke"/></g><defs><path id="path-16959985389051242" d="M4.375,7.58333c-1.44975,0 -2.625,-1.17525 -2.625,-2.625c0,-1.44975 1.17525,-2.625 2.625,-2.625c1.44975,0 2.625,1.17525 2.625,2.625c-0.00161,1.44908 -1.17592,2.62339 -2.625,2.625zM8.16666,14h-7.58333c-0.32217,0 -0.58333,-0.26117 -0.58333,-0.58333v-0.29167c0,-2.41625 1.95875,-4.375 4.375,-4.375c2.41624,0 4.375,1.95875 4.375,4.375v0.29167c0,0.32217 -0.26117,0.58333 -0.58333,0.58333zM10.20833,5.25c-1.44975,0 -2.625,-1.17525 -2.625,-2.625c0,-1.44975 1.17525,-2.625 2.625,-2.625c1.44975,0 2.625,1.17525 2.625,2.625c-0.00161,1.44908 -1.17592,2.62339 -2.625,2.625zM9.37941,6.42892c-1.09831,0.14736 -2.08551,0.74581 -2.72417,1.65142c1.30719,0.59363 2.33427,1.66963 2.8665,3.003h3.89491c0.32217,0 0.58333,-0.26117 0.58333,-0.58333v-0.02217c-0.00122,-1.17631 -0.5091,-2.29509 -1.39381,-3.07034c-0.88471,-0.77525 -2.06049,-1.13182 -3.22678,-0.97857z" vector-effect="non-scaling-stroke"/></defs></g></svg>