<svg version="1.2" xmlns="http://www.w3.org/2000/svg" xmlns:xlink="http://www.w3.org/1999/xlink" overflow="visible" preserveAspectRatio="none" viewBox="0 0 14.000003648149965 13.99998133436534" width="14.000003648149965" height="13.99998133436534"><g transform="translate(0, 0)"><g transform="translate(-0.00001635185003314329, 0.0031813343653396245) rotate(0)"><path style="stroke-width: 0; stroke-linecap: butt; stroke-linejoin: miter; fill: rgb(255, 255, 255);" d="M8.16566,4.07411c0,0.64348 -0.52227,1.16512 -1.16652,1.16512c-0.64425,0 -1.16652,-0.52164 -1.16652,-1.16512c0,-0.64348 0.52227,-1.16512 1.16652,-1.16512c0.64425,0 1.16652,0.52164 1.16652,1.16512zM9.88627,6.95867l-2.88713,2.82133l-2.88247,-2.81725c-1.1699,-1.16484 -1.52176,-2.91902 -0.89142,-4.4441c0.63035,-1.52508 2.11867,-2.5205 3.77058,-2.52183c1.65191,-0.00133 3.14184,0.99168 3.77466,2.51574c0.63281,1.52406 0.28379,3.2788 -0.88422,4.44553zM9.33217,4.07411c0,-1.28695 -1.04454,-2.33023 -2.33304,-2.33023c-1.2885,0 -2.33304,1.04328 -2.33304,2.33023c0,1.28695 1.04454,2.33023 2.33304,2.33023c1.2885,0 2.33304,-1.04328 2.33304,-2.33023zM12.75417,6.17889l-0.83698,-0.27963c-0.2605,0.7088 -0.67205,1.35261 -1.20618,1.8869l-3.71186,3.62817l-3.69786,-3.61186c-0.70196,-0.69851 -1.19136,-1.58141 -1.41149,-2.54636c-0.48623,-0.0447 -0.96875,0.11778 -1.32864,0.44739c-0.35989,0.32961 -0.56367,0.7957 -0.56112,1.28339v5.6811l4.65616,1.32881l4.67774,-1.16512l4.66608,1.13482v-6.11569c-0.00049,-0.77094 -0.50668,-1.45049 -1.24584,-1.67252z" vector-effect="non-scaling-stroke"/></g><defs><path id="path-1694725180664240" d="M8.16566,4.07411c0,0.64348 -0.52227,1.16512 -1.16652,1.16512c-0.64425,0 -1.16652,-0.52164 -1.16652,-1.16512c0,-0.64348 0.52227,-1.16512 1.16652,-1.16512c0.64425,0 1.16652,0.52164 1.16652,1.16512zM9.88627,6.95867l-2.88713,2.82133l-2.88247,-2.81725c-1.1699,-1.16484 -1.52176,-2.91902 -0.89142,-4.4441c0.63035,-1.52508 2.11867,-2.5205 3.77058,-2.52183c1.65191,-0.00133 3.14184,0.99168 3.77466,2.51574c0.63281,1.52406 0.28379,3.2788 -0.88422,4.44553zM9.33217,4.07411c0,-1.28695 -1.04454,-2.33023 -2.33304,-2.33023c-1.2885,0 -2.33304,1.04328 -2.33304,2.33023c0,1.28695 1.04454,2.33023 2.33304,2.33023c1.2885,0 2.33304,-1.04328 2.33304,-2.33023zM12.75417,6.17889l-0.83698,-0.27963c-0.2605,0.7088 -0.67205,1.35261 -1.20618,1.8869l-3.71186,3.62817l-3.69786,-3.61186c-0.70196,-0.69851 -1.19136,-1.58141 -1.41149,-2.54636c-0.48623,-0.0447 -0.96875,0.11778 -1.32864,0.44739c-0.35989,0.32961 -0.56367,0.7957 -0.56112,1.28339v5.6811l4.65616,1.32881l4.67774,-1.16512l4.66608,1.13482v-6.11569c-0.00049,-0.77094 -0.50668,-1.45049 -1.24584,-1.67252z" vector-effect="non-scaling-stroke"/></defs></g></svg>