<svg version="1.2" xmlns="http://www.w3.org/2000/svg" xmlns:xlink="http://www.w3.org/1999/xlink" overflow="visible" preserveAspectRatio="none" viewBox="0 0 13.99999278713099 14.000014079250638" width="13.99999278713099" height="14.000014079250638"><g transform="translate(0, 0)"><g transform="translate(0.00000870788035252628, 0.000004079250637850358) rotate(0)"><path style="stroke-width: 0; stroke-linecap: butt; stroke-linejoin: miter; fill: rgb(255, 255, 255);" d="M3.86033,10.12856c0.66526,0.64816 0.66526,1.71675 0,2.38243c-0.57772,0.57809 -3.22125,1.38391 -3.51887,1.4715c-0.01751,0.01752 -0.05252,0.01752 -0.07003,0.01752c-0.01751,0 -0.05252,-0.01752 -0.07003,-0.01752c-0.15756,-0.03504 -0.22759,-0.1927 -0.19257,-0.33284c0.08753,-0.2978 0.89285,-2.943 1.47057,-3.52109c0.66526,-0.64816 1.73317,-0.64816 2.38092,0zM13.99701,2.38949c0,2.40263 -1.29,3.85388 -2.99925,4.93425v2.46713c-0.01613,0.41925 -0.24188,0.79013 -0.61275,0.99975l-2.30588,1.161c-0.08063,0.03225 -0.16125,0.04838 -0.24188,0.04838c-0.3225,0 -0.56438,-0.258 -0.56438,-0.56438v-2.43488l-0.53213,0.53213c-0.30638,0.29025 -0.774,0.29025 -1.06425,0l-1.19325,-1.19325c-0.29025,-0.30638 -0.29025,-0.774 0,-1.06425l0.516,-0.516h-2.43488c-0.30638,0 -0.56438,-0.258 -0.56438,-0.56438c0.01613,-0.09675 0.03225,-0.17738 0.0645,-0.258l1.161,-2.322c0.20963,-0.35475 0.5805,-0.59663 0.99975,-0.61275h2.43488c1.08038,-1.70925 2.53163,-2.99925 4.95038,-2.99925c0.645,-0.01613 1.30613,0.03225 1.935,0.16125c0.14513,0.04838 0.258,0.14513 0.29025,0.29025c0.129,0.645 0.17738,1.29 0.16125,1.935zM11.93301,3.00224c0,-0.516 -0.41925,-0.93525 -0.93525,-0.93525c-0.516,0 -0.93525,0.41925 -0.93525,0.93525c0,0.516 0.41925,0.93525 0.93525,0.93525c0.516,0 0.93525,-0.41925 0.93525,-0.93525z" vector-effect="non-scaling-stroke"/></g><defs><path id="path-1694725180671264" d="M3.86033,10.12856c0.66526,0.64816 0.66526,1.71675 0,2.38243c-0.57772,0.57809 -3.22125,1.38391 -3.51887,1.4715c-0.01751,0.01752 -0.05252,0.01752 -0.07003,0.01752c-0.01751,0 -0.05252,-0.01752 -0.07003,-0.01752c-0.15756,-0.03504 -0.22759,-0.1927 -0.19257,-0.33284c0.08753,-0.2978 0.89285,-2.943 1.47057,-3.52109c0.66526,-0.64816 1.73317,-0.64816 2.38092,0zM13.99701,2.38949c0,2.40263 -1.29,3.85388 -2.99925,4.93425v2.46713c-0.01613,0.41925 -0.24188,0.79013 -0.61275,0.99975l-2.30588,1.161c-0.08063,0.03225 -0.16125,0.04838 -0.24188,0.04838c-0.3225,0 -0.56438,-0.258 -0.56438,-0.56438v-2.43488l-0.53213,0.53213c-0.30638,0.29025 -0.774,0.29025 -1.06425,0l-1.19325,-1.19325c-0.29025,-0.30638 -0.29025,-0.774 0,-1.06425l0.516,-0.516h-2.43488c-0.30638,0 -0.56438,-0.258 -0.56438,-0.56438c0.01613,-0.09675 0.03225,-0.17738 0.0645,-0.258l1.161,-2.322c0.20963,-0.35475 0.5805,-0.59663 0.99975,-0.61275h2.43488c1.08038,-1.70925 2.53163,-2.99925 4.95038,-2.99925c0.645,-0.01613 1.30613,0.03225 1.935,0.16125c0.14513,0.04838 0.258,0.14513 0.29025,0.29025c0.129,0.645 0.17738,1.29 0.16125,1.935zM11.93301,3.00224c0,-0.516 -0.41925,-0.93525 -0.93525,-0.93525c-0.516,0 -0.93525,0.41925 -0.93525,0.93525c0,0.516 0.41925,0.93525 0.93525,0.93525c0.516,0 0.93525,-0.41925 0.93525,-0.93525z" vector-effect="non-scaling-stroke"/></defs></g></svg>