<svg version="1.2" xmlns="http://www.w3.org/2000/svg" xmlns:xlink="http://www.w3.org/1999/xlink" overflow="visible" preserveAspectRatio="none" viewBox="0 0 19.99999967050701 20" width="19.99999967050701" height="20"><g transform="translate(0, 0)"><g transform="translate(0, 0) rotate(0)"><path d="M6.81985,5.71429h13.18015v2.85714h-13.18015zM6.81985,11.28133h13.18015v2.85714h-13.18015zM0,17.14286h19.96992v2.85714h-19.96992zM0,0h19.96992v2.85714h-19.96992zM4.1571,13.22651l-4.06152,-3.03254c-0.04128,-0.03055 -0.06546,-0.07776 -0.06546,-0.1278c0,-0.05004 0.02418,-0.09725 0.06546,-0.1278l4.06152,-3.03254c0.05077,-0.03858 0.1201,-0.04574 0.17826,-0.01841c0.05793,0.02753 0.09463,0.08416 0.09477,0.14621v6.06507c-0.00014,0.06205 -0.03684,0.11868 -0.09477,0.14621c-0.05815,0.02733 -0.12749,0.02017 -0.17826,-0.01841z" style="stroke-width: 0; stroke-linecap: butt; stroke-linejoin: miter; fill: rgb(126, 138, 145);" vector-effect="non-scaling-stroke"/></g><defs><path id="path-1694214394587828374" d="M6.81985,5.71429h13.18015v2.85714h-13.18015zM6.81985,11.28133h13.18015v2.85714h-13.18015zM0,17.14286h19.96992v2.85714h-19.96992zM0,0h19.96992v2.85714h-19.96992zM4.1571,13.22651l-4.06152,-3.03254c-0.04128,-0.03055 -0.06546,-0.07776 -0.06546,-0.1278c0,-0.05004 0.02418,-0.09725 0.06546,-0.1278l4.06152,-3.03254c0.05077,-0.03858 0.1201,-0.04574 0.17826,-0.01841c0.05793,0.02753 0.09463,0.08416 0.09477,0.14621v6.06507c-0.00014,0.06205 -0.03684,0.11868 -0.09477,0.14621c-0.05815,0.02733 -0.12749,0.02017 -0.17826,-0.01841z" vector-effect="non-scaling-stroke"/></defs></g></svg>