<svg version="1.2" xmlns="http://www.w3.org/2000/svg" xmlns:xlink="http://www.w3.org/1999/xlink" overflow="visible" preserveAspectRatio="none" viewBox="0 0 24.99999 24.999990000000004" width="24.99999" height="24.999990000000004"><g transform="translate(0, 0)"><g transform="translate(-0.000010000000000509601, 2.220446049250313e-15) rotate(0)"><path d="M13.23242,8.30078v1.27671c-0.24966,-0.09878 -0.52129,-0.15366 -0.80566,-0.15366c-0.22959,0 -0.45098,0.03555 -0.65918,0.10117v-1.22422h-3.53076c-1.65581,0 -3.00293,-1.34712 -3.00293,-3.00293c0,-1.65581 1.34712,-3.00293 3.00293,-3.00293c0.17861,0 0.35469,0.01538 0.52734,0.04595c0.68354,-1.4082 2.12876,-2.34087 3.73584,-2.34087c1.60708,0 3.05229,0.93267 3.73579,2.34087c0.17271,-0.03057 0.34873,-0.04595 0.52739,-0.04595c1.65581,0 3.00293,1.34712 3.00293,3.00293c0,1.65581 -1.34712,3.00293 -3.00293,3.00293zM13.15923,11.62114c0,0.40356 -0.32808,0.73188 -0.73149,0.73242h-0.0019c-0.40347,-0.00054 -0.73149,-0.32886 -0.73149,-0.73242c0,-0.40386 0.32856,-0.73242 0.73242,-0.73242c0.40386,0 0.73242,0.32856 0.73247,0.73242zM6.20117,13.81836h-1.46484v-2.19727c0,-0.40449 0.32793,-0.73242 0.73242,-0.73242h4.88672c-0.0813,0.2292 -0.12598,0.47563 -0.12598,0.73242c0,0.25679 0.04468,0.50317 0.12598,0.73242h-4.1543zM10.9375,16.50396v4.3457c0,0.67417 -0.54648,1.22065 -1.22065,1.22065h-3.5645v1.46484h1.48926c0.40449,0 0.73242,0.32793 0.73242,0.73242c0,0.40449 -0.32793,0.73242 -0.73242,0.73242h-4.44336c-0.40449,0 -0.73242,-0.32793 -0.73242,-0.73242c0,-0.40449 0.32793,-0.73242 0.73242,-0.73242h1.48926v-1.46479h-3.4668c-0.67417,0 -1.2207,-0.54653 -1.2207,-1.2207v-4.3457c0,-0.67417 0.54653,-1.2207 1.2207,-1.2207h8.49609c0.67417,0 1.2207,0.54653 1.2207,1.2207zM19.53125,10.88867c0.40449,0 0.73242,0.32793 0.73242,0.73242v2.19727h-1.46484v-1.46484h-4.30078c0.0813,-0.22925 0.12598,-0.47568 0.12598,-0.73242c0,-0.25674 -0.04468,-0.50317 -0.12598,-0.73242zM25,16.50396v4.3457c0,0.67417 -0.54648,1.22065 -1.22065,1.22065h-3.5645v1.46484h1.48926c0.40449,0 0.73242,0.32793 0.73242,0.73242c0,0.40449 -0.32793,0.73242 -0.73242,0.73242h-4.44336c-0.40449,0 -0.73242,-0.32793 -0.73242,-0.73242c0,-0.40449 0.32793,-0.73242 0.73242,-0.73242h1.48926v-1.46479h-3.4668c-0.67417,0 -1.2207,-0.54653 -1.2207,-1.2207v-4.3457c0,-0.67417 0.54653,-1.2207 1.2207,-1.2207h8.49609c0.67417,0 1.2207,0.54653 1.2207,1.2207z" style="stroke-width: 0; stroke-linecap: butt; stroke-linejoin: miter; fill: rgb(61, 125, 125);" vector-effect="non-scaling-stroke"/></g><defs><path id="path-1694026680907638476" d="M13.23242,8.30078v1.27671c-0.24966,-0.09878 -0.52129,-0.15366 -0.80566,-0.15366c-0.22959,0 -0.45098,0.03555 -0.65918,0.10117v-1.22422h-3.53076c-1.65581,0 -3.00293,-1.34712 -3.00293,-3.00293c0,-1.65581 1.34712,-3.00293 3.00293,-3.00293c0.17861,0 0.35469,0.01538 0.52734,0.04595c0.68354,-1.4082 2.12876,-2.34087 3.73584,-2.34087c1.60708,0 3.05229,0.93267 3.73579,2.34087c0.17271,-0.03057 0.34873,-0.04595 0.52739,-0.04595c1.65581,0 3.00293,1.34712 3.00293,3.00293c0,1.65581 -1.34712,3.00293 -3.00293,3.00293zM13.15923,11.62114c0,0.40356 -0.32808,0.73188 -0.73149,0.73242h-0.0019c-0.40347,-0.00054 -0.73149,-0.32886 -0.73149,-0.73242c0,-0.40386 0.32856,-0.73242 0.73242,-0.73242c0.40386,0 0.73242,0.32856 0.73247,0.73242zM6.20117,13.81836h-1.46484v-2.19727c0,-0.40449 0.32793,-0.73242 0.73242,-0.73242h4.88672c-0.0813,0.2292 -0.12598,0.47563 -0.12598,0.73242c0,0.25679 0.04468,0.50317 0.12598,0.73242h-4.1543zM10.9375,16.50396v4.3457c0,0.67417 -0.54648,1.22065 -1.22065,1.22065h-3.5645v1.46484h1.48926c0.40449,0 0.73242,0.32793 0.73242,0.73242c0,0.40449 -0.32793,0.73242 -0.73242,0.73242h-4.44336c-0.40449,0 -0.73242,-0.32793 -0.73242,-0.73242c0,-0.40449 0.32793,-0.73242 0.73242,-0.73242h1.48926v-1.46479h-3.4668c-0.67417,0 -1.2207,-0.54653 -1.2207,-1.2207v-4.3457c0,-0.67417 0.54653,-1.2207 1.2207,-1.2207h8.49609c0.67417,0 1.2207,0.54653 1.2207,1.2207zM19.53125,10.88867c0.40449,0 0.73242,0.32793 0.73242,0.73242v2.19727h-1.46484v-1.46484h-4.30078c0.0813,-0.22925 0.12598,-0.47568 0.12598,-0.73242c0,-0.25674 -0.04468,-0.50317 -0.12598,-0.73242zM25,16.50396v4.3457c0,0.67417 -0.54648,1.22065 -1.22065,1.22065h-3.5645v1.46484h1.48926c0.40449,0 0.73242,0.32793 0.73242,0.73242c0,0.40449 -0.32793,0.73242 -0.73242,0.73242h-4.44336c-0.40449,0 -0.73242,-0.32793 -0.73242,-0.73242c0,-0.40449 0.32793,-0.73242 0.73242,-0.73242h1.48926v-1.46479h-3.4668c-0.67417,0 -1.2207,-0.54653 -1.2207,-1.2207v-4.3457c0,-0.67417 0.54653,-1.2207 1.2207,-1.2207h8.49609c0.67417,0 1.2207,0.54653 1.2207,1.2207z" vector-effect="non-scaling-stroke"/></defs></g></svg>