<svg version="1.2" xmlns="http://www.w3.org/2000/svg" xmlns:xlink="http://www.w3.org/1999/xlink" overflow="visible" preserveAspectRatio="none" viewBox="0 0 12.000004999999998 14.00001" width="12.000004999999998" height="14.00001"><g transform="translate(0, 0)"><g transform="translate(4.440892098500626e-16, -0.000009999999999621423) rotate(0)"><path style="stroke-width: 0; stroke-linecap: butt; stroke-linejoin: miter; fill: rgb(255, 255, 255);" d="M4.90914,10.20834c0.0014,-1.51862 0.84994,-2.88986 2.15644,-3.48482c1.30651,-0.59496 2.81892,-0.29887 3.84362,0.75249v-5.726c0,-0.9665 -0.73263,-1.75 -1.63638,-1.75h-6.54552c-1.5055,0.00193 -2.7255,1.30664 -2.7273,2.91667v8.16667c0.0018,1.61003 1.2218,2.91474 2.7273,2.91667h5.72733c-1.95812,0 -3.54549,-1.69759 -3.54549,-3.79167zM2.7273,4.08334c0,-0.32217 0.24421,-0.58333 0.54546,-0.58333h4.36368c0.30125,0 0.54546,0.26117 0.54546,0.58333c0,0.32217 -0.24421,0.58333 -0.54546,0.58333h-4.36368c-0.30125,0 -0.54546,-0.26117 -0.54546,-0.58333zM11.8403,13.82909c-0.213,0.22772 -0.55828,0.22772 -0.77128,0l-1.31292,-1.40408c-0.38882,0.26539 -0.84021,0.40702 -1.30147,0.40833c-1.35562,0 -2.45457,-1.17525 -2.45457,-2.625c0,-1.44975 1.09895,-2.625 2.45457,-2.625c1.35562,0 2.45457,1.17525 2.45457,2.625c-0.00123,0.49329 -0.13366,0.97602 -0.38182,1.39183l1.31292,1.40408c0.21294,0.22779 0.21294,0.59704 0,0.82483z" vector-effect="non-scaling-stroke"/></g><defs><path id="path-1694725180680280" d="M4.90914,10.20834c0.0014,-1.51862 0.84994,-2.88986 2.15644,-3.48482c1.30651,-0.59496 2.81892,-0.29887 3.84362,0.75249v-5.726c0,-0.9665 -0.73263,-1.75 -1.63638,-1.75h-6.54552c-1.5055,0.00193 -2.7255,1.30664 -2.7273,2.91667v8.16667c0.0018,1.61003 1.2218,2.91474 2.7273,2.91667h5.72733c-1.95812,0 -3.54549,-1.69759 -3.54549,-3.79167zM2.7273,4.08334c0,-0.32217 0.24421,-0.58333 0.54546,-0.58333h4.36368c0.30125,0 0.54546,0.26117 0.54546,0.58333c0,0.32217 -0.24421,0.58333 -0.54546,0.58333h-4.36368c-0.30125,0 -0.54546,-0.26117 -0.54546,-0.58333zM11.8403,13.82909c-0.213,0.22772 -0.55828,0.22772 -0.77128,0l-1.31292,-1.40408c-0.38882,0.26539 -0.84021,0.40702 -1.30147,0.40833c-1.35562,0 -2.45457,-1.17525 -2.45457,-2.625c0,-1.44975 1.09895,-2.625 2.45457,-2.625c1.35562,0 2.45457,1.17525 2.45457,2.625c-0.00123,0.49329 -0.13366,0.97602 -0.38182,1.39183l1.31292,1.40408c0.21294,0.22779 0.21294,0.59704 0,0.82483z" vector-effect="non-scaling-stroke"/></defs></g></svg>