<svg version="1.2" xmlns="http://www.w3.org/2000/svg" xmlns:xlink="http://www.w3.org/1999/xlink" overflow="visible" preserveAspectRatio="none" viewBox="0 0 15 15" width="15" height="15"><g transform="translate(0, 0)"><g transform="translate(1.6653345369377348e-16, -5.551115123125783e-17) rotate(0)"><path d="M10.64857,1.47357h-6.29732v-1.07107c0,-0.22232 0.18018,-0.4025 0.4025,-0.4025h5.4925c0.22214,0 0.40232,0.18018 0.40232,0.40232zM6.29732,12.21786v2.37964c0,0.22232 -0.18018,0.4025 -0.4025,0.4025h-5.49232c-0.22232,0 -0.4025,-0.18018 -0.4025,-0.40232v-2.37982zM15,12.21786v2.37982c0,0.22214 -0.18018,0.40232 -0.4025,0.40232h-5.49232c-0.22232,0 -0.4025,-0.18018 -0.4025,-0.4025v-2.37964zM15,10.34321v1.07107h-6.29732v-1.07107c0,-0.22214 0.18018,-0.40232 0.4025,-0.40232h2.34429v-2.03929h-7.89911v2.03929h2.34446c0.22214,0 0.40232,0.18 0.40232,0.40232v1.07107h-6.29714v-1.07107c0,-0.22232 0.18018,-0.4025 0.4025,-0.40232h2.34429v-2.44107c0,-0.22179 0.18,-0.40179 0.40179,-0.40179h3.94964v-2.03875h-2.34429c-0.22232,0 -0.4025,-0.18018 -0.4025,-0.4025v-2.37982h6.29714v2.37982c0,0.22232 -0.18,0.4025 -0.40232,0.4025h-2.34446v2.03857h3.94964c0.22179,0 0.40179,0.18 0.40179,0.40179v2.44107h2.34446c0.22214,0 0.40232,0.18018 0.40232,0.4025z" style="stroke-width: 0; stroke-linecap: butt; stroke-linejoin: miter; fill: rgb(126, 138, 145);" vector-effect="non-scaling-stroke"/></g><defs><path id="path-1694214394354823487" d="M10.64857,1.47357h-6.29732v-1.07107c0,-0.22232 0.18018,-0.4025 0.4025,-0.4025h5.4925c0.22214,0 0.40232,0.18018 0.40232,0.40232zM6.29732,12.21786v2.37964c0,0.22232 -0.18018,0.4025 -0.4025,0.4025h-5.49232c-0.22232,0 -0.4025,-0.18018 -0.4025,-0.40232v-2.37982zM15,12.21786v2.37982c0,0.22214 -0.18018,0.40232 -0.4025,0.40232h-5.49232c-0.22232,0 -0.4025,-0.18018 -0.4025,-0.4025v-2.37964zM15,10.34321v1.07107h-6.29732v-1.07107c0,-0.22214 0.18018,-0.40232 0.4025,-0.40232h2.34429v-2.03929h-7.89911v2.03929h2.34446c0.22214,0 0.40232,0.18 0.40232,0.40232v1.07107h-6.29714v-1.07107c0,-0.22232 0.18018,-0.4025 0.4025,-0.40232h2.34429v-2.44107c0,-0.22179 0.18,-0.40179 0.40179,-0.40179h3.94964v-2.03875h-2.34429c-0.22232,0 -0.4025,-0.18018 -0.4025,-0.4025v-2.37982h6.29714v2.37982c0,0.22232 -0.18,0.4025 -0.40232,0.4025h-2.34446v2.03857h3.94964c0.22179,0 0.40179,0.18 0.40179,0.40179v2.44107h2.34446c0.22214,0 0.40232,0.18018 0.40232,0.4025z" vector-effect="non-scaling-stroke"/></defs></g></svg>