<svg version="1.2" xmlns="http://www.w3.org/2000/svg" xmlns:xlink="http://www.w3.org/1999/xlink" overflow="visible" preserveAspectRatio="none" viewBox="0 0 15 15" width="15" height="15"><g transform="translate(0, 0)"><defs><path id="path-1694725180730367" d="M14.622438382547577 11.008475125207882 C14.622438382547577 11.008475125207882 12.52473918056821 8.915182741467163 12.52473918056821 8.915182741467163 C11.775560894147006 8.16757831870262 10.501957807230964 8.466649291106203 10.202286492662482 9.438505837402344 C9.97753300673612 10.111379021188196 9.22835472031492 10.485181232570467 8.554094262535838 10.335631144719793 C7.055737689693433 9.961828933337522 5.032956316356187 8.018057434149712 4.658367173145585 6.448088146344174 C4.433613687219224 5.775214962558322 4.883120659071946 5.0276105397937805 5.557381116851028 4.803358416262181 C6.531312889198591 4.504316647156364 6.830984203767072 3.2333891284566434 6.081805917345869 2.4857847056921014 C6.081805917345869 2.4857847056921014 3.9841067153665026 0.3924923219513833 3.9841067153665026 0.3924923219513833 C3.3847640862295405 -0.13083077398379622 2.4857501425240978 -0.13083077398379622 1.9613253420292562 0.3924923219513833 C1.9613253420292562 0.3924923219513833 0.537886597828972 1.8129407252040133 0.537886597828972 1.8129407252040133 C-0.8855521463713123 3.3081495707330975 0.6877222551132126 7.27045301138517 4.208860201292864 10.784193798378519 C7.7299981474725135 14.297934585371866 11.700643065504886 15.942693518751621 13.19899963834729 14.447455469924774 C13.19899963834729 14.447455469924774 14.622438382547575 13.027007066672144 14.622438382547575 13.027007066672144 C15.14689244781923 12.428923528460512 15.14689244781923 11.531798221143061 14.622438382547577 11.008475125207882 Z" vector-effect="non-scaling-stroke"/></defs><g transform="translate(-0.015778931501313178, 1.3487624206302904e-15)"><path style="stroke-width: 0; stroke-linecap: butt; stroke-linejoin: miter; fill: rgb(126, 138, 145);" d="M14.622438382547577 11.008475125207882 C14.622438382547577 11.008475125207882 12.52473918056821 8.915182741467163 12.52473918056821 8.915182741467163 C11.775560894147006 8.16757831870262 10.501957807230964 8.466649291106203 10.202286492662482 9.438505837402344 C9.97753300673612 10.111379021188196 9.22835472031492 10.485181232570467 8.554094262535838 10.335631144719793 C7.055737689693433 9.961828933337522 5.032956316356187 8.018057434149712 4.658367173145585 6.448088146344174 C4.433613687219224 5.775214962558322 4.883120659071946 5.0276105397937805 5.557381116851028 4.803358416262181 C6.531312889198591 4.504316647156364 6.830984203767072 3.2333891284566434 6.081805917345869 2.4857847056921014 C6.081805917345869 2.4857847056921014 3.9841067153665026 0.3924923219513833 3.9841067153665026 0.3924923219513833 C3.3847640862295405 -0.13083077398379622 2.4857501425240978 -0.13083077398379622 1.9613253420292562 0.3924923219513833 C1.9613253420292562 0.3924923219513833 0.537886597828972 1.8129407252040133 0.537886597828972 1.8129407252040133 C-0.8855521463713123 3.3081495707330975 0.6877222551132126 7.27045301138517 4.208860201292864 10.784193798378519 C7.7299981474725135 14.297934585371866 11.700643065504886 15.942693518751621 13.19899963834729 14.447455469924774 C13.19899963834729 14.447455469924774 14.622438382547575 13.027007066672144 14.622438382547575 13.027007066672144 C15.14689244781923 12.428923528460512 15.14689244781923 11.531798221143061 14.622438382547577 11.008475125207882 Z" vector-effect="non-scaling-stroke"/></g></g></svg>