<svg version="1.2" xmlns="http://www.w3.org/2000/svg" xmlns:xlink="http://www.w3.org/1999/xlink" overflow="visible" preserveAspectRatio="none" viewBox="0 0 18.000000000000004 18.000000000000004" width="18.000000000000004" height="18.000000000000004"><g transform="translate(0, 0)"><g transform="translate(2.1094237467877974e-15, -1.4432899320127035e-15) rotate(0)"><path d="M5.24964,9c0,-2.07107 1.67893,-3.75 3.75,-3.75c2.07107,0 3.75,1.67893 3.75,3.75c0,2.07107 -1.67893,3.75 -3.75,3.75c-2.07107,0 -3.75,-1.67893 -3.75,-3.75zM18,9c0,0.414 -0.33525,0.75 -0.75,0.75h-0.78825c-0.3525,3.53775 -3.174,6.3585 -6.71175,6.71175v0.78825c0,0.414 -0.33525,0.75 -0.75,0.75c-0.41475,0 -0.75,-0.336 -0.75,-0.75v-0.78825c-3.53775,-0.3525 -6.3585,-3.174 -6.71175,-6.71175h-0.78825c-0.41475,0 -0.75,-0.336 -0.75,-0.75c0,-0.414 0.33525,-0.75 0.75,-0.75h0.78825c0.3525,-3.53775 3.174,-6.35925 6.71175,-6.71175v-0.78825c0,-0.414 0.33525,-0.75 0.75,-0.75c0.41475,0 0.75,0.336 0.75,0.75v0.78825c3.53775,0.3525 6.35925,3.174 6.71175,6.71175h0.78825c0.41475,0 0.75,0.336 0.75,0.75zM14.94975,9.7395c-0.39,-0.027 -0.69975,-0.3435 -0.69975,-0.7395c0,-0.396 0.30975,-0.7125 0.699,-0.74025c-0.336,-2.7165 -2.493,-4.8735 -5.2095,-5.2095c-0.027,0.38925 -0.34275,0.69975 -0.7395,0.69975c-0.39675,0 -0.7125,-0.3105 -0.74025,-0.699c-2.7165,0.336 -4.8735,2.493 -5.2095,5.2095c0.39,0.027 0.69975,0.3435 0.69975,0.7395c0,0.396 -0.30975,0.7125 -0.699,0.74025c0.336,2.7165 2.493,4.8735 5.2095,5.2095c0.027,-0.38925 0.34275,-0.69975 0.7395,-0.69975c0.39675,0 0.7125,0.3105 0.7395,0.69975c2.71725,-0.33675 4.8735,-2.493 5.21025,-5.21025z" style="stroke-width: 0; stroke-linecap: butt; stroke-linejoin: miter; fill: rgb(149, 154, 166);" vector-effect="non-scaling-stroke"/></g><defs><path id="path-169651623826620047" d="M5.24964,9c0,-2.07107 1.67893,-3.75 3.75,-3.75c2.07107,0 3.75,1.67893 3.75,3.75c0,2.07107 -1.67893,3.75 -3.75,3.75c-2.07107,0 -3.75,-1.67893 -3.75,-3.75zM18,9c0,0.414 -0.33525,0.75 -0.75,0.75h-0.78825c-0.3525,3.53775 -3.174,6.3585 -6.71175,6.71175v0.78825c0,0.414 -0.33525,0.75 -0.75,0.75c-0.41475,0 -0.75,-0.336 -0.75,-0.75v-0.78825c-3.53775,-0.3525 -6.3585,-3.174 -6.71175,-6.71175h-0.78825c-0.41475,0 -0.75,-0.336 -0.75,-0.75c0,-0.414 0.33525,-0.75 0.75,-0.75h0.78825c0.3525,-3.53775 3.174,-6.35925 6.71175,-6.71175v-0.78825c0,-0.414 0.33525,-0.75 0.75,-0.75c0.41475,0 0.75,0.336 0.75,0.75v0.78825c3.53775,0.3525 6.35925,3.174 6.71175,6.71175h0.78825c0.41475,0 0.75,0.336 0.75,0.75zM14.94975,9.7395c-0.39,-0.027 -0.69975,-0.3435 -0.69975,-0.7395c0,-0.396 0.30975,-0.7125 0.699,-0.74025c-0.336,-2.7165 -2.493,-4.8735 -5.2095,-5.2095c-0.027,0.38925 -0.34275,0.69975 -0.7395,0.69975c-0.39675,0 -0.7125,-0.3105 -0.74025,-0.699c-2.7165,0.336 -4.8735,2.493 -5.2095,5.2095c0.39,0.027 0.69975,0.3435 0.69975,0.7395c0,0.396 -0.30975,0.7125 -0.699,0.74025c0.336,2.7165 2.493,4.8735 5.2095,5.2095c0.027,-0.38925 0.34275,-0.69975 0.7395,-0.69975c0.39675,0 0.7125,0.3105 0.7395,0.69975c2.71725,-0.33675 4.8735,-2.493 5.21025,-5.21025z" vector-effect="non-scaling-stroke"/></defs></g></svg>