<svg version="1.2" xmlns="http://www.w3.org/2000/svg" xmlns:xlink="http://www.w3.org/1999/xlink" overflow="visible" preserveAspectRatio="none" viewBox="0 0 14 13.99999" width="14" height="13.99999"><g transform="translate(0, 0)"><g transform="translate(0, -0.000010000000000509601) rotate(0)"><path style="stroke-width: 0; stroke-linecap: butt; stroke-linejoin: miter; fill: rgb(255, 255, 255);" d="M7,3.22266v0.00266l2.61975,1.09252l-2.61975,0.99425l-7,-2.65604l7,-2.65604l7,2.65604l-2.63025,0.99779l-2.61975,-1.18725v0.00354zM6,6.38127v7.61873l-6,-2.38127v-7.61873zM3.2,10.74342l-1.6,-0.63489v0.90324l1.6,0.63489zM14,3.54139v7.96813l-6.5625,2.49048v-7.96813l2.1875,-0.83046v2.2178l1.75,-0.66401v-2.2178z" vector-effect="non-scaling-stroke"/></g><defs><path id="path-1694725180667248" d="M7,3.22266v0.00266l2.61975,1.09252l-2.61975,0.99425l-7,-2.65604l7,-2.65604l7,2.65604l-2.63025,0.99779l-2.61975,-1.18725v0.00354zM6,6.38127v7.61873l-6,-2.38127v-7.61873zM3.2,10.74342l-1.6,-0.63489v0.90324l1.6,0.63489zM14,3.54139v7.96813l-6.5625,2.49048v-7.96813l2.1875,-0.83046v2.2178l1.75,-0.66401v-2.2178z" vector-effect="non-scaling-stroke"/></defs></g></svg>