<svg version="1.2" xmlns="http://www.w3.org/2000/svg" xmlns:xlink="http://www.w3.org/1999/xlink" overflow="visible" preserveAspectRatio="none" viewBox="0 0 17 24" width="17" height="24"><g transform="translate(0, 0)"><g transform="translate(0, -4.440892098500626e-16) rotate(0)"><path d="M5.1,2.2v1.7c0,1.9 1.5,3.4 3.4,3.4c1.9,0 3.4,-1.5 3.4,-3.4v-1.7h2.1c1.7,0 3,1.3 3,3v15.8c0,1.6 -1.3,3 -3,3h-11c-1.7,0 -3,-1.3 -3,-3v-15.8c0,-1.6 1.3,-3 3,-3zM6.3,12.7c0,1.2 1,2.2 2.2,2.2c1.2,0 2.2,-1 2.2,-2.2c0,-1.2 -1,-2.2 -2.2,-2.2c-1.2,0 -2.2,1 -2.2,2.2zM4.5,18.2c-0.5,0.9 0.1,2 1.2,2h5.7c1.1,0 1.7,-1.2 1.2,-2.1c-0.4,-0.6 -0.8,-1.1 -1.4,-1.5c-0.2,-0.1 -0.5,-0.1 -0.7,0c-0.6,0.2 -1.3,0.4 -2,0.4c-0.7,0 -1.3,-0.1 -1.9,-0.4c-0.2,-0.1 -0.5,-0.2 -0.7,0c-0.6,0.4 -1.1,0.9 -1.4,1.6zM8.5,5.4c-0.8,0 -1.5,-0.7 -1.5,-1.5v-2.4c0,-0.8 0.7,-1.5 1.5,-1.5c0.8,0 1.5,0.7 1.5,1.5v2.4c0,0.8 -0.7,1.5 -1.5,1.5z" style="stroke-width: 0; stroke-linecap: butt; stroke-linejoin: miter; fill: rgb(55, 78, 179);" vector-effect="non-scaling-stroke"/></g><defs><path id="path-1694026680903638460" d="M5.1,2.2v1.7c0,1.9 1.5,3.4 3.4,3.4c1.9,0 3.4,-1.5 3.4,-3.4v-1.7h2.1c1.7,0 3,1.3 3,3v15.8c0,1.6 -1.3,3 -3,3h-11c-1.7,0 -3,-1.3 -3,-3v-15.8c0,-1.6 1.3,-3 3,-3zM6.3,12.7c0,1.2 1,2.2 2.2,2.2c1.2,0 2.2,-1 2.2,-2.2c0,-1.2 -1,-2.2 -2.2,-2.2c-1.2,0 -2.2,1 -2.2,2.2zM4.5,18.2c-0.5,0.9 0.1,2 1.2,2h5.7c1.1,0 1.7,-1.2 1.2,-2.1c-0.4,-0.6 -0.8,-1.1 -1.4,-1.5c-0.2,-0.1 -0.5,-0.1 -0.7,0c-0.6,0.2 -1.3,0.4 -2,0.4c-0.7,0 -1.3,-0.1 -1.9,-0.4c-0.2,-0.1 -0.5,-0.2 -0.7,0c-0.6,0.4 -1.1,0.9 -1.4,1.6zM8.5,5.4c-0.8,0 -1.5,-0.7 -1.5,-1.5v-2.4c0,-0.8 0.7,-1.5 1.5,-1.5c0.8,0 1.5,0.7 1.5,1.5v2.4c0,0.8 -0.7,1.5 -1.5,1.5z" vector-effect="non-scaling-stroke"/></defs></g></svg>