<svg version="1.2" xmlns="http://www.w3.org/2000/svg" xmlns:xlink="http://www.w3.org/1999/xlink" overflow="visible" preserveAspectRatio="none" viewBox="0 0 13.999972234396441 14" width="13.999972234396441" height="14"><g transform="translate(0, 0)"><g transform="translate(-5.237849213398336e-7, 0) rotate(0)"><path style="stroke-width: 0; stroke-linecap: butt; stroke-linejoin: miter; fill: rgb(255, 255, 255);" d="M5.24988,1.75c0,-0.9665 0.78349,-1.75 1.74996,-1.75c0.96648,0 1.74996,0.7835 1.74996,1.75c0,0.9665 -0.78349,1.75 -1.74996,1.75c-0.96648,0 -1.74996,-0.7835 -1.74996,-1.75zM9.51542,8.60125c-0.08312,0.0945 -0.20212,0.14875 -0.32812,0.14875h-0.47162l-0.36487,4.45462c-0.0455,0.45587 -0.41999,0.79538 -0.87148,0.79538h-0.95811c-0.45149,0 -0.82686,-0.3395 -0.87061,-0.7875l-0.36574,-4.4625h-0.47249c-0.126,0 -0.245,-0.05425 -0.32812,-0.14875c-0.08312,-0.09362 -0.12162,-0.21962 -0.10587,-0.34387l0.39812,-3.10625c0.04375,-0.4375 0.41824,-0.77612 0.86973,-0.77612h0.47862c0.11637,0 0.2275,0.04638 0.30974,0.12775l0.56524,0.56525l0.56524,-0.56525c0.08225,-0.08137 0.19337,-0.12775 0.30974,-0.12775h0.47949c0.45062,0 0.82511,0.33862 0.86973,0.7875l0.39724,3.094c0.01662,0.12513 -0.02187,0.25113 -0.10587,0.34475zM9.62479,1.75c0,-0.9665 0.78349,-1.75 1.74996,-1.75c0.96648,0 1.74996,0.7835 1.74996,1.75c0,0.9665 -0.78349,1.75 -1.74996,1.75c-0.96648,0 -1.74996,-0.7835 -1.74996,-1.75zM4.3749,1.75c0,0.96512 -0.78573,1.75 -1.74996,1.75c-0.96511,0 -1.74996,-0.78488 -1.74996,-1.75c0,-0.96513 0.78486,-1.75 1.74996,-1.75c0.96423,0 1.74996,0.78487 1.74996,1.75zM13.89033,8.60125c-0.08312,0.0945 -0.20212,0.14875 -0.32812,0.14875h-0.47162l-0.36399,3.57962c-0.0455,0.45587 -0.41999,0.79538 -0.87148,0.79538h-0.95811c-0.45149,0 -0.82598,-0.33862 -0.87061,-0.7875l-0.29049,-2.84637c0.16275,-0.07525 0.31499,-0.1715 0.43399,-0.308c0.25199,-0.28438 0.36924,-0.66237 0.32024,-1.03775l-0.39637,-3.0835c-0.02625,-0.24238 -0.11462,-0.4585 -0.2275,-0.658c0.05162,-0.00963 0.10062,-0.02887 0.15487,-0.02887h0.47949c0.1155,0 0.22662,0.04638 0.30887,0.12775l0.56524,0.56525l0.56524,-0.56525c0.08225,-0.08137 0.19337,-0.12775 0.30974,-0.12775h0.47949c0.45149,0 0.82511,0.33862 0.86973,0.78837l0.39724,3.09312c0.01662,0.12513 -0.02187,0.25113 -0.10587,0.34475zM4.26637,9.49025l-0.29049,2.83938c-0.0455,0.45587 -0.41999,0.79538 -0.87148,0.79538h-0.95811c-0.45149,0 -0.82686,-0.3395 -0.87061,-0.7875l-0.36574,-3.5875h-0.47249c-0.12512,0 -0.245,-0.05425 -0.32812,-0.14875c-0.08312,-0.09362 -0.12162,-0.21962 -0.10587,-0.34387l0.39812,-3.10625c0.04375,-0.4375 0.41824,-0.77612 0.86973,-0.77612h0.47952c0.1155,0 0.22662,0.04638 0.30887,0.12775l0.56524,0.56525l0.56524,-0.56525c0.08225,-0.08137 0.19337,-0.12775 0.30974,-0.12775h0.47949c0.05162,0 0.098,0.01925 0.147,0.028c-0.10937,0.19425 -0.19512,0.40425 -0.21787,0.637l-0.39812,3.10712c-0.04725,0.37363 0.06825,0.75075 0.31674,1.03163c0.1225,0.13825 0.27562,0.23537 0.43921,0.3115z" vector-effect="non-scaling-stroke"/></g><defs><path id="path-1694725180670260" d="M5.24988,1.75c0,-0.9665 0.78349,-1.75 1.74996,-1.75c0.96648,0 1.74996,0.7835 1.74996,1.75c0,0.9665 -0.78349,1.75 -1.74996,1.75c-0.96648,0 -1.74996,-0.7835 -1.74996,-1.75zM9.51542,8.60125c-0.08312,0.0945 -0.20212,0.14875 -0.32812,0.14875h-0.47162l-0.36487,4.45462c-0.0455,0.45587 -0.41999,0.79538 -0.87148,0.79538h-0.95811c-0.45149,0 -0.82686,-0.3395 -0.87061,-0.7875l-0.36574,-4.4625h-0.47249c-0.126,0 -0.245,-0.05425 -0.32812,-0.14875c-0.08312,-0.09362 -0.12162,-0.21962 -0.10587,-0.34387l0.39812,-3.10625c0.04375,-0.4375 0.41824,-0.77612 0.86973,-0.77612h0.47862c0.11637,0 0.2275,0.04638 0.30974,0.12775l0.56524,0.56525l0.56524,-0.56525c0.08225,-0.08137 0.19337,-0.12775 0.30974,-0.12775h0.47949c0.45062,0 0.82511,0.33862 0.86973,0.7875l0.39724,3.094c0.01662,0.12513 -0.02187,0.25113 -0.10587,0.34475zM9.62479,1.75c0,-0.9665 0.78349,-1.75 1.74996,-1.75c0.96648,0 1.74996,0.7835 1.74996,1.75c0,0.9665 -0.78349,1.75 -1.74996,1.75c-0.96648,0 -1.74996,-0.7835 -1.74996,-1.75zM4.3749,1.75c0,0.96512 -0.78573,1.75 -1.74996,1.75c-0.96511,0 -1.74996,-0.78488 -1.74996,-1.75c0,-0.96513 0.78486,-1.75 1.74996,-1.75c0.96423,0 1.74996,0.78487 1.74996,1.75zM13.89033,8.60125c-0.08312,0.0945 -0.20212,0.14875 -0.32812,0.14875h-0.47162l-0.36399,3.57962c-0.0455,0.45587 -0.41999,0.79538 -0.87148,0.79538h-0.95811c-0.45149,0 -0.82598,-0.33862 -0.87061,-0.7875l-0.29049,-2.84637c0.16275,-0.07525 0.31499,-0.1715 0.43399,-0.308c0.25199,-0.28438 0.36924,-0.66237 0.32024,-1.03775l-0.39637,-3.0835c-0.02625,-0.24238 -0.11462,-0.4585 -0.2275,-0.658c0.05162,-0.00963 0.10062,-0.02887 0.15487,-0.02887h0.47949c0.1155,0 0.22662,0.04638 0.30887,0.12775l0.56524,0.56525l0.56524,-0.56525c0.08225,-0.08137 0.19337,-0.12775 0.30974,-0.12775h0.47949c0.45149,0 0.82511,0.33862 0.86973,0.78837l0.39724,3.09312c0.01662,0.12513 -0.02187,0.25113 -0.10587,0.34475zM4.26637,9.49025l-0.29049,2.83938c-0.0455,0.45587 -0.41999,0.79538 -0.87148,0.79538h-0.95811c-0.45149,0 -0.82686,-0.3395 -0.87061,-0.7875l-0.36574,-3.5875h-0.47249c-0.12512,0 -0.245,-0.05425 -0.32812,-0.14875c-0.08312,-0.09362 -0.12162,-0.21962 -0.10587,-0.34387l0.39812,-3.10625c0.04375,-0.4375 0.41824,-0.77612 0.86973,-0.77612h0.47952c0.1155,0 0.22662,0.04638 0.30887,0.12775l0.56524,0.56525l0.56524,-0.56525c0.08225,-0.08137 0.19337,-0.12775 0.30974,-0.12775h0.47949c0.05162,0 0.098,0.01925 0.147,0.028c-0.10937,0.19425 -0.19512,0.40425 -0.21787,0.637l-0.39812,3.10712c-0.04725,0.37363 0.06825,0.75075 0.31674,1.03163c0.1225,0.13825 0.27562,0.23537 0.43921,0.3115z" vector-effect="non-scaling-stroke"/></defs></g></svg>