<svg version="1.2" xmlns="http://www.w3.org/2000/svg" xmlns:xlink="http://www.w3.org/1999/xlink" overflow="visible" preserveAspectRatio="none" viewBox="0 0 14 17" width="14" height="17"><g transform="translate(0, 0)"><g transform="translate(-8.881784197001252e-16, 4.440892098500626e-16) rotate(0)"><path d="M10.8,1.38372v0.7907c0,0.76287 -0.62816,1.38372 -1.4,1.38372h-4.8c-0.77184,0 -1.4,-0.62086 -1.4,-1.38372v-0.7907c0,-0.76287 0.62816,-1.38372 1.4,-1.38372h4.8c0.77184,0 1.4,0.62086 1.4,1.38372zM14,3.75581v11.06977c0,1.19917 -0.98672,2.17442 -2.2,2.17442h-9.6c-1.21328,0 -2.2,-0.97525 -2.2,-2.17442v-11.06977c0,-1.13149 0.88168,-2.05273 2,-2.15441v0.57302c0,1.41693 1.1664,2.56977 2.6,2.56977h4.8c1.4336,0 2.6,-1.15284 2.6,-2.56977v-0.57302c1.11832,0.10168 2,1.023 2,2.15441zM10.8,14.03488c0,-0.32743 -0.26872,-0.59302 -0.6,-0.59302h-6.4c-0.33128,0 -0.6,0.2656 -0.6,0.59302c0,0.32743 0.26872,0.59302 0.6,0.59302h6.4c0.33128,0 0.6,-0.2656 0.6,-0.59302zM10.8,10.87209c0,-0.32743 -0.26872,-0.59302 -0.6,-0.59302h-6.4c-0.33128,0 -0.6,0.2656 -0.6,0.59302c0,0.32743 0.26872,0.59302 0.6,0.59302h6.4c0.33128,0 0.6,-0.2656 0.6,-0.59302zM10.8,7.7093c0,-0.32743 -0.26872,-0.59302 -0.6,-0.59302h-6.4c-0.33128,0 -0.6,0.2656 -0.6,0.59302c0,0.32743 0.26872,0.59302 0.6,0.59302h6.4c0.33128,0 0.6,-0.2656 0.6,-0.59302z" style="stroke-width: 0; stroke-linecap: butt; stroke-linejoin: miter; fill: rgb(126, 138, 145);" vector-effect="non-scaling-stroke"/></g><defs><path id="path-16940178863723686" d="M10.8,1.38372v0.7907c0,0.76287 -0.62816,1.38372 -1.4,1.38372h-4.8c-0.77184,0 -1.4,-0.62086 -1.4,-1.38372v-0.7907c0,-0.76287 0.62816,-1.38372 1.4,-1.38372h4.8c0.77184,0 1.4,0.62086 1.4,1.38372zM14,3.75581v11.06977c0,1.19917 -0.98672,2.17442 -2.2,2.17442h-9.6c-1.21328,0 -2.2,-0.97525 -2.2,-2.17442v-11.06977c0,-1.13149 0.88168,-2.05273 2,-2.15441v0.57302c0,1.41693 1.1664,2.56977 2.6,2.56977h4.8c1.4336,0 2.6,-1.15284 2.6,-2.56977v-0.57302c1.11832,0.10168 2,1.023 2,2.15441zM10.8,14.03488c0,-0.32743 -0.26872,-0.59302 -0.6,-0.59302h-6.4c-0.33128,0 -0.6,0.2656 -0.6,0.59302c0,0.32743 0.26872,0.59302 0.6,0.59302h6.4c0.33128,0 0.6,-0.2656 0.6,-0.59302zM10.8,10.87209c0,-0.32743 -0.26872,-0.59302 -0.6,-0.59302h-6.4c-0.33128,0 -0.6,0.2656 -0.6,0.59302c0,0.32743 0.26872,0.59302 0.6,0.59302h6.4c0.33128,0 0.6,-0.2656 0.6,-0.59302zM10.8,7.7093c0,-0.32743 -0.26872,-0.59302 -0.6,-0.59302h-6.4c-0.33128,0 -0.6,0.2656 -0.6,0.59302c0,0.32743 0.26872,0.59302 0.6,0.59302h6.4c0.33128,0 0.6,-0.2656 0.6,-0.59302z" vector-effect="non-scaling-stroke"/></defs></g></svg>