<svg version="1.2" xmlns="http://www.w3.org/2000/svg" xmlns:xlink="http://www.w3.org/1999/xlink" overflow="visible" preserveAspectRatio="none" viewBox="0 0 11.000011904620223 13.999994696977009" width="11.000011904620223" height="13.999994696977009"><g transform="translate(0, 0)"><g transform="translate(0, -3.552713678800501e-15) rotate(0)"><path d="M4.50005,10.20833c0.00128,-1.51862 0.77911,-2.88986 1.97674,-3.48482c1.19763,-0.59496 2.58402,-0.29887 3.52332,0.75249v-5.726c0,-0.9665 -0.67158,-1.75 -1.50002,-1.75h-6.00006c-1.38004,0.00193 -2.49837,1.30664 -2.50003,2.91667v8.16666c0.00165,1.61003 1.11999,2.91474 2.50003,2.91667h5.25006c-1.79494,0 -3.25004,-1.69759 -3.25004,-3.79167zM2.50003,4.08333c0,-0.32217 0.22386,-0.58333 0.50001,-0.58333h4.00004c0.27615,0 0.50001,0.26117 0.50001,0.58333c0,0.32217 -0.22386,0.58333 -0.50001,0.58333h-4.00004c-0.27615,0 -0.50001,-0.26117 -0.50001,-0.58333zM10.85362,13.82908c-0.19525,0.22772 -0.51176,0.22772 -0.70701,0l-1.20351,-1.40408c-0.35641,0.26539 -0.77019,0.40702 -1.19301,0.40833c-1.24265,0 -2.25002,-1.17525 -2.25002,-2.625c0,-1.44975 1.00737,-2.625 2.25002,-2.625c1.24265,0 2.25002,1.17525 2.25002,2.625c-0.00113,0.49329 -0.12252,0.97602 -0.35,1.39183l1.20351,1.40408c0.19519,0.22779 0.19519,0.59704 0,0.82483z" style="stroke-width: 0; stroke-linecap: butt; stroke-linejoin: miter; fill: rgb(255, 255, 255);" vector-effect="non-scaling-stroke"/></g><defs><path id="path-1696265770902241286" d="M4.50005,10.20833c0.00128,-1.51862 0.77911,-2.88986 1.97674,-3.48482c1.19763,-0.59496 2.58402,-0.29887 3.52332,0.75249v-5.726c0,-0.9665 -0.67158,-1.75 -1.50002,-1.75h-6.00006c-1.38004,0.00193 -2.49837,1.30664 -2.50003,2.91667v8.16666c0.00165,1.61003 1.11999,2.91474 2.50003,2.91667h5.25006c-1.79494,0 -3.25004,-1.69759 -3.25004,-3.79167zM2.50003,4.08333c0,-0.32217 0.22386,-0.58333 0.50001,-0.58333h4.00004c0.27615,0 0.50001,0.26117 0.50001,0.58333c0,0.32217 -0.22386,0.58333 -0.50001,0.58333h-4.00004c-0.27615,0 -0.50001,-0.26117 -0.50001,-0.58333zM10.85362,13.82908c-0.19525,0.22772 -0.51176,0.22772 -0.70701,0l-1.20351,-1.40408c-0.35641,0.26539 -0.77019,0.40702 -1.19301,0.40833c-1.24265,0 -2.25002,-1.17525 -2.25002,-2.625c0,-1.44975 1.00737,-2.625 2.25002,-2.625c1.24265,0 2.25002,1.17525 2.25002,2.625c-0.00113,0.49329 -0.12252,0.97602 -0.35,1.39183l1.20351,1.40408c0.19519,0.22779 0.19519,0.59704 0,0.82483z" vector-effect="non-scaling-stroke"/></defs></g></svg>