<svg version="1.2" xmlns="http://www.w3.org/2000/svg" xmlns:xlink="http://www.w3.org/1999/xlink" overflow="visible" preserveAspectRatio="none" viewBox="0 0 14.00000076160413 14.00002" width="14.00000076160413" height="14.00002"><g transform="translate(0, 0)"><g transform="translate(3.1086244689504383e-15, -4.440892098500626e-16) rotate(0)"><path d="M13.23231,5.47984l-1.09671,-0.13942c-0.09042,-0.27825 -0.20184,-0.54658 -0.33193,-0.8015l0.67728,-0.87208c0.27418,-0.35292 0.24209,-0.85108 -0.07117,-1.15442l-0.91879,-0.91875c-0.30626,-0.31617 -0.80445,-0.34767 -1.15797,-0.07408l-0.87095,0.67725c-0.25493,-0.13008 -0.52327,-0.2415 -0.80212,-0.33192l-0.13942,-1.09492c-0.0525,-0.43925 -0.42527,-0.77 -0.86687,-0.77h-1.30672c-0.4416,0 -0.81437,0.33075 -0.86687,0.76825l-0.13942,1.09667c-0.27885,0.09042 -0.54719,0.20125 -0.80212,0.33192l-0.87154,-0.67725c-0.35235,-0.27358 -0.85054,-0.24208 -1.15447,0.07117l-0.91879,0.91817c-0.31618,0.30683 -0.34826,0.805 -0.07409,1.1585l0.67728,0.8715c-0.13067,0.25492 -0.24151,0.52325 -0.33193,0.8015l-1.09496,0.13942c-0.43927,0.0525 -0.77003,0.42525 -0.77003,0.86683v1.30667c0,0.44158 0.33076,0.81433 0.76828,0.86683l1.09671,0.13942c0.09042,0.27825 0.20184,0.54658 0.33193,0.8015l-0.67728,0.87208c-0.27418,0.35292 -0.24209,0.85108 0.07117,1.15442l0.91879,0.91875c0.30685,0.31558 0.80445,0.34708 1.15797,0.0735l0.87154,-0.67725c0.25493,0.13067 0.52327,0.24208 0.80153,0.33192l0.13942,1.09433c0.0525,0.44042 0.42527,0.77117 0.86687,0.77117h1.30672c0.4416,0 0.81437,-0.33075 0.86687,-0.76825l0.13942,-1.09667c0.27826,-0.09042 0.54661,-0.20183 0.80153,-0.33192l0.87212,0.67725c0.35293,0.27417 0.85112,0.24208 1.15447,-0.07117l0.91879,-0.91875c0.31618,-0.30683 0.34826,-0.80442 0.07409,-1.15792l-0.67728,-0.8715c0.13067,-0.25492 0.24209,-0.52325 0.33193,-0.8015l1.09438,-0.13942c0.43927,-0.0525 0.77003,-0.42525 0.77003,-0.86683v-1.30667c0.00058,-0.44158 -0.33018,-0.81433 -0.7677,-0.86683zM7.0003,9.91668c-1.60832,0 -2.91679,-1.30842 -2.91679,-2.91667c0,-1.60825 1.30847,-2.91667 2.91679,-2.91667c1.60832,0 2.91679,1.30842 2.91679,2.91667c0,1.60825 -1.30847,2.91667 -2.91679,2.91667z" style="stroke-width: 0; stroke-linecap: butt; stroke-linejoin: miter; fill: rgb(126, 138, 145);" vector-effect="non-scaling-stroke"/></g><defs><path id="path-16940353807651483" d="M13.23231,5.47984l-1.09671,-0.13942c-0.09042,-0.27825 -0.20184,-0.54658 -0.33193,-0.8015l0.67728,-0.87208c0.27418,-0.35292 0.24209,-0.85108 -0.07117,-1.15442l-0.91879,-0.91875c-0.30626,-0.31617 -0.80445,-0.34767 -1.15797,-0.07408l-0.87095,0.67725c-0.25493,-0.13008 -0.52327,-0.2415 -0.80212,-0.33192l-0.13942,-1.09492c-0.0525,-0.43925 -0.42527,-0.77 -0.86687,-0.77h-1.30672c-0.4416,0 -0.81437,0.33075 -0.86687,0.76825l-0.13942,1.09667c-0.27885,0.09042 -0.54719,0.20125 -0.80212,0.33192l-0.87154,-0.67725c-0.35235,-0.27358 -0.85054,-0.24208 -1.15447,0.07117l-0.91879,0.91817c-0.31618,0.30683 -0.34826,0.805 -0.07409,1.1585l0.67728,0.8715c-0.13067,0.25492 -0.24151,0.52325 -0.33193,0.8015l-1.09496,0.13942c-0.43927,0.0525 -0.77003,0.42525 -0.77003,0.86683v1.30667c0,0.44158 0.33076,0.81433 0.76828,0.86683l1.09671,0.13942c0.09042,0.27825 0.20184,0.54658 0.33193,0.8015l-0.67728,0.87208c-0.27418,0.35292 -0.24209,0.85108 0.07117,1.15442l0.91879,0.91875c0.30685,0.31558 0.80445,0.34708 1.15797,0.0735l0.87154,-0.67725c0.25493,0.13067 0.52327,0.24208 0.80153,0.33192l0.13942,1.09433c0.0525,0.44042 0.42527,0.77117 0.86687,0.77117h1.30672c0.4416,0 0.81437,-0.33075 0.86687,-0.76825l0.13942,-1.09667c0.27826,-0.09042 0.54661,-0.20183 0.80153,-0.33192l0.87212,0.67725c0.35293,0.27417 0.85112,0.24208 1.15447,-0.07117l0.91879,-0.91875c0.31618,-0.30683 0.34826,-0.80442 0.07409,-1.15792l-0.67728,-0.8715c0.13067,-0.25492 0.24209,-0.52325 0.33193,-0.8015l1.09438,-0.13942c0.43927,-0.0525 0.77003,-0.42525 0.77003,-0.86683v-1.30667c0.00058,-0.44158 -0.33018,-0.81433 -0.7677,-0.86683zM7.0003,9.91668c-1.60832,0 -2.91679,-1.30842 -2.91679,-2.91667c0,-1.60825 1.30847,-2.91667 2.91679,-2.91667c1.60832,0 2.91679,1.30842 2.91679,2.91667c0,1.60825 -1.30847,2.91667 -2.91679,2.91667z" vector-effect="non-scaling-stroke"/></defs></g></svg>
