<svg version="1.2" xmlns="http://www.w3.org/2000/svg" xmlns:xlink="http://www.w3.org/1999/xlink" overflow="visible" preserveAspectRatio="none" viewBox="0 0 16 16" width="16" height="16"><g transform="translate(0, 0)"><defs><path id="path-169401793226265534" d="M0 3.0000000000000004 C0 1.3431457506000002 1.3431457506000002 0 3.0000000000000004 0 C3.0000000000000004 0 13 0 13 0 C14.6568542494 0 16 1.3431457506000002 16 3.0000000000000004 C16 3.0000000000000004 16 13 16 13 C16 14.6568542494 14.6568542494 16 13 16 C13 16 3.0000000000000004 16 3.0000000000000004 16 C1.3431457506000002 16 0 14.6568542494 0 13 C0 13 0 3.0000000000000004 0 3.0000000000000004 Z" vector-effect="non-scaling-stroke"/></defs><g transform="translate(0, 0)"><path d="M0 3.0000000000000004 C0 1.3431457506000002 1.3431457506000002 0 3.0000000000000004 0 C3.0000000000000004 0 13 0 13 0 C14.6568542494 0 16 1.3431457506000002 16 3.0000000000000004 C16 3.0000000000000004 16 13 16 13 C16 14.6568542494 14.6568542494 16 13 16 C13 16 3.0000000000000004 16 3.0000000000000004 16 C1.3431457506000002 16 0 14.6568542494 0 13 C0 13 0 3.0000000000000004 0 3.0000000000000004 Z" style="stroke: rgb(140, 140, 140); stroke-width: 0; stroke-linecap: butt; stroke-linejoin: miter; fill: rgb(218, 218, 218);" vector-effect="non-scaling-stroke"/></g></g></svg>