<svg version="1.2" xmlns="http://www.w3.org/2000/svg" xmlns:xlink="http://www.w3.org/1999/xlink" overflow="visible" preserveAspectRatio="none" viewBox="0 0 14.000010000000001 13.000000000000002" width="14.000010000000001" height="13.000000000000002"><g transform="translate(0, 0)"><g transform="translate(2.220446049250313e-16, 0) rotate(0)"><path style="stroke-width: 0; stroke-linecap: butt; stroke-linejoin: miter; fill: rgb(255, 255, 255);" d="M3.78292,13h-2.61625c-0.64458,0 -1.16667,-0.58175 -1.16667,-1.3v-5.85c0,-0.71825 0.52208,-1.3 1.16667,-1.3h2.61625zM4.94959,3.92275c0,-0.7306 0.53142,-1.32275 1.18708,-1.32275h1.67825c0.65567,0 1.18708,0.59215 1.18708,1.32275v9.07725h-4.05242zM10.16867,1.32275c0,-0.7306 0.53142,-1.32275 1.1865,-1.32275h1.47817c0.64458,0 1.16667,0.58175 1.16667,1.3v10.4c0,0.71825 -0.52208,1.3 -1.16667,1.3h-2.66467z" vector-effect="non-scaling-stroke"/></g><defs><path id="path-1694725180683288" d="M3.78292,13h-2.61625c-0.64458,0 -1.16667,-0.58175 -1.16667,-1.3v-5.85c0,-0.71825 0.52208,-1.3 1.16667,-1.3h2.61625zM4.94959,3.92275c0,-0.7306 0.53142,-1.32275 1.18708,-1.32275h1.67825c0.65567,0 1.18708,0.59215 1.18708,1.32275v9.07725h-4.05242zM10.16867,1.32275c0,-0.7306 0.53142,-1.32275 1.1865,-1.32275h1.47817c0.64458,0 1.16667,0.58175 1.16667,1.3v10.4c0,0.71825 -0.52208,1.3 -1.16667,1.3h-2.66467z" vector-effect="non-scaling-stroke"/></defs></g></svg>