<svg version="1.2" xmlns="http://www.w3.org/2000/svg" xmlns:xlink="http://www.w3.org/1999/xlink" overflow="visible" preserveAspectRatio="none" viewBox="0 0 28.00001 24" width="28.00001" height="24"><g transform="translate(0, 0)"><g transform="translate(0.000009999999999843467, 0) rotate(0)"><path style="stroke-width: 0; stroke-linecap: butt; stroke-linejoin: miter; fill: rgb(55, 78, 179);" d="M26.44444,0h-24.88889v3h24.88889zM28,15v-3l-1.55556,-7.5h-24.88889l-1.55556,7.5v3h1.55556v9h15.55556v-9h6.22222v9h3.11111v-9zM14,21h-9.33333v-6h9.33333z" vector-effect="non-scaling-stroke"/></g><defs><path id="path-1696445701800421" d="M26.44444,0h-24.88889v3h24.88889zM28,15v-3l-1.55556,-7.5h-24.88889l-1.55556,7.5v3h1.55556v9h15.55556v-9h6.22222v9h3.11111v-9zM14,21h-9.33333v-6h9.33333z" vector-effect="non-scaling-stroke"/></defs></g></svg>