<svg version="1.2" xmlns="http://www.w3.org/2000/svg" xmlns:xlink="http://www.w3.org/1999/xlink" overflow="visible" preserveAspectRatio="none" viewBox="0 0 13.99999870367428 14.00001" width="13.99999870367428" height="14.00001"><g transform="translate(0, 0)"><g transform="translate(0.000004492855389207312, 0.00000999999999995449) rotate(0)"><path style="stroke-width: 0; stroke-linecap: butt; stroke-linejoin: miter; fill: rgb(255, 255, 255);" d="M13.99977,4.8186v0.46233c0.01577,1.10831 -0.8021,2.05226 -1.90133,2.19442c-0.59589,0.06216 -1.19011,-0.13197 -1.63437,-0.53395c-0.07435,-0.06671 -0.14397,-0.13851 -0.20837,-0.21488c-0.40121,0.47758 -0.99113,0.7559 -1.61483,0.76186c-0.63186,0.01043 -1.23471,-0.26469 -1.64088,-0.74884c-0.40607,0.4769 -1.00151,0.75081 -1.62785,0.74884c-0.62732,0.0065 -1.22459,-0.26825 -1.62785,-0.74884c-0.06419,0.07251 -0.13385,0.14 -0.20837,0.20186c-0.44468,0.40126 -1.03857,0.59528 -1.63437,0.53395c-1.09924,-0.14216 -1.91711,-1.08611 -1.90133,-2.19442v-0.46233c-0.00053,-0.33185 0.05223,-0.66163 0.15627,-0.97674l1.02229,-3.06047c0.15432,-0.46615 0.58988,-0.78102 1.0809,-0.7814h9.48062c0.49102,0.00037 0.92658,0.31525 1.0809,0.7814l1.02229,3.06047c0.10404,0.31512 0.1568,0.6449 0.15627,0.97674zM8.79064,10.90698v3.09302h-3.58128v-3.09302c0,-0.08991 0.07288,-0.16279 0.16279,-0.16279h3.25571c0.0899,0 0.16279,0.07288 0.16279,0.16279zM13.34863,8.08744v4.77302c-0.00356,0.62787 -0.51165,1.13598 -1.1395,1.13953h-2.44178v-3.25581c0,-0.53944 -0.43729,-0.97674 -0.97671,-0.97674h-3.58128c-0.53942,0 -0.97671,0.4373 -0.97671,0.97674v3.25581h-2.44178c-0.62276,-0.01061 -1.12303,-0.51668 -1.12648,-1.13953v-4.76c0.3545,0.20069 0.7471,0.32491 1.15252,0.36465h0.30604c0.57244,0.00269 1.13416,-0.15522 1.62134,-0.45581c0.49112,0.29705 1.0539,0.45463 1.62785,0.45581c0.56981,-0.00157 1.1283,-0.15922 1.61483,-0.45581c0.4949,0.29934 1.0625,0.45701 1.64088,0.45581c0.57519,0.00126 1.13919,-0.15892 1.62785,-0.46233c0.49651,0.30042 1.06711,0.45605 1.64739,0.4493h0.30604c0.40095,-0.04151 0.78894,-0.16568 1.1395,-0.36465z" vector-effect="non-scaling-stroke"/></g><defs><path id="path-1694725180665244" d="M13.99977,4.8186v0.46233c0.01577,1.10831 -0.8021,2.05226 -1.90133,2.19442c-0.59589,0.06216 -1.19011,-0.13197 -1.63437,-0.53395c-0.07435,-0.06671 -0.14397,-0.13851 -0.20837,-0.21488c-0.40121,0.47758 -0.99113,0.7559 -1.61483,0.76186c-0.63186,0.01043 -1.23471,-0.26469 -1.64088,-0.74884c-0.40607,0.4769 -1.00151,0.75081 -1.62785,0.74884c-0.62732,0.0065 -1.22459,-0.26825 -1.62785,-0.74884c-0.06419,0.07251 -0.13385,0.14 -0.20837,0.20186c-0.44468,0.40126 -1.03857,0.59528 -1.63437,0.53395c-1.09924,-0.14216 -1.91711,-1.08611 -1.90133,-2.19442v-0.46233c-0.00053,-0.33185 0.05223,-0.66163 0.15627,-0.97674l1.02229,-3.06047c0.15432,-0.46615 0.58988,-0.78102 1.0809,-0.7814h9.48062c0.49102,0.00037 0.92658,0.31525 1.0809,0.7814l1.02229,3.06047c0.10404,0.31512 0.1568,0.6449 0.15627,0.97674zM8.79064,10.90698v3.09302h-3.58128v-3.09302c0,-0.08991 0.07288,-0.16279 0.16279,-0.16279h3.25571c0.0899,0 0.16279,0.07288 0.16279,0.16279zM13.34863,8.08744v4.77302c-0.00356,0.62787 -0.51165,1.13598 -1.1395,1.13953h-2.44178v-3.25581c0,-0.53944 -0.43729,-0.97674 -0.97671,-0.97674h-3.58128c-0.53942,0 -0.97671,0.4373 -0.97671,0.97674v3.25581h-2.44178c-0.62276,-0.01061 -1.12303,-0.51668 -1.12648,-1.13953v-4.76c0.3545,0.20069 0.7471,0.32491 1.15252,0.36465h0.30604c0.57244,0.00269 1.13416,-0.15522 1.62134,-0.45581c0.49112,0.29705 1.0539,0.45463 1.62785,0.45581c0.56981,-0.00157 1.1283,-0.15922 1.61483,-0.45581c0.4949,0.29934 1.0625,0.45701 1.64088,0.45581c0.57519,0.00126 1.13919,-0.15892 1.62785,-0.46233c0.49651,0.30042 1.06711,0.45605 1.64739,0.4493h0.30604c0.40095,-0.04151 0.78894,-0.16568 1.1395,-0.36465z" vector-effect="non-scaling-stroke"/></defs></g></svg>