<svg version="1.2" xmlns="http://www.w3.org/2000/svg" xmlns:xlink="http://www.w3.org/1999/xlink" overflow="visible" preserveAspectRatio="none" viewBox="0 0 14.00001 14.00001" width="14.00001" height="14.00001"><g transform="translate(0, 0)"><g transform="translate(0.000009999999999843467, 0.000009999999999621423) rotate(0)"><path style="stroke-width: 0; stroke-linecap: butt; stroke-linejoin: miter; fill: rgb(255, 255, 255);" d="M14,5.83333v2.33333c0,0.64349 -0.52318,1.16667 -1.16667,1.16667h-0.31764c-0.44616,2.64414 -2.74622,4.66667 -5.51569,4.66667c-0.25794,0 -0.46667,-0.20872 -0.46667,-0.46667c0,-0.25794 0.20872,-0.46667 0.46667,-0.46667c2.57305,0 4.66667,-2.09362 4.66667,-4.66667v-2.8c0,-2.57305 -2.09362,-4.66667 -4.66667,-4.66667c-2.57305,0 -4.66667,2.09362 -4.66667,4.66667v3.26667c0,0.25794 -0.20872,0.46667 -0.46667,0.46667h-0.7c-0.64349,0 -1.16667,-0.52318 -1.16667,-1.16667v-2.33333c0,-0.64349 0.52318,-1.16667 1.16667,-1.16667h0.31764c0.44616,-2.64414 2.74622,-4.66667 5.51569,-4.66667c2.76947,0 5.06953,2.02253 5.51569,4.66667h0.31764c0.64349,0 1.16667,0.52318 1.16667,1.16667zM7,1.86667c-2.05853,0 -3.73333,1.6748 -3.73333,3.73333v2.33333c0,2.05853 1.6748,3.73333 3.73333,3.73333c2.05853,0 3.73333,-1.6748 3.73333,-3.73333v-2.33333c0,-2.05853 -1.6748,-3.73333 -3.73333,-3.73333z" vector-effect="non-scaling-stroke"/></g><defs><path id="path-1694725180663236" d="M14,5.83333v2.33333c0,0.64349 -0.52318,1.16667 -1.16667,1.16667h-0.31764c-0.44616,2.64414 -2.74622,4.66667 -5.51569,4.66667c-0.25794,0 -0.46667,-0.20872 -0.46667,-0.46667c0,-0.25794 0.20872,-0.46667 0.46667,-0.46667c2.57305,0 4.66667,-2.09362 4.66667,-4.66667v-2.8c0,-2.57305 -2.09362,-4.66667 -4.66667,-4.66667c-2.57305,0 -4.66667,2.09362 -4.66667,4.66667v3.26667c0,0.25794 -0.20872,0.46667 -0.46667,0.46667h-0.7c-0.64349,0 -1.16667,-0.52318 -1.16667,-1.16667v-2.33333c0,-0.64349 0.52318,-1.16667 1.16667,-1.16667h0.31764c0.44616,-2.64414 2.74622,-4.66667 5.51569,-4.66667c2.76947,0 5.06953,2.02253 5.51569,4.66667h0.31764c0.64349,0 1.16667,0.52318 1.16667,1.16667zM7,1.86667c-2.05853,0 -3.73333,1.6748 -3.73333,3.73333v2.33333c0,2.05853 1.6748,3.73333 3.73333,3.73333c2.05853,0 3.73333,-1.6748 3.73333,-3.73333v-2.33333c0,-2.05853 -1.6748,-3.73333 -3.73333,-3.73333z" vector-effect="non-scaling-stroke"/></defs></g></svg>