<svg version="1.2" xmlns="http://www.w3.org/2000/svg" xmlns:xlink="http://www.w3.org/1999/xlink" overflow="visible" preserveAspectRatio="none" viewBox="0 0 23 23.999990000000004" width="23" height="23.999990000000004"><g transform="translate(0, 0)"><g transform="translate(1.7763568394002505e-15, -0.000009999999998733244) rotate(0)"><path style="stroke-width: 0; stroke-linecap: butt; stroke-linejoin: miter; fill: rgb(51, 176, 204);" d="M22.01383,12c0,-0.92489 -0.11581,-1.83975 -0.34466,-2.72634l1.33074,-0.99656l-2.58287,-4.55414l-1.51547,0.67594c-1.29569,-1.30959 -2.88222,-2.24283 -4.63639,-2.72719l-0.18239,-1.6717h-5.1657l-0.18244,1.67166c-1.75413,0.48436 -3.34065,1.41759 -4.6363,2.72719l-1.51552,-0.67594l-2.58283,4.55414l1.33069,0.99661c-0.22885,0.88659 -0.34461,1.8015 -0.34461,2.72634c0,0.92484 0.11581,1.83975 0.34461,2.72634l-1.33069,0.99656l2.58283,4.55414l1.51552,-0.67594c1.29569,1.30964 2.88222,2.24288 4.6363,2.72719l0.18244,1.6717h5.16574l0.18244,-1.6717c1.75418,-0.48431 3.3407,-1.41759 4.63639,-2.72719l1.51547,0.67594l2.58287,-4.55414l-1.33074,-0.99656c0.2288,-0.88673 0.34456,-1.8015 0.34456,-2.72634zM14.24205,10.39036l0.98695,-0.98395l2.52619,2.62589l-2.57946,2.5717l-0.96651,-1.00467l1.59251,-1.58775zM11.19352,16.89483l-1.35178,-0.28969l1.96465,-9.49997l1.35178,0.28969zM8.79069,13.59928l-0.96651,1.00467l-2.57951,-2.5717l2.52619,-2.62589l0.98695,0.98395l-1.55968,1.62122z" vector-effect="non-scaling-stroke"/></g><defs><path id="path-1696445701803429" d="M22.01383,12c0,-0.92489 -0.11581,-1.83975 -0.34466,-2.72634l1.33074,-0.99656l-2.58287,-4.55414l-1.51547,0.67594c-1.29569,-1.30959 -2.88222,-2.24283 -4.63639,-2.72719l-0.18239,-1.6717h-5.1657l-0.18244,1.67166c-1.75413,0.48436 -3.34065,1.41759 -4.6363,2.72719l-1.51552,-0.67594l-2.58283,4.55414l1.33069,0.99661c-0.22885,0.88659 -0.34461,1.8015 -0.34461,2.72634c0,0.92484 0.11581,1.83975 0.34461,2.72634l-1.33069,0.99656l2.58283,4.55414l1.51552,-0.67594c1.29569,1.30964 2.88222,2.24288 4.6363,2.72719l0.18244,1.6717h5.16574l0.18244,-1.6717c1.75418,-0.48431 3.3407,-1.41759 4.63639,-2.72719l1.51547,0.67594l2.58287,-4.55414l-1.33074,-0.99656c0.2288,-0.88673 0.34456,-1.8015 0.34456,-2.72634zM14.24205,10.39036l0.98695,-0.98395l2.52619,2.62589l-2.57946,2.5717l-0.96651,-1.00467l1.59251,-1.58775zM11.19352,16.89483l-1.35178,-0.28969l1.96465,-9.49997l1.35178,0.28969zM8.79069,13.59928l-0.96651,1.00467l-2.57951,-2.5717l2.52619,-2.62589l0.98695,0.98395l-1.55968,1.62122z" vector-effect="non-scaling-stroke"/></defs></g></svg>