<svg version="1.2" xmlns="http://www.w3.org/2000/svg" xmlns:xlink="http://www.w3.org/1999/xlink" overflow="visible" preserveAspectRatio="none" viewBox="0 0 22 16" width="22" height="16"><g transform="translate(0, 0)"><g transform="translate(0, 0) rotate(0)"><path d="M22,15c0,0.55228 -0.44772,1 -1,1h-12c-0.55228,0 -1,-0.44772 -1,-1c0,-3.31371 2.68629,-6 6,-6h2c3.31371,0 6,2.68629 6,6zM15,0c-2.20914,0 -4,1.79086 -4,4c0,2.20914 1.79086,4 4,4c2.20914,0 4,-1.79086 4,-4c0,-2.20914 -1.79086,-4 -4,-4zM6,0c-2.20914,0 -4,1.79086 -4,4c0,2.20914 1.79086,4 4,4c2.20914,0 4,-1.79086 4,-4c0,-2.20914 -1.79086,-4 -4,-4zM6,15c-0.003,-2.12167 0.84325,-4.15628 2.35,-5.65c-0.61047,-0.23048 -1.25748,-0.34904 -1.91,-0.35h-0.88c-3.06842,0.0055 -5.5545,2.49158 -5.56,5.56v0.44c0,0.55228 0.44772,1 1,1h5.18c-0.11642,-0.32067 -0.1773,-0.65886 -0.18,-1z" style="stroke-width: 0; stroke-linecap: butt; stroke-linejoin: miter; fill: rgb(255, 77, 77);" vector-effect="non-scaling-stroke"/></g><defs><path id="path-1694026680906638472" d="M22,15c0,0.55228 -0.44772,1 -1,1h-12c-0.55228,0 -1,-0.44772 -1,-1c0,-3.31371 2.68629,-6 6,-6h2c3.31371,0 6,2.68629 6,6zM15,0c-2.20914,0 -4,1.79086 -4,4c0,2.20914 1.79086,4 4,4c2.20914,0 4,-1.79086 4,-4c0,-2.20914 -1.79086,-4 -4,-4zM6,0c-2.20914,0 -4,1.79086 -4,4c0,2.20914 1.79086,4 4,4c2.20914,0 4,-1.79086 4,-4c0,-2.20914 -1.79086,-4 -4,-4zM6,15c-0.003,-2.12167 0.84325,-4.15628 2.35,-5.65c-0.61047,-0.23048 -1.25748,-0.34904 -1.91,-0.35h-0.88c-3.06842,0.0055 -5.5545,2.49158 -5.56,5.56v0.44c0,0.55228 0.44772,1 1,1h5.18c-0.11642,-0.32067 -0.1773,-0.65886 -0.18,-1z" vector-effect="non-scaling-stroke"/></defs></g></svg>