<svg version="1.2" xmlns="http://www.w3.org/2000/svg" xmlns:xlink="http://www.w3.org/1999/xlink" overflow="visible" preserveAspectRatio="none" viewBox="0 0 12.000008809639516 14.000011133529945" width="12.000008809639516" height="14.000011133529945"><g transform="translate(0, 0)"><g transform="translate(0.000009999999999621423, 0.000009999999999177334) rotate(0)"><path style="stroke-width: 0; stroke-linecap: butt; stroke-linejoin: miter; fill: rgb(255, 255, 255);" d="M11.91353,9.30624c0.29638,1.01898 -0.18692,2.0946 -1.17732,2.62024v1.65269c0.00009,0.17019 -0.11085,0.32365 -0.28106,0.38879c-0.17021,0.06514 -0.36614,0.02911 -0.49637,-0.09127l-0.48566,-0.44803l-0.48566,0.44803c-0.13023,0.12038 -0.32616,0.15641 -0.49637,0.09127c-0.17021,-0.06514 -0.28115,-0.2186 -0.28106,-0.38879v-1.65269c-0.99041,-0.52564 -1.4737,-1.60126 -1.17732,-2.62024c0.29638,-1.01898 1.29817,-1.72603 2.44041,-1.72239c1.14223,-0.00364 2.14403,0.7034 2.44041,1.72239zM6.72222,12.68091v0.31909h-3.66667c-1.6867,-0.00195 -3.05354,-1.3236 -3.05556,-2.95455v-7.09091c0.00202,-1.63094 1.36886,-2.95259 3.05556,-2.95455h4.88889c1.6867,0.00195 3.05354,1.3236 3.05556,2.95455v4.0235c-1.13363,-0.63583 -2.53221,-0.63749 -3.66745,-0.00435c-1.13524,0.63313 -1.83408,1.80455 -1.83255,3.07176c0.00016,1.00681 0.44484,1.96565 1.22222,2.63545zM2.44444,2.95455c0,0.32635 0.2736,0.59091 0.61111,0.59091h4.88889c0.33751,0 0.61111,-0.26456 0.61111,-0.59091c0,-0.32635 -0.2736,-0.59091 -0.61111,-0.59091h-4.88889c-0.33751,0 -0.61111,0.26456 -0.61111,0.59091zM2.44444,5.31818c0,0.32635 0.2736,0.59091 0.61111,0.59091h4.88889c0.33751,0 0.61111,-0.26456 0.61111,-0.59091c0,-0.32635 -0.2736,-0.59091 -0.61111,-0.59091h-4.88889c-0.33751,0 -0.61111,0.26456 -0.61111,0.59091zM5.5,7.68182c0,-0.32635 -0.2736,-0.59091 -0.61111,-0.59091h-1.83333c-0.33751,0 -0.61111,0.26456 -0.61111,0.59091c0,0.32635 0.2736,0.59091 0.61111,0.59091h1.83333c0.33751,0 0.61111,-0.26456 0.61111,-0.59091z" vector-effect="non-scaling-stroke"/></g><defs><path id="path-1694725180682284" d="M11.91353,9.30624c0.29638,1.01898 -0.18692,2.0946 -1.17732,2.62024v1.65269c0.00009,0.17019 -0.11085,0.32365 -0.28106,0.38879c-0.17021,0.06514 -0.36614,0.02911 -0.49637,-0.09127l-0.48566,-0.44803l-0.48566,0.44803c-0.13023,0.12038 -0.32616,0.15641 -0.49637,0.09127c-0.17021,-0.06514 -0.28115,-0.2186 -0.28106,-0.38879v-1.65269c-0.99041,-0.52564 -1.4737,-1.60126 -1.17732,-2.62024c0.29638,-1.01898 1.29817,-1.72603 2.44041,-1.72239c1.14223,-0.00364 2.14403,0.7034 2.44041,1.72239zM6.72222,12.68091v0.31909h-3.66667c-1.6867,-0.00195 -3.05354,-1.3236 -3.05556,-2.95455v-7.09091c0.00202,-1.63094 1.36886,-2.95259 3.05556,-2.95455h4.88889c1.6867,0.00195 3.05354,1.3236 3.05556,2.95455v4.0235c-1.13363,-0.63583 -2.53221,-0.63749 -3.66745,-0.00435c-1.13524,0.63313 -1.83408,1.80455 -1.83255,3.07176c0.00016,1.00681 0.44484,1.96565 1.22222,2.63545zM2.44444,2.95455c0,0.32635 0.2736,0.59091 0.61111,0.59091h4.88889c0.33751,0 0.61111,-0.26456 0.61111,-0.59091c0,-0.32635 -0.2736,-0.59091 -0.61111,-0.59091h-4.88889c-0.33751,0 -0.61111,0.26456 -0.61111,0.59091zM2.44444,5.31818c0,0.32635 0.2736,0.59091 0.61111,0.59091h4.88889c0.33751,0 0.61111,-0.26456 0.61111,-0.59091c0,-0.32635 -0.2736,-0.59091 -0.61111,-0.59091h-4.88889c-0.33751,0 -0.61111,0.26456 -0.61111,0.59091zM5.5,7.68182c0,-0.32635 -0.2736,-0.59091 -0.61111,-0.59091h-1.83333c-0.33751,0 -0.61111,0.26456 -0.61111,0.59091c0,0.32635 0.2736,0.59091 0.61111,0.59091h1.83333c0.33751,0 0.61111,-0.26456 0.61111,-0.59091z" vector-effect="non-scaling-stroke"/></defs></g></svg>