<svg version="1.2" xmlns="http://www.w3.org/2000/svg" xmlns:xlink="http://www.w3.org/1999/xlink" overflow="visible" preserveAspectRatio="none" viewBox="0 0 50.00000000000001 41" width="50.00000000000001" height="41"><g transform="translate(0, 0)"><g transform="translate(7.105427357601002e-15, -8.881784197001252e-16) rotate(0)"><path style="stroke-width: 0; stroke-linecap: butt; stroke-linejoin: miter; fill: rgb(201, 206, 214);" d="M26.70892,29.52h-21.70892v-7.98541l4.92067,-5.58141c0.5033,-0.56311 1.23226,-0.88068 1.99426,-0.86882c0.762,0.01187 1.48038,0.35198 1.96532,0.93048l4.23642,5.13476l8.0245,-9.56071c0.49513,-0.57716 1.22352,-0.91035 1.99111,-0.91081c0.76758,-0.00046 1.49639,0.33187 1.99223,0.90843l5.78558,6.89169c-5.14531,1.37457 -8.83939,5.80762 -9.20117,11.04179zM18.49167,6.16443c-1.84095,0 -3.33333,1.46851 -3.33333,3.28c0,1.81149 1.49238,3.28 3.33333,3.28c1.84095,0 3.33333,-1.46851 3.33333,-3.28c0,-1.81149 -1.49238,-3.28 -3.33333,-3.28zM26.70892,31.16h-22.54225c-0.46024,0 -0.83333,-0.36713 -0.83333,-0.82v-26.24c0,-0.45287 0.3731,-0.82 0.83333,-0.82h35c0.46024,0 0.83333,0.36713 0.83333,0.82v13.98157c1.13741,0.07346 2.25909,0.30094 3.33333,0.67601v-16.29758c-0.00152,-1.358 -1.11992,-2.45851 -2.5,-2.46h-38.33333c-1.38008,0.00149 -2.49848,1.102 -2.5,2.46v29.52c0.00152,1.358 1.11992,2.45851 2.5,2.46h24.89592c-0.38118,-1.05705 -0.61236,-2.16078 -0.687,-3.28zM39.16667,19.68c-5.98308,0 -10.83333,4.77264 -10.83333,10.66c0,5.88736 4.85025,10.66 10.83333,10.66c5.98308,0 10.83333,-4.77264 10.83333,-10.66c-0.00675,-5.8846 -4.85305,-10.65336 -10.83333,-10.66zM43.33333,30.34h-1.66667v6.56c0,0.45287 -0.3731,0.82 -0.83333,0.82h-3.33333c-0.46024,0 -0.83333,-0.36713 -0.83333,-0.82v-6.58001l-1.6565,0.02001c-0.31342,0.00256 -0.6019,-0.16779 -0.74706,-0.44113c-0.14516,-0.27334 -0.12254,-0.60366 0.05856,-0.85537l4.16667,-5.74c0.16404,-0.20405 0.41393,-0.32306 0.67833,-0.32306c0.26441,0 0.51429,0.11901 0.67833,0.32306l4.16667,5.74c0.17694,0.25085 0.19876,0.57731 0.05671,0.8488c-0.14204,0.27149 -0.42475,0.44368 -0.73505,0.4477z" vector-effect="non-scaling-stroke"/></g><defs><path id="path-169290171437039" d="M26.70892,29.52h-21.70892v-7.98541l4.92067,-5.58141c0.5033,-0.56311 1.23226,-0.88068 1.99426,-0.86882c0.762,0.01187 1.48038,0.35198 1.96532,0.93048l4.23642,5.13476l8.0245,-9.56071c0.49513,-0.57716 1.22352,-0.91035 1.99111,-0.91081c0.76758,-0.00046 1.49639,0.33187 1.99223,0.90843l5.78558,6.89169c-5.14531,1.37457 -8.83939,5.80762 -9.20117,11.04179zM18.49167,6.16443c-1.84095,0 -3.33333,1.46851 -3.33333,3.28c0,1.81149 1.49238,3.28 3.33333,3.28c1.84095,0 3.33333,-1.46851 3.33333,-3.28c0,-1.81149 -1.49238,-3.28 -3.33333,-3.28zM26.70892,31.16h-22.54225c-0.46024,0 -0.83333,-0.36713 -0.83333,-0.82v-26.24c0,-0.45287 0.3731,-0.82 0.83333,-0.82h35c0.46024,0 0.83333,0.36713 0.83333,0.82v13.98157c1.13741,0.07346 2.25909,0.30094 3.33333,0.67601v-16.29758c-0.00152,-1.358 -1.11992,-2.45851 -2.5,-2.46h-38.33333c-1.38008,0.00149 -2.49848,1.102 -2.5,2.46v29.52c0.00152,1.358 1.11992,2.45851 2.5,2.46h24.89592c-0.38118,-1.05705 -0.61236,-2.16078 -0.687,-3.28zM39.16667,19.68c-5.98308,0 -10.83333,4.77264 -10.83333,10.66c0,5.88736 4.85025,10.66 10.83333,10.66c5.98308,0 10.83333,-4.77264 10.83333,-10.66c-0.00675,-5.8846 -4.85305,-10.65336 -10.83333,-10.66zM43.33333,30.34h-1.66667v6.56c0,0.45287 -0.3731,0.82 -0.83333,0.82h-3.33333c-0.46024,0 -0.83333,-0.36713 -0.83333,-0.82v-6.58001l-1.6565,0.02001c-0.31342,0.00256 -0.6019,-0.16779 -0.74706,-0.44113c-0.14516,-0.27334 -0.12254,-0.60366 0.05856,-0.85537l4.16667,-5.74c0.16404,-0.20405 0.41393,-0.32306 0.67833,-0.32306c0.26441,0 0.51429,0.11901 0.67833,0.32306l4.16667,5.74c0.17694,0.25085 0.19876,0.57731 0.05671,0.8488c-0.14204,0.27149 -0.42475,0.44368 -0.73505,0.4477z" vector-effect="non-scaling-stroke"/></defs></g></svg>